{"glyphs":{"0":{"ha":17,"x_min":0,"x_max":0,"o":"m 521 1040 b 972 610 794 1040 972 872 l 972 261 b 521 -169 972 -1 794 -169 b 69 261 247 -169 69 -1 l 69 610 b 521 1040 69 872 247 1040 m 108 436 b 521 -112 342 436 513 183 b 933 438 529 183 699 438 b 521 988 699 438 529 690 b 108 436 513 690 342 436 "},"1":{"ha":-242,"x_min":0,"x_max":0,"o":"m 297 -151 l 297 746 l 69 617 l 69 839 l 367 1024 l 575 1024 l 575 -151 "},"2":{"ha":-71,"x_min":0,"x_max":0,"o":"m 42 -151 l 42 33 l 424 374 b 628 668 550 486 628 554 b 467 818 628 757 565 818 b 306 640 360 818 292 751 l 56 640 b 469 1040 42 836 183 1040 b 906 661 758 1040 906 872 b 693 313 906 539 840 443 l 379 36 b 894 126 550 36 751 54 l 894 -151 "},"3":{"ha":-57,"x_min":0,"x_max":0,"o":"m 329 549 l 413 549 b 607 701 557 549 607 613 b 465 822 607 772 549 822 b 324 718 392 822 324 779 l 81 718 b 481 1042 74 889 221 1042 b 885 728 726 1042 885 900 b 711 465 885 621 803 501 b 926 185 833 428 926 336 b 485 -169 926 -21 718 -169 b 28 183 228 -169 28 -53 l 278 183 b 456 58 278 107 364 58 b 649 196 565 58 649 113 b 413 354 649 297 549 354 l 329 354 "},"4":{"ha":4,"x_min":0,"x_max":0,"o":"m 1001 24 l 861 24 l 861 -151 l 597 -151 l 597 24 l 35 24 l 35 232 l 611 1024 l 861 1024 l 861 246 l 1001 246 m 546 801 b 251 449 540 606 436 456 b 546 79 442 440 546 269 b 839 450 546 269 650 442 b 546 801 654 457 550 606 "},"5":{"ha":-14,"x_min":0,"x_max":0,"o":"m 506 -175 b 42 215 274 -175 42 -54 l 292 215 b 494 53 299 115 390 53 b 688 247 619 53 688 139 b 493 435 688 363 604 435 b 288 376 418 435 349 411 l 131 451 l 131 1025 l 861 1025 l 861 803 l 406 803 l 406 614 b 563 638 443 628 519 638 b 969 254 761 638 969 503 b 506 -175 969 -11 732 -175 "},"6":{"ha":-8,"x_min":0,"x_max":0,"o":"m 515 -174 b 69 207 247 -174 69 -10 l 69 690 b 508 1042 69 904 254 1042 b 933 710 774 1042 933 899 l 933 703 l 661 703 l 661 710 b 508 819 661 775 597 819 b 342 697 417 819 342 774 l 342 582 b 515 613 376 599 463 613 b 961 272 769 613 961 475 l 961 207 b 515 -174 961 -10 783 -174 m 515 -106 b 890 222 521 138 649 218 b 515 551 649 226 521 318 b 140 221 508 318 381 225 b 515 -106 381 217 508 138 "},"7":{"ha":-135,"x_min":0,"x_max":0,"o":"m 254 149 b 669 801 254 429 418 699 l 14 801 l 14 1024 l 876 1024 l 876 867 b 532 176 683 708 532 482 l 532 -151 l 254 -151 "},"8":{"ha":17,"x_min":0,"x_max":0,"o":"m 521 1042 b 946 710 789 1042 946 924 l 946 700 b 822 476 946 610 901 528 b 986 207 925 421 986 331 l 986 192 b 521 -169 986 -57 794 -169 b 56 192 247 -169 56 -57 l 56 207 b 219 476 56 332 117 422 b 97 700 140 528 97 611 l 97 710 b 521 1042 97 924 254 1042 m 517 986 b 167 743 508 840 342 747 b 517 501 342 739 508 657 b 867 743 525 657 692 739 b 517 986 692 747 525 840 m 111 182 b 517 -122 296 168 517 88 b 908 181 517 82 726 175 b 517 486 726 186 517 294 b 111 182 517 290 296 182 "},"9":{"ha":-8,"x_min":0,"x_max":0,"o":"m 501 1042 b 947 663 769 1042 947 879 l 947 182 b 508 -169 947 -32 763 -169 b 83 163 243 -169 83 -26 l 83 169 l 356 169 l 356 163 b 508 53 356 97 419 53 b 675 175 600 53 675 99 l 675 290 b 501 260 640 274 554 260 b 56 597 247 260 56 394 l 56 663 b 501 1042 56 879 233 1042 m 501 974 b 126 647 494 731 367 651 b 501 301 374 643 501 549 b 876 649 501 549 629 643 b 501 974 635 653 507 731 "},"\u0000":{"ha":-707,"x_min":0,"x_max":0,"o":""},"\u0001":{"ha":-707,"x_min":0,"x_max":0,"o":""},"\u0002":{"ha":-707,"x_min":0,"x_max":0,"o":""},"\u0003":{"ha":-707,"x_min":0,"x_max":0,"o":""},"\u0004":{"ha":-707,"x_min":0,"x_max":0,"o":""},"\u0005":{"ha":-707,"x_min":0,"x_max":0,"o":""},"\u0006":{"ha":-707,"x_min":0,"x_max":0,"o":""},"\u0007":{"ha":-707,"x_min":0,"x_max":0,"o":""},"\b":{"ha":-707,"x_min":0,"x_max":0,"o":""},"\t":{"ha":-707,"x_min":0,"x_max":0,"o":""},"\n":{"ha":-707,"x_min":0,"x_max":0,"o":""},"\u000b":{"ha":-707,"x_min":0,"x_max":0,"o":""},"\f":{"ha":-707,"x_min":0,"x_max":0,"o":""},"\r":{"ha":-707,"x_min":0,"x_max":0,"o":""},"\u000e":{"ha":-707,"x_min":0,"x_max":0,"o":""},"\u000f":{"ha":-707,"x_min":0,"x_max":0,"o":""},"\u0010":{"ha":-707,"x_min":0,"x_max":0,"o":""},"\u0011":{"ha":-707,"x_min":0,"x_max":0,"o":""},"\u0012":{"ha":-707,"x_min":0,"x_max":0,"o":""},"\u0013":{"ha":-707,"x_min":0,"x_max":0,"o":""},"\u0014":{"ha":-707,"x_min":0,"x_max":0,"o":""},"\u0015":{"ha":-707,"x_min":0,"x_max":0,"o":""},"\u0016":{"ha":-707,"x_min":0,"x_max":0,"o":""},"\u0017":{"ha":-707,"x_min":0,"x_max":0,"o":""},"\u0018":{"ha":-707,"x_min":0,"x_max":0,"o":""},"\u0019":{"ha":-707,"x_min":0,"x_max":0,"o":""},"\u001a":{"ha":-707,"x_min":0,"x_max":0,"o":""},"\u001b":{"ha":-707,"x_min":0,"x_max":0,"o":""},"\u001c":{"ha":-707,"x_min":0,"x_max":0,"o":""},"\u001d":{"ha":-707,"x_min":0,"x_max":0,"o":""},"\u001e":{"ha":-707,"x_min":0,"x_max":0,"o":""},"\u001f":{"ha":-707,"x_min":0,"x_max":0,"o":""}," ":{"ha":-707,"x_min":0,"x_max":0,"o":""}," ":{"ha":-707,"x_min":0,"x_max":0,"o":""},"!":{"ha":-489,"x_min":0,"x_max":0,"o":"m 126 1056 l 410 1056 l 358 267 l 178 267 m 268 -169 b 111 -15 175 -169 111 -103 b 268 142 111 75 175 142 b 425 -15 360 142 425 75 b 268 -169 425 -103 360 -169 "},"\"":{"ha":-235,"x_min":0,"x_max":0,"o":"m 111 1111 l 374 1111 l 336 700 l 163 700 m 417 1111 l 679 1111 l 628 700 l 454 700 "},"#":{"ha":-83,"x_min":0,"x_max":0,"o":"m 749 665 l 696 225 l 851 225 l 851 44 l 675 44 l 651 -153 l 474 -153 l 497 44 l 333 44 l 310 -153 l 132 -153 l 156 44 l 42 44 l 42 225 l 178 225 l 232 665 l 93 665 l 93 846 l 254 846 l 276 1025 l 450 1025 l 428 846 l 596 846 l 618 1025 l 792 1025 l 769 846 l 900 846 l 900 665 m 354 225 l 519 225 l 574 665 l 407 665 "},"$":{"ha":-6,"x_min":0,"x_max":0,"o":"m 950 211 b 629 -144 950 51 840 -104 l 629 -294 l 417 -294 l 417 -147 b 69 224 213 -115 69 15 l 351 224 b 521 67 351 140 408 67 b 654 183 617 67 654 122 b 528 300 654 231 582 271 l 304 415 b 104 694 186 476 104 538 b 417 1017 104 871 222 988 l 417 1181 l 629 1181 l 629 1013 b 911 694 783 978 911 867 l 650 694 b 521 807 650 765 603 807 b 401 707 444 807 401 767 b 535 593 401 650 449 640 l 754 474 b 950 211 864 414 950 360 "},"%":{"ha":307,"x_min":0,"x_max":0,"o":"m 311 436 b 14 740 139 436 14 533 b 311 1042 14 949 139 1042 b 610 740 483 1042 610 949 b 311 436 610 533 483 436 m 360 -169 l 171 -169 l 974 1042 l 1163 1042 m 311 1006 b 54 740 306 872 208 746 b 311 474 208 733 306 608 b 571 740 315 608 417 733 b 311 1006 417 746 315 872 m 1021 435 b 1318 131 1193 435 1318 338 b 1021 -171 1318 -78 1193 -171 b 722 131 849 -171 722 -78 b 1021 435 722 338 849 435 m 1021 -135 b 1278 131 1025 -1 1124 124 b 1021 396 1124 136 1025 263 b 761 131 1015 263 915 136 b 1021 -135 915 124 1015 -1 "},"&":{"ha":121,"x_min":0,"x_max":0,"o":"m 1094 476 b 961 89 1094 375 1054 207 b 1132 47 1010 63 1064 47 l 1132 -175 b 796 -85 982 -175 881 -143 b 482 -175 714 -133 611 -175 b 42 164 218 -175 42 -47 b 206 446 42 285 111 383 l 260 482 l 235 510 b 139 726 193 557 139 640 b 474 1042 139 906 283 1042 b 801 761 665 1042 801 926 b 665 513 801 651 747 567 l 582 456 l 782 240 b 851 476 833 306 851 371 l 1094 476 m 446 601 l 521 650 b 586 761 563 676 586 711 b 478 857 586 815 531 857 b 365 747 413 857 365 814 b 442 607 365 704 407 644 m 475 40 b 622 79 536 40 582 57 l 397 329 l 382 318 b 308 181 324 276 308 224 b 475 40 308 97 374 40 "},"'":{"ha":-519,"x_min":0,"x_max":0,"o":"m 111 1111 l 394 1111 l 343 700 l 163 700 "},"(":{"ha":-468,"x_min":0,"x_max":0,"o":"m 118 397 b 367 1183 118 692 214 956 l 543 1183 b 347 397 411 968 347 610 b 543 -389 347 185 411 -174 l 367 -389 b 118 397 214 -161 118 103 "},")":{"ha":-468,"x_min":0,"x_max":0,"o":"m 439 397 b 190 -389 439 103 343 -161 l 14 -389 b 210 397 146 -174 210 185 b 14 1183 210 610 146 968 l 190 1183 b 439 397 343 956 439 692 "},"*":{"ha":-353,"x_min":0,"x_max":0,"o":"m 418 956 l 599 1040 l 665 836 l 469 797 l 606 654 l 432 528 l 336 700 l 240 526 l 67 653 l 201 797 l 7 835 l 74 1039 l 251 956 l 228 1153 l 443 1153 "},"+":{"ha":-92,"x_min":0,"x_max":0,"o":"m 585 846 l 585 551 l 864 551 l 864 346 l 585 346 l 585 51 l 349 51 l 349 346 l 69 346 l 69 551 l 349 551 l 349 846 "},",":{"ha":-558,"x_min":0,"x_max":0,"o":"m 390 -22 b 69 -369 404 -196 260 -356 l 69 -265 b 188 -157 142 -244 175 -212 b 76 -15 119 -140 76 -87 b 233 142 76 75 140 142 b 390 -22 325 142 383 68 "},"-":{"ha":-425,"x_min":0,"x_max":0,"o":"m 69 553 l 531 553 l 531 344 l 69 344 "},".":{"ha":-558,"x_min":0,"x_max":0,"o":"m 233 -169 b 76 -15 140 -169 76 -103 b 233 142 76 75 140 142 b 390 -15 325 142 390 75 b 233 -169 390 -103 325 -169 "},"/":{"ha":-507,"x_min":0,"x_max":0,"o":"m 328 1156 l 511 1156 l 190 -332 l 7 -332 "},":":{"ha":-433,"x_min":0,"x_max":0,"o":"m 296 600 b 139 754 203 600 139 667 b 296 911 139 844 203 911 b 453 754 388 911 453 844 b 296 600 453 667 388 600 m 296 -25 b 139 129 203 -25 139 42 b 296 286 139 219 203 286 b 453 129 388 286 453 219 b 296 -25 453 42 388 -25 "},";":{"ha":-426,"x_min":0,"x_max":0,"o":"m 303 600 b 146 754 210 600 146 667 b 303 911 146 844 210 911 b 460 754 394 911 460 844 b 303 600 460 667 394 600 m 460 136 b 139 -197 457 -36 328 -183 l 139 -93 b 253 1 204 -74 239 -46 b 146 143 188 19 146 72 b 303 300 146 233 210 300 b 460 143 394 300 460 233 "},"<":{"ha":-421,"x_min":0,"x_max":0,"o":"m 285 407 l 590 -6 l 590 -292 l 69 301 l 69 521 l 590 1114 l 590 828 l 285 415 "},"=":{"ha":-199,"x_min":0,"x_max":0,"o":"m 56 754 l 771 754 l 771 553 l 56 553 m 56 340 l 771 340 l 771 139 l 56 139 "},">":{"ha":-421,"x_min":0,"x_max":0,"o":"m 319 415 l 14 828 l 14 1114 l 535 521 l 535 301 l 14 -292 l 14 -6 l 319 407 "},"?":{"ha":-179,"x_min":0,"x_max":0,"o":"m 274 313 b 357 531 274 401 308 472 l 465 658 b 503 749 490 688 503 718 b 389 854 503 818 454 854 b 268 740 324 854 268 815 l 18 740 b 410 1081 18 939 185 1081 b 776 768 606 1081 776 988 b 697 576 776 689 742 631 l 557 407 b 524 267 529 374 524 307 l 274 267 m 403 -169 b 246 -15 310 -169 246 -103 b 403 142 246 75 310 142 b 560 -15 494 142 560 75 b 403 -169 560 -103 494 -169 "},"@":{"ha":593,"x_min":0,"x_max":0,"o":"m 818 765 b 981 701 879 765 947 746 l 981 761 l 1189 761 l 1189 339 b 1238 165 1189 226 1201 165 b 1383 475 1306 165 1383 282 b 876 964 1383 743 1235 964 b 247 310 557 964 247 717 b 804 -229 247 -46 526 -229 b 1160 -165 896 -229 1088 -203 l 1160 -317 b 782 -399 1050 -376 911 -399 b 56 304 419 -399 56 -164 b 900 1132 56 783 439 1132 b 1563 483 1306 1132 1563 864 b 1213 -17 1563 149 1336 -17 b 1024 107 1113 -17 1049 26 b 804 -17 989 38 890 -17 b 443 365 576 -17 443 146 b 818 765 443 585 589 765 m 807 693 b 533 371 800 521 667 378 b 807 50 667 364 800 221 b 1081 372 814 221 947 365 b 807 693 947 379 814 521 "},"A":{"ha":122,"x_min":0,"x_max":0,"o":"m 771 68 l 376 68 l 297 -151 l 0 -151 l 436 1024 l 713 1024 l 1147 -151 l 850 -151 m 828 515 b 574 897 636 515 576 692 b 319 515 571 692 510 515 b 574 117 515 515 574 315 b 828 515 574 315 632 515 "},"B":{"ha":47,"x_min":0,"x_max":0,"o":"m 589 1024 b 971 733 804 1024 971 931 b 831 490 971 638 910 536 b 1031 213 942 460 1031 335 b 604 -151 1031 -21 861 -151 l 69 -151 l 69 1024 m 531 986 b 181 743 522 828 356 747 b 531 501 356 739 522 669 b 881 743 539 669 706 739 b 531 986 706 747 539 828 m 531 486 b 153 183 531 294 333 188 b 531 -121 333 178 531 83 b 908 182 531 83 726 176 b 531 486 726 188 531 294 "},"C":{"ha":79,"x_min":0,"x_max":0,"o":"m 1063 303 l 1063 233 b 556 -169 1063 -15 857 -169 b 49 261 254 -169 49 -1 l 49 610 b 556 1040 49 872 254 1040 b 1063 638 857 1040 1063 886 l 1063 582 l 785 582 l 785 624 b 556 818 785 753 700 818 b 326 596 411 818 326 739 l 326 275 b 556 53 326 132 411 53 b 785 247 700 53 785 118 l 785 303 "},"D":{"ha":69,"x_min":0,"x_max":0,"o":"m 69 1024 l 575 1024 b 1060 436 876 1024 1060 790 b 575 -151 1060 82 876 -151 l 69 -151 m 94 443 b 563 -122 335 443 563 185 b 1031 444 563 185 790 444 b 563 1013 790 444 563 706 b 94 443 563 706 335 443 "},"E":{"ha":-110,"x_min":0,"x_max":0,"o":"m 69 -151 l 69 1024 l 874 1024 l 874 801 l 347 801 l 347 558 l 860 558 l 860 333 l 347 333 l 347 43 b 874 126 553 43 706 67 l 874 -151 "},"F":{"ha":-162,"x_min":0,"x_max":0,"o":"m 849 801 l 347 801 l 347 504 l 814 504 l 814 275 l 347 275 l 347 -151 l 69 -151 l 69 1024 l 849 1024 "},"G":{"ha":107,"x_min":0,"x_max":0,"o":"m 1090 233 b 569 -169 1090 -15 885 -169 b 49 261 268 -169 49 -1 l 49 610 b 569 1040 49 872 268 1040 b 1069 651 871 1040 1069 889 l 1069 596 l 792 596 l 792 638 b 569 818 792 753 714 818 b 326 596 425 818 326 739 l 326 275 b 569 53 326 132 425 53 b 824 247 725 53 824 118 l 824 272 l 553 272 l 553 481 l 1090 481 "},"H":{"ha":81,"x_min":0,"x_max":0,"o":"m 758 -151 l 758 331 l 347 331 l 347 -151 l 69 -151 l 69 1024 l 347 1024 l 347 553 l 758 553 l 758 1024 l 1036 1024 l 1036 -151 "},"I":{"ha":-608,"x_min":0,"x_max":0,"o":"m 347 -151 l 69 -151 l 69 1024 l 347 1024 "},"J":{"ha":-122,"x_min":0,"x_max":0,"o":"m 278 200 b 417 74 278 113 335 74 b 556 218 507 74 556 131 l 556 1024 l 833 1024 l 833 226 b 417 -169 833 17 681 -169 b 14 200 153 -169 14 -3 "},"K":{"ha":56,"x_min":0,"x_max":0,"o":"m 69 1024 l 347 1024 l 347 572 l 706 1024 l 1011 1024 l 633 550 l 1067 -151 l 761 -151 l 467 342 l 347 192 l 347 -151 l 69 -151 "},"L":{"ha":-174,"x_min":0,"x_max":0,"o":"m 69 1024 l 347 1024 l 347 47 b 838 133 519 50 704 72 l 838 -151 l 69 -151 "},"M":{"ha":257,"x_min":0,"x_max":0,"o":"m 878 1024 l 1213 1024 l 1213 -151 l 953 -151 l 953 333 b 972 618 953 406 964 532 l 744 -124 l 538 -124 l 310 618 b 329 333 318 532 329 406 l 329 -151 l 69 -151 l 69 1024 l 404 1024 l 601 400 b 640 211 618 336 631 274 b 681 400 651 274 663 336 "},"N":{"ha":88,"x_min":0,"x_max":0,"o":"m 768 -151 l 422 428 b 336 561 393 476 371 514 b 344 372 342 496 344 431 l 344 -151 l 69 -151 l 69 1024 l 344 1024 l 682 472 b 776 286 717 415 750 354 b 768 483 768 350 768 418 l 768 1024 l 1043 1024 l 1043 -151 "},"O":{"ha":114,"x_min":0,"x_max":0,"o":"m 569 1040 b 1090 610 885 1040 1090 872 l 1090 261 b 569 -169 1090 -1 885 -169 b 49 261 254 -169 49 -1 l 49 610 b 569 1040 49 872 254 1040 m 88 436 b 569 -136 328 436 569 171 b 1051 438 569 171 811 438 b 569 1011 811 438 569 704 b 88 436 569 704 328 436 "},"P":{"ha":19,"x_min":0,"x_max":0,"o":"m 69 -151 l 69 1024 l 590 1024 b 1017 604 847 1024 1017 851 b 590 200 1017 358 833 200 l 347 200 l 347 -151 m 538 979 b 167 613 538 775 347 619 b 538 246 347 604 538 436 b 908 614 538 436 728 606 b 538 979 728 621 538 775 "},"Q":{"ha":114,"x_min":0,"x_max":0,"o":"m 569 1042 b 1090 611 885 1042 1090 874 l 1090 275 b 719 -140 1090 57 947 -94 b 882 -203 729 -171 771 -203 l 1021 -203 l 1021 -425 l 924 -425 b 439 -144 682 -425 451 -361 b 49 275 199 -104 49 50 l 49 611 b 569 1042 49 874 254 1042 m 88 443 b 569 -122 328 443 569 185 b 1051 444 569 185 811 444 b 569 1013 811 444 569 706 b 88 443 569 706 328 443 "},"R":{"ha":39,"x_min":0,"x_max":0,"o":"m 69 -151 l 69 1024 l 590 1024 b 1015 618 847 1024 1015 865 b 806 272 1015 453 933 333 l 1064 -151 l 758 -151 l 526 228 l 347 228 l 347 -151 m 538 979 b 167 626 538 775 347 633 b 538 274 347 618 538 464 b 908 628 538 464 728 619 b 538 979 728 635 538 775 "},"S":{"ha":-12,"x_min":0,"x_max":0,"o":"m 511 -169 b 28 217 233 -169 28 -24 l 310 217 b 514 60 310 124 401 60 b 682 176 610 60 682 115 b 556 290 682 228 613 267 l 269 408 b 69 701 147 460 69 544 b 514 1042 69 908 260 1042 b 932 688 744 1042 932 899 l 671 688 b 514 814 671 758 596 814 b 367 714 438 814 367 774 b 500 600 367 657 410 639 l 782 483 b 978 204 896 435 978 353 b 511 -169 978 18 794 -169 "},"T":{"ha":-33,"x_min":0,"x_max":0,"o":"m 635 -151 l 357 -151 l 357 801 l 14 801 l 14 1024 l 978 1024 l 978 801 l 635 801 "},"U":{"ha":58,"x_min":0,"x_max":0,"o":"m 1028 1024 l 1028 317 b 542 -169 1028 47 857 -169 b 56 317 226 -169 56 47 l 56 1024 l 333 1024 l 333 317 b 542 53 333 151 410 53 b 750 317 674 53 750 151 l 750 1024 "},"V":{"ha":108,"x_min":0,"x_max":0,"o":"m 711 -151 l 422 -151 l 0 1024 l 281 1024 l 488 443 b 567 167 522 346 540 268 b 646 443 593 268 611 347 l 853 1024 l 1133 1024 "},"W":{"ha":460,"x_min":0,"x_max":0,"o":"m 1235 -151 l 863 -151 l 754 483 l 742 557 b 731 483 739 533 735 508 l 622 -151 l 250 -151 l 14 1024 l 303 1024 l 413 413 b 458 135 429 319 443 228 b 501 411 471 226 486 319 l 607 1024 l 878 1024 l 983 411 b 1026 135 999 319 1014 226 b 1072 413 1042 228 1056 319 l 1182 1024 l 1471 1024 "},"X":{"ha":68,"x_min":0,"x_max":0,"o":"m 331 1024 l 546 660 l 761 1024 l 1075 1024 l 717 440 l 1079 -151 l 765 -151 l 546 221 l 328 -151 l 14 -151 l 376 440 l 17 1024 "},"Y":{"ha":86,"x_min":0,"x_max":0,"o":"m 417 -151 l 417 306 l 0 1024 l 314 1024 l 556 572 l 797 1024 l 1111 1024 l 694 306 l 694 -151 "},"Z":{"ha":-72,"x_min":0,"x_max":0,"o":"m 35 29 l 583 801 l 49 801 l 49 1024 l 911 1024 l 911 843 l 360 36 b 918 126 544 36 775 54 l 918 -151 l 35 -151 "},"[":{"ha":-490,"x_min":0,"x_max":0,"o":"m 139 1156 l 528 1156 l 528 1003 l 347 1003 l 347 -181 l 528 -181 l 528 -333 l 139 -333 "},"\\":{"ha":-510,"x_min":0,"x_max":0,"o":"m 7 1156 l 189 1156 l 508 -333 l 326 -333 "},"]":{"ha":-490,"x_min":0,"x_max":0,"o":"m 396 -333 l 7 -333 l 7 -181 l 188 -181 l 188 1003 l 7 1003 l 7 1156 l 396 1156 "},"^":{"ha":-225,"x_min":0,"x_max":0,"o":"m 793 810 l 564 810 l 400 999 l 236 810 l 7 810 l 272 1210 l 528 1210 "},"_":{"ha":-151,"x_min":0,"x_max":0,"o":"m 7 -168 l 867 -168 l 867 -325 l 7 -325 "},"`":{"ha":-140,"x_min":0,"x_max":0,"o":"m 146 985 l 336 1174 l 617 839 l 479 703 "},"a":{"ha":-57,"x_min":0,"x_max":0,"o":"m 383 -169 b 42 86 194 -169 42 -81 b 425 400 42 261 142 368 l 633 424 l 633 443 b 481 539 633 513 572 539 b 342 457 392 539 342 504 l 342 443 l 69 443 l 69 471 b 481 739 69 621 229 739 b 906 443 721 739 906 615 l 906 -151 l 647 -151 l 647 -101 b 383 -169 596 -139 490 -169 m 467 363 b 210 119 460 232 340 125 b 467 -126 343 114 467 0 b 722 121 467 0 589 115 b 467 363 593 126 472 232 "},"b":{"ha":-50,"x_min":0,"x_max":0,"o":"m 328 1024 l 328 725 l 535 725 b 947 294 792 725 947 540 b 535 -151 947 47 806 -151 l 56 -151 l 56 1024 m 510 679 b 163 286 504 431 401 293 b 510 -108 401 279 504 150 b 857 285 514 150 617 278 b 510 679 617 292 514 431 "},"c":{"ha":-64,"x_min":0,"x_max":0,"o":"m 919 224 l 919 168 b 481 -169 919 -4 771 -169 b 42 210 218 -169 42 -21 l 42 365 b 481 744 42 596 218 744 b 919 407 757 744 919 579 l 919 365 l 647 365 l 647 393 b 481 531 647 463 583 531 b 314 351 378 531 314 451 l 314 224 b 481 44 314 124 378 44 b 647 182 583 44 647 113 l 647 224 "},"d":{"ha":-64,"x_min":0,"x_max":0,"o":"m 919 1024 l 919 -151 l 440 -151 b 28 294 169 -151 28 47 b 440 725 28 540 183 725 l 647 725 l 647 1024 m 465 -129 b 813 286 465 143 567 279 b 465 679 572 293 469 431 b 118 285 460 431 357 292 b 465 -129 364 278 465 143 "},"e":{"ha":-50,"x_min":0,"x_max":0,"o":"m 314 185 b 488 33 314 85 396 33 b 647 101 588 33 647 57 l 647 128 l 919 128 l 919 88 b 488 -171 919 -60 736 -171 b 42 199 233 -171 42 -18 l 42 365 b 488 744 42 596 233 744 b 933 365 742 744 933 596 l 933 190 l 314 190 m 501 679 b 206 465 493 525 338 468 b 501 239 342 461 501 393 b 785 467 501 393 650 463 b 501 679 654 469 508 525 "},"f":{"ha":-428,"x_min":0,"x_max":0,"o":"m 576 897 l 508 897 b 406 776 447 897 406 865 l 406 731 l 583 731 l 583 508 l 406 508 l 406 -151 l 133 -151 l 133 508 l 14 508 l 14 731 l 133 731 l 133 768 b 468 1119 133 957 218 1119 l 576 1119 "},"g":{"ha":-22,"x_min":0,"x_max":0,"o":"m 501 744 b 961 365 769 744 961 582 l 961 -165 b 508 -489 961 -337 763 -489 b 69 -193 243 -489 69 -354 l 69 -158 l 342 -158 l 342 -179 b 508 -275 342 -237 406 -275 b 689 -151 614 -275 689 -221 l 689 -97 b 501 -128 654 -121 554 -128 b 42 238 247 -128 42 35 l 42 365 b 501 744 42 582 233 744 m 501 689 b 154 308 496 431 393 314 b 501 -93 400 301 501 168 b 849 310 501 168 603 303 b 501 689 608 315 506 431 "},"h":{"ha":-107,"x_min":0,"x_max":0,"o":"m 486 715 b 869 406 731 758 869 661 l 869 -151 l 597 -151 l 597 378 b 444 501 597 489 544 525 l 328 474 l 328 -151 l 56 -151 l 56 1024 l 328 1024 l 328 688 l 486 715 "},"i":{"ha":-642,"x_min":0,"x_max":0,"o":"m 192 817 b 42 969 103 817 42 886 b 192 1125 42 1056 103 1125 b 342 969 279 1125 342 1056 b 192 817 342 886 279 817 m 56 725 l 328 725 l 328 -151 l 56 -151 "},"j":{"ha":-514,"x_min":0,"x_max":0,"o":"m 319 817 b 169 969 231 817 169 886 b 319 1125 169 1056 231 1125 b 469 969 407 1125 469 1056 b 319 817 469 886 407 817 m 14 -267 l 76 -267 b 183 -137 143 -267 183 -228 l 183 714 l 456 714 l 456 -118 b 135 -489 456 -318 388 -489 l 14 -489 "},"k":{"ha":-76,"x_min":0,"x_max":0,"o":"m 328 438 l 607 725 l 913 725 l 568 367 l 949 -151 l 643 -151 l 400 192 l 328 115 l 328 -151 l 56 -151 l 56 1024 l 328 1024 "},"l":{"ha":-562,"x_min":0,"x_max":0,"o":"m 69 1024 l 342 1024 l 342 113 b 407 53 342 64 368 53 l 463 53 l 463 -169 l 390 -169 b 69 118 165 -169 69 -54 "},"m":{"ha":394,"x_min":0,"x_max":0,"o":"m 447 710 b 763 651 583 743 693 722 b 944 714 822 679 889 703 b 1369 400 1201 763 1369 656 l 1369 -151 l 1097 -151 l 1097 372 b 938 496 1097 483 1038 521 l 843 471 b 849 400 846 449 849 425 l 849 -151 l 576 -151 l 576 372 b 424 497 576 483 522 526 l 328 469 l 328 -151 l 56 -151 l 56 725 l 328 725 l 328 679 "},"n":{"ha":-106,"x_min":0,"x_max":0,"o":"m 486 714 b 869 400 731 761 869 656 l 869 -151 l 597 -151 l 597 372 b 444 500 597 483 544 526 l 328 469 l 328 -151 l 56 -151 l 56 725 l 328 725 l 328 683 l 486 714 "},"o":{"ha":-36,"x_min":0,"x_max":0,"o":"m 494 744 b 947 365 776 744 947 568 l 947 208 b 494 -171 947 -8 776 -171 b 42 208 213 -171 42 -8 l 42 365 b 494 744 42 568 213 744 m 494 682 b 147 288 489 424 386 293 b 494 -107 386 281 489 140 b 842 289 499 142 601 282 b 494 682 601 294 499 424 "},"p":{"ha":-50,"x_min":0,"x_max":0,"o":"m 56 -490 l 56 725 l 535 725 b 947 279 806 725 947 526 b 535 -151 947 33 792 -151 l 328 -151 l 328 -490 m 510 681 b 163 288 504 422 401 293 b 510 -108 401 281 504 140 b 857 289 514 140 617 282 b 510 681 617 294 514 422 "},"q":{"ha":-50,"x_min":0,"x_max":0,"o":"m 647 -490 l 647 -151 l 440 -151 b 28 279 183 -151 28 33 b 440 725 28 526 169 725 l 919 725 l 919 -490 m 465 -108 b 813 288 469 140 572 281 b 465 681 572 293 469 422 b 118 289 460 422 357 294 b 465 -108 357 282 460 140 "},"r":{"ha":-411,"x_min":0,"x_max":0,"o":"m 328 572 b 546 725 358 651 429 725 l 600 725 l 600 489 l 564 489 b 328 250 446 489 351 390 l 328 -151 l 56 -151 l 56 725 l 328 725 "},"s":{"ha":-144,"x_min":0,"x_max":0,"o":"m 429 -175 b 25 146 160 -164 3 -28 l 275 146 b 436 36 261 81 357 39 b 583 106 528 33 583 67 b 503 167 583 133 546 151 l 258 247 b 57 482 133 289 57 369 b 444 744 57 657 235 744 b 803 469 656 744 831 624 l 567 469 b 443 546 571 525 504 546 b 329 501 381 546 329 528 b 399 442 329 476 351 461 l 675 343 b 857 107 783 304 865 236 b 429 -175 846 -60 674 -185 "},"t":{"ha":-433,"x_min":0,"x_max":0,"o":"m 578 -151 l 457 -151 b 136 219 204 -151 136 19 l 136 501 l 14 501 l 14 724 l 136 724 l 136 1025 l 408 1025 l 408 724 l 578 724 l 578 501 l 408 501 l 408 200 b 515 71 408 110 449 71 l 578 71 "},"u":{"ha":-106,"x_min":0,"x_max":0,"o":"m 433 -142 b 50 172 189 -189 50 -83 l 50 725 l 322 725 l 322 200 b 475 72 322 89 375 46 l 592 103 l 592 725 l 864 725 l 864 -151 l 592 -151 l 592 -111 "},"v":{"ha":-67,"x_min":0,"x_max":0,"o":"m 667 -151 l 292 -151 l 0 725 l 283 725 l 415 315 b 479 103 435 247 460 172 b 543 315 497 172 522 247 l 675 725 l 958 725 "},"w":{"ha":315,"x_min":0,"x_max":0,"o":"m 1133 -151 l 781 -151 l 688 274 b 669 361 682 299 675 329 b 653 274 664 329 658 299 l 560 -151 l 207 -151 l 14 725 l 288 725 l 367 314 b 411 63 382 229 397 147 l 544 725 l 796 725 l 929 63 b 974 314 943 147 958 229 l 1053 725 l 1326 725 "},"x":{"ha":-82,"x_min":0,"x_max":0,"o":"m 318 726 l 471 493 l 625 726 l 928 726 l 629 293 l 936 -151 l 635 -151 l 471 103 l 308 -151 l 7 -151 l 313 293 l 15 726 "},"y":{"ha":-50,"x_min":0,"x_max":0,"o":"m 342 -153 l 7 726 l 293 726 l 479 161 l 682 726 l 968 726 l 465 -490 l 201 -490 "},"z":{"ha":-253,"x_min":0,"x_max":0,"o":"m 14 29 l 403 504 l 49 504 l 49 726 l 738 726 l 738 546 l 326 39 b 758 126 482 46 643 68 l 758 -151 l 14 -151 "},"{":{"ha":-472,"x_min":0,"x_max":0,"o":"m 426 -333 b 193 -101 279 -333 192 -257 l 194 196 b 56 329 194 260 172 326 l 56 493 b 194 626 172 496 194 563 l 193 922 b 426 1156 192 1079 279 1156 l 546 1156 l 546 1003 l 514 1003 b 421 888 453 1003 421 965 l 421 628 b 276 410 421 490 369 433 b 421 193 369 389 421 331 l 421 -65 b 514 -181 421 -143 453 -181 l 546 -181 l 546 -333 "},"|":{"ha":-428,"x_min":0,"x_max":0,"o":"m 208 1222 l 389 1222 l 389 -489 l 208 -489 "},"}":{"ha":-472,"x_min":0,"x_max":0,"o":"m 7 -333 l 7 -181 l 39 -181 b 132 -65 100 -181 132 -143 l 132 193 b 275 410 132 331 183 389 b 132 628 183 433 132 490 l 132 888 b 39 1003 132 965 100 1003 l 7 1003 l 7 1156 l 126 1156 b 360 922 274 1156 361 1079 l 358 626 b 497 493 358 563 381 496 l 497 329 b 358 196 381 326 358 260 l 360 -101 b 126 -333 361 -257 274 -333 "},"~":{"ha":-139,"x_min":0,"x_max":0,"o":"m 604 285 b 508 307 571 282 538 293 l 379 375 b 286 407 349 390 315 407 b 157 311 236 407 193 363 l 42 393 b 288 629 94 532 199 626 b 414 597 338 631 378 615 l 522 543 b 603 513 549 529 579 513 b 728 603 649 513 692 554 l 844 522 b 604 285 782 383 703 292 "},"₩":{"ha":265,"x_min":0,"x_max":0,"o":"m 1213 575 l 1285 575 l 1285 479 l 1194 479 l 1078 -144 l 750 -144 l 656 460 b 653 479 654 465 653 472 l 638 479 b 635 460 636 472 635 465 l 539 -144 l 211 -144 l 96 479 l 7 479 l 7 575 l 78 575 l 4 972 l 258 972 l 324 575 l 463 575 l 526 972 l 764 972 l 826 575 l 965 575 l 1032 972 l 1286 972 m 394 128 b 433 390 406 215 419 303 l 447 479 l 339 479 l 354 392 b 394 128 369 303 382 217 m 935 392 l 949 479 l 842 479 l 857 390 b 894 128 871 303 883 215 "},"©":{"ha":72,"x_min":0,"x_max":0,"o":"m 549 -92 b 21 436 257 -92 21 144 b 549 963 21 726 257 963 b 1076 436 840 963 1076 726 b 549 -92 1076 144 840 -92 m 88 436 b 549 -26 88 190 296 -26 b 1010 436 803 -26 1010 190 b 549 896 1010 681 803 896 b 88 436 296 896 88 681 m 818 397 l 818 361 b 549 154 818 256 726 154 b 279 389 388 154 279 247 l 279 483 b 549 717 279 624 388 717 b 818 511 719 717 818 615 l 818 483 l 651 483 l 651 500 b 549 585 651 543 613 585 b 446 476 486 585 446 538 l 446 397 b 549 286 446 336 486 286 b 651 372 613 286 651 328 l 651 397 "},"　":{"ha":0,"x_min":0,"x_max":0,"o":""},"ㅤ":{"ha":0,"x_min":0,"x_max":0,"o":""},"、":{"ha":0,"x_min":0,"x_max":0,"o":"m 368 -175 b 46 157 286 -75 142 72 l 194 294 b 547 -21 306 228 486 57 "},"。":{"ha":0,"x_min":0,"x_max":0,"o":"m 268 306 b 500 74 397 306 500 201 b 268 -158 500 -54 397 -158 b 36 74 140 -158 36 -54 b 268 306 36 201 140 306 m 268 239 b 74 75 265 135 208 78 b 268 -90 208 72 265 18 b 464 74 271 18 329 71 b 268 239 329 78 271 135 "},"·":{"ha":-178,"x_min":0,"x_max":0,"o":"m 421 276 b 264 431 328 276 264 343 b 421 588 264 521 328 588 b 578 431 513 588 578 521 b 421 276 578 343 513 276 "},"・":{"ha":-178,"x_min":0,"x_max":0,"o":"m 421 276 b 578 431 513 276 578 343 b 421 588 578 521 513 588 b 264 431 328 588 264 521 b 421 276 264 343 328 276 "},"‥":{"ha":-92,"x_min":0,"x_max":0,"o":"m 233 303 b 76 457 140 303 76 369 b 233 614 76 547 140 614 b 390 457 325 614 390 547 b 233 303 390 369 325 303 m 700 303 b 543 457 607 303 543 369 b 700 614 543 547 607 614 b 857 457 792 614 857 547 b 700 303 857 369 792 303 "},"…":{"ha":375,"x_min":0,"x_max":0,"o":"m 233 303 b 76 457 140 303 76 369 b 233 614 76 547 140 614 b 390 457 325 614 390 547 b 233 303 390 369 325 303 m 700 303 b 543 457 607 303 543 369 b 700 614 543 547 607 614 b 857 457 792 614 857 547 b 700 303 857 369 792 303 m 1167 303 b 1010 457 1074 303 1010 369 b 1167 614 1010 547 1074 614 b 1324 457 1258 614 1324 547 b 1167 303 1324 369 1258 303 "},"⋯":{"ha":375,"x_min":0,"x_max":0,"o":"m 233 303 b 390 457 325 303 390 369 b 233 614 390 547 325 614 b 76 457 140 614 76 547 b 233 303 76 369 140 303 m 700 303 b 857 457 792 303 857 369 b 700 614 857 547 792 614 b 543 457 607 614 543 547 b 700 303 543 369 607 303 m 1167 303 b 1324 457 1258 303 1324 369 b 1167 614 1324 547 1258 614 b 1010 457 1074 614 1010 547 b 1167 303 1010 369 1074 303 "},"¨":{"ha":-140,"x_min":0,"x_max":0,"o":"m 267 831 b 149 949 197 831 149 883 b 267 1067 149 1015 197 1067 b 385 949 336 1067 385 1015 b 267 831 385 883 336 831 m 618 831 b 500 949 549 831 500 883 b 618 1067 500 1015 549 1067 b 736 949 688 1067 736 1015 b 618 831 736 883 688 831 "},"〃":{"ha":0,"x_min":0,"x_max":0,"o":"m 736 667 l 999 667 l 894 256 l 736 256 m 403 667 l 665 667 l 561 256 l 403 256 "},"­":{"ha":-179,"x_min":0,"x_max":0,"o":"m 56 553 l 790 553 l 790 331 l 56 331 "},"–":{"ha":-179,"x_min":0,"x_max":0,"o":"m 56 331 l 790 331 l 790 553 l 56 553 "},"—":{"ha":0,"x_min":0,"x_max":0,"o":"m 1236 521 l 1236 396 l 56 396 l 56 521 "},"―":{"ha":0,"x_min":0,"x_max":0,"o":"m 56 521 l 56 396 l 1236 396 l 1236 521 "},"∥":{"ha":128,"x_min":0,"x_max":0,"o":"m 208 1024 l 431 1024 l 431 -151 l 208 -151 m 722 1024 l 944 1024 l 944 -151 l 722 -151 "},"＼":{"ha":0,"x_min":0,"x_max":0,"o":"m 394 1156 l 576 1156 l 896 -333 l 714 -333 "},"∼":{"ha":0,"x_min":0,"x_max":0,"o":"m 807 285 b 711 307 774 282 740 293 l 582 375 b 489 407 551 390 518 407 b 360 311 439 407 396 363 l 244 393 b 490 629 297 532 401 626 b 617 597 540 631 581 615 l 725 543 b 806 513 751 529 782 513 b 931 603 851 513 894 554 l 1047 522 b 807 285 985 383 906 292 "},"〜":{"ha":0,"x_min":0,"x_max":0,"o":"m 807 285 b 1047 522 906 292 985 383 l 931 603 b 806 513 894 554 851 513 b 725 543 782 513 751 529 l 617 597 b 490 629 581 615 540 631 b 244 393 401 626 297 532 l 360 311 b 489 407 396 363 439 407 b 582 375 518 407 551 390 l 711 307 b 807 285 740 293 774 282 "},"～":{"ha":0,"x_min":0,"x_max":0,"o":"m 807 285 b 711 307 774 282 740 293 l 582 375 b 489 407 551 390 518 407 b 360 311 439 407 396 363 l 244 393 b 490 629 297 532 401 626 b 617 597 540 631 581 615 l 725 543 b 806 513 751 529 782 513 b 931 603 851 513 894 554 l 1047 522 b 807 285 985 383 906 292 "},"‘":{"ha":-537,"x_min":0,"x_max":0,"o":"m 97 778 b 418 1125 83 951 228 1111 l 418 1021 b 300 913 346 1000 313 968 b 411 771 368 896 411 843 b 254 614 411 681 347 614 b 97 778 163 614 104 688 "},"’":{"ha":-537,"x_min":0,"x_max":0,"o":"m 390 947 b 69 600 404 774 260 614 l 69 704 b 188 813 142 725 175 757 b 76 954 119 829 76 882 b 233 1111 76 1044 140 1111 b 390 947 325 1111 383 1038 "},"“":{"ha":-149,"x_min":0,"x_max":0,"o":"m 517 778 b 821 1125 513 957 640 1111 l 821 1021 b 710 913 753 1000 721 968 b 815 771 774 896 815 843 b 665 614 815 681 754 614 b 517 778 579 614 519 688 m 324 614 b 175 778 236 614 178 688 b 479 1125 171 954 297 1111 l 479 1021 b 367 913 411 1000 378 968 b 472 771 431 896 472 843 b 324 614 472 681 413 614 "},"”":{"ha":-149,"x_min":0,"x_max":0,"o":"m 360 947 b 56 600 364 768 236 614 l 56 704 b 167 813 124 725 156 757 b 61 954 103 829 61 882 b 211 1111 61 1044 122 1111 b 360 947 297 1111 357 1038 m 553 1111 b 701 947 640 1111 699 1038 b 397 600 706 771 579 614 l 397 704 b 510 813 465 725 499 757 b 404 954 446 829 404 882 b 553 1111 404 1044 464 1111 "},"〔":{"ha":0,"x_min":0,"x_max":0,"o":"m 833 1017 l 1222 1156 l 1222 933 l 1042 864 l 1042 14 l 1222 -56 l 1222 -278 l 833 -139 "},"〕":{"ha":0,"x_min":0,"x_max":0,"o":"m 69 -278 l 69 -56 l 250 14 l 250 864 l 69 933 l 69 1156 l 458 1017 l 458 -139 "},"〈":{"ha":0,"x_min":0,"x_max":0,"o":"m 1292 -151 l 1111 -151 l 854 435 l 1111 1021 l 1292 1021 l 1049 435 "},"〉":{"ha":0,"x_min":0,"x_max":0,"o":"m 0 1021 l 181 1021 l 438 435 l 181 -151 l 0 -151 l 243 435 "},"《":{"ha":0,"x_min":0,"x_max":0,"o":"m 1292 -151 l 1111 -151 l 854 435 l 1111 1021 l 1292 1021 l 1049 435 m 1014 -151 l 833 -151 l 576 435 l 833 1021 l 1014 1021 l 771 435 "},"》":{"ha":0,"x_min":0,"x_max":0,"o":"m 0 1021 l 181 1021 l 438 435 l 181 -151 l 0 -151 l 243 435 m 278 1021 l 458 1021 l 715 435 l 458 -151 l 278 -151 l 521 435 "},"「":{"ha":0,"x_min":0,"x_max":0,"o":"m 819 1093 l 1292 1093 l 1292 913 l 1018 913 l 1018 447 l 819 447 "},"」":{"ha":0,"x_min":0,"x_max":0,"o":"m 472 -221 l 0 -221 l 0 -40 l 274 -40 l 274 425 l 472 425 "},"『":{"ha":0,"x_min":0,"x_max":0,"o":"m 1069 844 l 1069 433 l 785 433 l 785 1108 l 1306 1108 l 1306 844 m 854 1039 l 854 503 l 1000 503 l 1000 914 l 1236 914 l 1236 1039 "},"』":{"ha":0,"x_min":0,"x_max":0,"o":"m 222 31 l 222 440 l 507 440 l 507 -233 l -14 -233 l -14 31 m 438 -164 l 438 371 l 292 371 l 292 -39 l 56 -39 l 56 -164 "},"【":{"ha":0,"x_min":0,"x_max":0,"o":"m 1292 1100 l 1292 1093 b 1017 411 1140 963 1017 699 b 1292 -271 1017 124 1140 -140 l 1292 -278 l 850 -278 l 850 1100 "},"】":{"ha":0,"x_min":0,"x_max":0,"o":"m 3 -278 l 3 -271 b 278 411 154 -140 278 124 b 3 1093 278 699 154 963 l 3 1100 l 444 1100 l 444 -278 "},"±":{"ha":-147,"x_min":0,"x_max":0,"o":"m 557 943 l 557 697 l 808 697 l 808 506 l 557 506 l 557 260 l 321 260 l 321 506 l 69 506 l 69 697 l 321 697 l 321 943 m 808 190 l 808 -1 l 69 -1 l 69 190 "},"×":{"ha":-78,"x_min":0,"x_max":0,"o":"m 886 715 l 624 456 l 886 196 l 733 51 l 474 308 l 214 51 l 61 196 l 324 456 l 61 715 l 214 860 l 474 603 l 733 860 "},"÷":{"ha":-92,"x_min":0,"x_max":0,"o":"m 318 733 b 469 885 318 824 379 885 b 621 733 560 885 621 824 b 469 582 621 643 560 582 b 318 733 379 582 318 643 m 864 551 l 864 346 l 69 346 l 69 551 m 318 164 b 469 315 318 254 379 315 b 621 164 560 315 621 254 b 469 13 621 74 560 13 b 318 164 379 13 318 74 "},"≠":{"ha":0,"x_min":0,"x_max":0,"o":"m 769 529 l 726 390 l 1076 390 l 1076 210 l 657 210 l 572 -25 l 388 32 l 453 210 l 215 210 l 215 390 l 521 390 l 564 529 l 215 529 l 215 710 l 635 710 l 719 944 l 904 888 l 839 710 l 1076 710 l 1076 529 "},"≤":{"ha":0,"x_min":0,"x_max":0,"o":"m 467 590 l 1060 354 l 1060 171 l 232 532 l 232 661 l 1060 1008 l 1060 825 m 1101 50 l 1101 -103 l 190 -103 l 190 50 "},"≥":{"ha":0,"x_min":0,"x_max":0,"o":"m 232 1008 l 1060 661 l 1060 532 l 232 171 l 232 354 l 825 590 l 232 825 m 1101 -103 l 190 -103 l 190 50 l 1101 50 "},"∞":{"ha":0,"x_min":0,"x_max":0,"o":"m 647 626 b 956 815 731 733 815 815 b 1217 488 1079 815 1217 706 b 956 161 1217 271 1079 161 b 647 350 815 161 731 243 b 338 161 565 243 479 161 b 76 488 214 161 76 271 b 338 815 76 706 214 815 b 647 626 479 815 565 733 m 251 488 b 363 343 251 403 297 343 b 550 488 464 343 492 408 b 363 632 492 567 464 632 b 251 488 297 632 251 574 m 744 488 b 932 343 804 408 829 343 b 1042 488 996 343 1042 403 b 932 632 1042 574 996 632 b 744 488 829 632 804 567 "},"∴":{"ha":0,"x_min":0,"x_max":0,"o":"m 646 642 b 485 800 550 642 485 710 b 646 961 485 893 550 961 b 807 800 740 961 807 893 b 646 642 807 710 740 642 m 289 0 b 128 158 194 0 128 68 b 289 319 128 251 194 319 b 450 158 383 319 450 251 b 289 0 450 68 383 0 m 1003 0 b 842 158 907 0 842 68 b 1003 319 842 251 907 319 b 1164 158 1096 319 1164 251 b 1003 0 1164 68 1096 0 "},"°":{"ha":-437,"x_min":0,"x_max":0,"o":"m 293 624 b 58 857 161 624 58 722 b 293 1090 58 992 161 1090 b 528 857 425 1090 528 992 b 293 624 528 722 425 624 m 293 1057 b 115 854 290 925 238 857 b 293 653 238 851 290 779 b 471 856 296 781 347 851 b 293 1057 347 858 296 925 "},"′":{"ha":-537,"x_min":0,"x_max":0,"o":"m 111 1111 l 394 1111 l 293 700 l 111 700 "},"″":{"ha":-149,"x_min":0,"x_max":0,"o":"m 417 1111 l 679 1111 l 589 700 l 415 700 m 111 1111 l 374 1111 l 283 700 l 110 700 "},"℃":{"ha":0,"x_min":0,"x_max":0,"o":"m 232 629 b 21 863 114 629 21 728 b 232 1096 21 997 114 1096 b 443 863 351 1096 443 997 b 232 629 443 728 351 629 m 232 747 b 328 863 289 747 328 794 b 232 978 328 931 289 978 b 138 863 176 978 138 931 b 232 747 138 794 176 747 m 1276 272 l 1276 210 b 860 -153 1276 -14 1108 -153 b 444 235 613 -153 444 -1 l 444 549 b 860 936 444 785 613 936 b 1276 574 1108 936 1276 797 l 1276 524 l 1049 524 l 1049 561 b 860 736 1049 678 979 736 b 672 536 742 736 672 665 l 672 247 b 860 47 672 118 742 47 b 1049 222 979 47 1049 106 l 1049 272 "},"Å":{"ha":150,"x_min":0,"x_max":0,"o":"m 785 68 l 390 68 l 311 -151 l 14 -151 l 431 974 b 358 1128 386 1011 358 1065 b 593 1338 358 1249 461 1338 b 828 1128 725 1338 828 1249 b 747 967 828 1061 796 1004 l 1161 -151 l 864 -151 m 488 1128 b 583 1024 488 1069 526 1028 l 603 1024 b 700 1128 661 1028 700 1069 b 593 1232 700 1189 657 1232 b 488 1128 531 1232 488 1189 m 842 515 b 588 897 650 515 590 692 b 333 515 585 692 524 515 b 588 131 524 515 585 325 b 842 515 590 325 650 515 "},"¢":{"ha":0,"x_min":0,"x_max":0,"o":"m 529 -490 l 553 -162 b 207 210 342 -132 207 7 l 207 365 b 619 744 207 588 371 735 l 640 1024 l 774 1024 l 753 736 b 1085 407 964 700 1085 556 l 1085 365 l 813 365 l 813 393 b 736 510 813 439 785 485 l 703 51 b 813 182 772 71 813 126 l 813 224 l 1085 224 l 1085 168 b 686 -168 1085 4 950 -154 l 663 -490 m 604 526 b 479 351 526 508 479 438 l 479 224 b 569 61 479 151 513 90 "},"￠":{"ha":0,"x_min":0,"x_max":0,"o":"m 663 -490 l 686 -168 b 1085 168 950 -154 1085 4 l 1085 224 l 813 224 l 813 182 b 703 51 813 126 772 71 l 736 510 b 813 393 785 485 813 439 l 813 365 l 1085 365 l 1085 407 b 753 736 1085 556 964 700 l 774 1024 l 640 1024 l 619 744 b 207 365 371 735 207 588 l 207 210 b 553 -162 207 7 342 -132 l 529 -490 m 569 61 b 479 224 513 90 479 151 l 479 351 b 604 526 479 438 526 508 "},"£":{"ha":0,"x_min":0,"x_max":0,"o":"m 531 61 l 1085 61 l 1085 -144 l 186 -144 l 186 19 b 382 290 293 67 382 168 b 378 356 382 307 381 336 l 194 356 l 194 468 l 325 468 b 292 635 308 519 292 589 b 725 989 292 856 476 989 b 1085 832 879 989 997 939 l 943 690 b 753 785 889 754 825 785 b 549 619 631 785 549 726 b 571 475 549 576 558 521 l 906 475 l 906 356 l 611 356 b 614 289 613 336 614 306 b 531 68 614 211 588 135 "},"￡":{"ha":0,"x_min":0,"x_max":0,"o":"m 531 68 b 614 289 588 135 614 211 b 611 356 614 306 613 336 l 906 356 l 906 475 l 571 475 b 549 619 558 521 549 576 b 753 785 549 726 631 785 b 943 690 825 785 889 754 l 1085 832 b 725 989 997 939 879 989 b 292 635 476 989 292 856 b 325 468 292 589 308 519 l 194 468 l 194 356 l 378 356 b 382 290 381 336 382 307 b 186 19 382 168 293 67 l 186 -144 l 1085 -144 l 1085 61 l 531 61 "},"¥":{"ha":0,"x_min":0,"x_max":0,"o":"m 235 525 l 376 525 l 118 972 l 417 972 l 646 543 l 875 972 l 1174 972 l 914 525 l 1056 525 l 1056 406 l 844 406 l 796 322 l 1056 322 l 1056 203 l 778 203 l 778 -144 l 514 -144 l 514 203 l 235 203 l 235 322 l 494 322 l 446 406 l 235 406 "},"￥":{"ha":0,"x_min":0,"x_max":0,"o":"m 235 406 l 446 406 l 494 322 l 235 322 l 235 203 l 514 203 l 514 -144 l 778 -144 l 778 203 l 1056 203 l 1056 322 l 796 322 l 844 406 l 1056 406 l 1056 525 l 914 525 l 1174 972 l 875 972 l 646 543 l 417 972 l 118 972 l 376 525 l 235 525 "},"♂":{"ha":0,"x_min":0,"x_max":0,"o":"m 813 242 b 451 -107 813 47 658 -107 b 89 242 243 -107 89 47 b 451 589 89 435 243 589 b 639 536 514 589 588 568 l 869 779 l 651 779 l 651 940 l 1150 940 l 1150 456 l 989 456 l 989 671 l 751 422 b 813 242 783 369 813 308 m 263 242 b 451 67 263 146 342 67 b 639 242 561 67 639 146 b 451 415 639 338 561 415 b 263 242 342 415 263 338 "},"♀":{"ha":0,"x_min":0,"x_max":0,"o":"m 644 1047 b 1003 714 861 1047 1003 899 b 725 394 1003 558 903 417 l 725 269 l 1051 269 l 1051 103 l 725 103 l 725 -175 l 567 -175 l 567 103 l 240 103 l 240 269 l 567 269 l 567 394 b 288 714 389 417 288 558 b 644 1047 288 899 431 1047 m 461 714 b 644 533 461 622 518 533 b 831 714 772 533 831 622 b 646 894 831 806 774 894 b 461 714 519 894 461 806 "},"∠":{"ha":0,"x_min":0,"x_max":0,"o":"m 475 139 l 1189 139 l 1189 -56 l 81 -56 l 81 -22 l 986 1028 l 1132 882 l 475 143 "},"⊥":{"ha":0,"x_min":0,"x_max":0,"o":"m 1231 176 l 1231 -32 l 61 -32 l 61 176 l 521 176 l 521 896 l 771 896 l 771 176 "},"⌒":{"ha":0,"x_min":0,"x_max":0,"o":"m 124 983 b 646 1117 218 1054 363 1117 b 1168 983 929 1117 1074 1054 l 1168 781 b 646 928 1028 881 894 928 b 124 781 397 928 264 881 l 124 983 "},"∂":{"ha":0,"x_min":0,"x_max":0,"o":"m 919 590 b 676 797 907 744 822 792 b 350 715 578 800 400 756 l 350 921 b 693 1006 447 978 543 1004 b 1169 597 924 1008 1143 889 b 650 -129 1193 347 1083 -94 b 193 192 379 -151 213 -10 b 590 608 171 428 379 590 b 918 497 721 619 821 586 l 921 499 b 919 590 925 535 922 565 m 433 225 b 635 90 444 111 532 82 b 868 289 786 104 840 172 b 629 408 806 407 718 417 b 433 225 525 400 421 358 "},"∇":{"ha":0,"x_min":0,"x_max":0,"o":"m 81 799 l 81 949 l 1211 949 l 1211 799 l 801 -85 l 490 -85 m 929 740 l 356 740 l 636 103 l 643 103 "},"≡":{"ha":0,"x_min":0,"x_max":0,"o":"m 1076 842 l 1076 647 l 215 647 l 215 842 m 1076 564 l 1076 369 l 215 369 l 215 564 m 1076 286 l 1076 92 l 215 92 l 215 286 "},"≒":{"ha":0,"x_min":0,"x_max":0,"o":"m 457 708 b 300 863 364 708 300 775 b 457 1019 300 953 364 1019 b 614 863 549 1019 614 953 b 457 708 614 775 549 708 m 1076 661 l 1076 508 l 215 508 l 215 661 m 1076 411 l 1076 258 l 215 258 l 215 411 m 831 -100 b 674 54 738 -100 674 -33 b 831 211 674 144 738 211 b 988 54 922 211 988 144 b 831 -100 988 -33 922 -100 "},"§":{"ha":0,"x_min":0,"x_max":0,"o":"m 967 806 b 690 876 900 843 785 876 b 560 818 599 876 560 861 b 714 719 560 774 603 754 b 1017 438 886 667 1017 603 b 907 228 1017 353 972 274 b 976 68 936 206 976 140 b 622 -176 976 -126 772 -176 b 296 -108 528 -176 382 -161 l 296 74 b 617 -14 372 19 518 -14 b 747 44 699 -14 747 -6 b 589 142 747 92 704 106 b 274 446 422 194 274 286 b 403 642 274 517 317 599 b 339 796 371 669 339 735 b 690 1039 339 958 492 1039 b 967 993 781 1039 892 1026 m 547 572 b 465 478 517 557 465 514 b 599 347 465 431 507 379 b 756 294 671 321 721 304 b 811 414 782 310 811 382 b 547 572 811 492 638 539 "},"※":{"ha":0,"x_min":0,"x_max":0,"o":"m 644 692 b 478 857 546 692 478 763 b 644 1024 478 953 546 1024 b 811 857 742 1024 811 953 b 644 692 811 763 742 692 m 643 478 l 1131 965 l 1174 924 l 686 435 l 1174 -54 l 1131 -97 l 643 392 l 153 -99 l 110 -56 l 600 435 l 111 924 l 154 965 m 224 268 b 57 432 125 268 57 339 b 224 599 57 528 125 599 b 392 432 322 599 392 528 b 224 268 392 339 322 268 m 1068 268 b 900 432 968 268 900 339 b 1068 599 900 528 968 599 b 1235 432 1165 599 1235 528 b 1068 268 1235 339 1165 268 m 644 -151 b 478 13 546 -151 478 -81 b 644 181 478 110 546 181 b 811 13 742 181 811 110 b 644 -151 811 -81 742 -151 "},"☆":{"ha":0,"x_min":0,"x_max":0,"o":"m 639 1072 l 653 1072 l 803 597 l 1286 597 l 1290 583 l 897 299 l 1054 -175 l 1043 -183 l 646 114 l 249 -183 l 238 -175 l 394 299 l 1 583 l 6 597 l 489 597 m 165 542 l 165 539 l 474 325 l 342 -37 l 344 -40 l 646 197 l 947 -40 l 950 -37 l 818 325 l 1126 539 l 1126 542 l 756 531 l 647 899 l 644 899 l 536 531 "},"★":{"ha":0,"x_min":0,"x_max":0,"o":"m 1288 607 l 1288 597 l 897 304 l 1051 -178 l 1044 -182 l 646 117 l 247 -182 l 240 -178 l 394 304 l 4 597 l 4 607 l 489 607 l 642 1086 l 650 1086 l 803 607 "},"○":{"ha":0,"x_min":0,"x_max":0,"o":"m 646 -189 b 21 436 300 -189 21 90 b 646 1061 21 782 300 1061 b 1271 436 992 1061 1271 782 b 646 -189 1271 90 992 -189 m 88 436 b 646 -122 88 128 338 -122 b 1204 436 954 -122 1204 128 b 646 994 1204 744 954 994 b 88 436 338 994 88 744 "},"●":{"ha":0,"x_min":0,"x_max":0,"o":"m 646 -189 b 21 436 300 -189 21 90 b 646 1061 21 782 300 1061 b 1271 436 992 1061 1271 782 b 646 -189 1271 90 992 -189 "},"◎":{"ha":0,"x_min":0,"x_max":0,"o":"m 21 436 b 646 1061 21 782 300 1061 b 1271 436 992 1061 1271 782 b 646 -189 1271 90 992 -189 b 21 436 300 -189 21 90 m 1204 436 b 646 994 1204 744 954 994 b 88 436 338 994 88 744 b 646 -122 88 128 338 -122 b 1204 436 954 -122 1204 128 m 208 436 b 646 875 208 679 404 875 b 1083 436 888 875 1083 679 b 646 -1 1083 194 888 -1 b 208 436 404 -1 208 194 m 1022 436 b 646 814 1022 644 854 814 b 269 436 438 814 269 644 b 646 60 269 229 438 60 b 1022 436 854 60 1022 229 "},"◇":{"ha":0,"x_min":0,"x_max":0,"o":"m 1324 436 l 646 -242 l -32 436 l 646 1114 m 63 436 l 646 -147 l 1229 436 l 646 1019 "},"◆":{"ha":0,"x_min":0,"x_max":0,"o":"m 1324 436 l 646 -242 l -32 436 l 646 1114 "},"□":{"ha":0,"x_min":0,"x_max":0,"o":"m 1233 1024 l 1233 -151 l 58 -151 l 58 1024 m 129 -81 l 1163 -81 l 1163 953 l 129 953 "},"■":{"ha":0,"x_min":0,"x_max":0,"o":"m 1235 1024 l 1235 -151 l 57 -151 l 57 1024 "},"△":{"ha":0,"x_min":0,"x_max":0,"o":"m 1324 -151 l -32 -151 l 646 1024 m 88 -82 l 1204 -82 l 646 885 "},"▲":{"ha":0,"x_min":0,"x_max":0,"o":"m 1324 -151 l -32 -151 l 646 1024 "},"▽":{"ha":0,"x_min":0,"x_max":0,"o":"m -32 1024 l 1324 1024 l 646 -151 m 1204 954 l 88 954 l 646 -12 "},"▼":{"ha":0,"x_min":0,"x_max":0,"o":"m -32 1024 l 1324 1024 l 646 -151 "},"→":{"ha":0,"x_min":0,"x_max":0,"o":"m 63 542 l 910 542 l 764 657 l 871 793 l 1236 458 l 871 124 l 764 260 l 910 375 l 63 375 "},"←":{"ha":0,"x_min":0,"x_max":0,"o":"m 382 375 l 528 260 l 421 124 l 56 458 l 421 793 l 528 657 l 382 542 l 1229 542 l 1229 375 "},"↑":{"ha":0,"x_min":0,"x_max":0,"o":"m 563 718 l 447 572 l 311 679 l 646 1044 l 981 679 l 844 572 l 729 718 l 729 -129 l 563 -129 "},"↓":{"ha":0,"x_min":0,"x_max":0,"o":"m 729 169 l 844 315 l 981 208 l 646 -157 l 311 208 l 447 315 l 563 169 l 563 1017 l 729 1017 "},"↔":{"ha":0,"x_min":0,"x_max":0,"o":"m 379 793 l 486 657 l 340 542 l 951 542 l 806 657 l 913 793 l 1278 458 l 913 124 l 806 260 l 951 375 l 340 375 l 486 260 l 379 124 l 14 458 "},"〓":{"ha":0,"x_min":0,"x_max":0,"o":"m 1146 569 l 146 569 l 146 931 l 1146 931 m 1146 -14 l 146 -14 l 146 347 l 1146 347 "},"«":{"ha":0,"x_min":0,"x_max":0,"o":"m 328 451 l 713 76 l 713 -107 l 163 421 l 163 481 l 713 1008 l 713 825 m 744 451 l 1129 76 l 1129 -107 l 579 421 l 579 481 l 1129 1008 l 1129 825 "},"≪":{"ha":0,"x_min":0,"x_max":0,"o":"m 713 825 l 713 1008 l 163 481 l 163 421 l 713 -107 l 713 76 l 328 451 m 1129 825 l 1129 1008 l 579 481 l 579 421 l 1129 -107 l 1129 76 l 744 451 "},"»":{"ha":0,"x_min":0,"x_max":0,"o":"m 579 1008 l 1129 481 l 1129 421 l 579 -107 l 579 76 l 964 451 l 579 825 m 163 1008 l 713 481 l 713 421 l 163 -107 l 163 76 l 547 451 l 163 825 "},"≫":{"ha":0,"x_min":0,"x_max":0,"o":"m 579 825 l 964 451 l 579 76 l 579 -107 l 1129 421 l 1129 481 l 579 1008 m 163 825 l 547 451 l 163 76 l 163 -107 l 713 421 l 713 481 l 163 1008 "},"√":{"ha":0,"x_min":0,"x_max":0,"o":"m 1340 1157 l 1340 1088 l 764 1088 l 344 -146 l 300 -146 l 89 288 l 39 224 l 0 254 l 222 507 l 382 171 l 714 1157 "},"∽":{"ha":0,"x_min":0,"x_max":0,"o":"m 572 519 b 931 758 657 647 732 776 b 1211 460 1097 743 1211 658 b 925 161 1211 260 1044 161 b 813 186 883 161 846 169 l 813 354 b 900 342 831 346 874 342 b 1007 460 967 342 1007 381 b 906 592 1007 538 965 592 b 722 413 829 592 788 510 b 364 161 636 285 549 143 b 83 460 197 178 83 261 b 369 758 83 660 250 758 b 481 733 411 758 449 750 l 481 565 b 394 578 463 574 419 578 b 288 460 328 578 288 539 b 389 328 288 382 329 328 b 572 519 465 328 507 422 "},"∝":{"ha":0,"x_min":0,"x_max":0,"o":"m 818 492 b 1035 346 868 397 925 346 b 1189 360 1085 346 1168 350 l 1189 189 b 1058 161 1150 171 1107 161 b 713 351 908 161 803 244 b 393 161 624 244 544 161 b 99 492 260 161 99 272 b 393 821 99 711 260 821 b 713 631 544 821 624 739 b 1058 821 803 739 908 821 b 1189 793 1107 821 1150 813 l 1189 624 b 1035 638 1168 632 1085 638 b 818 492 925 638 868 571 m 285 492 b 417 346 285 406 347 346 b 608 492 526 346 544 411 b 417 638 544 571 526 638 b 285 492 347 638 285 578 "},"∵":{"ha":0,"x_min":0,"x_max":0,"o":"m 289 961 b 450 803 383 961 450 893 b 289 642 450 710 383 642 b 128 803 194 642 128 710 b 289 961 128 893 194 961 m 1003 961 b 1164 803 1096 961 1164 893 b 1003 642 1164 710 1096 642 b 842 803 907 642 842 710 b 1003 961 842 893 907 961 m 646 319 b 807 161 740 319 807 251 b 646 0 807 68 740 0 b 485 161 550 0 485 68 b 646 319 485 251 550 319 "},"∫":{"ha":0,"x_min":0,"x_max":0,"o":"m 585 694 b 946 1063 631 986 792 1063 b 1058 1051 983 1063 1022 1058 l 1058 858 b 968 865 1032 864 990 865 b 839 651 883 865 864 810 l 718 -122 b 358 -490 672 -414 513 -490 b 246 -479 319 -490 281 -486 l 246 -286 b 335 -293 272 -292 314 -293 b 464 -79 419 -293 439 -237 "},"∬":{"ha":0,"x_min":0,"x_max":0,"o":"m 335 694 b 696 1063 360 988 542 1063 b 808 1051 733 1063 772 1058 l 808 858 b 718 865 782 864 740 865 b 589 651 633 865 603 810 l 524 -122 b 164 -490 499 -415 318 -490 b 51 -479 125 -490 86 -486 l 51 -286 b 140 -293 78 -292 119 -293 b 269 -79 225 -293 256 -237 m 779 694 b 1140 1063 804 988 986 1063 b 1253 1051 1178 1063 1217 1058 l 1253 858 b 1163 865 1226 864 1185 865 b 1033 651 1078 865 1047 810 l 968 -122 b 608 -490 943 -415 763 -490 b 496 -479 569 -490 531 -486 l 496 -286 b 585 -293 522 -292 564 -293 b 714 -79 669 -293 700 -237 "},"∈":{"ha":0,"x_min":0,"x_max":0,"o":"m 599 711 b 386 557 436 711 381 660 l 1140 557 l 1140 363 l 386 363 b 599 208 381 260 436 208 l 1140 208 l 1140 0 l 599 0 b 138 460 272 0 138 164 b 599 919 138 756 272 919 l 1140 919 l 1140 711 "},"∋":{"ha":0,"x_min":0,"x_max":0,"o":"m 151 919 l 693 919 b 1154 460 1019 919 1154 756 b 693 0 1154 164 1019 0 l 151 0 l 151 208 l 693 208 b 906 363 856 208 911 260 l 151 363 l 151 557 l 906 557 b 693 711 911 660 856 711 l 151 711 "},"⊆":{"ha":0,"x_min":0,"x_max":0,"o":"m 619 236 b 144 619 307 236 144 379 b 619 1003 144 860 307 1003 l 1147 1003 l 1147 836 l 619 836 b 339 619 440 836 339 739 b 619 403 339 500 440 403 l 1147 403 l 1147 236 l 619 236 m 1143 64 l 1143 -103 l 232 -103 l 232 64 "},"⊇":{"ha":0,"x_min":0,"x_max":0,"o":"m 144 236 l 144 403 l 672 403 b 953 619 851 403 953 500 b 672 836 953 739 851 836 l 144 836 l 144 1003 l 672 1003 b 1147 619 985 1003 1147 860 b 672 236 1147 379 985 236 m 1060 -103 l 149 -103 l 149 64 l 1060 64 "},"⊂":{"ha":0,"x_min":0,"x_max":0,"o":"m 647 14 b 144 460 307 14 144 178 b 647 906 144 742 307 906 l 1147 906 l 1147 711 l 647 711 b 367 460 454 711 367 621 b 647 208 367 299 454 208 l 1147 208 l 1147 14 l 647 14 "},"⊃":{"ha":0,"x_min":0,"x_max":0,"o":"m 144 14 l 144 208 l 644 208 b 925 460 838 208 925 299 b 644 711 925 621 838 711 l 144 711 l 144 906 l 644 906 b 1147 460 985 906 1147 742 b 644 14 1147 178 985 14 "},"∪":{"ha":0,"x_min":0,"x_max":0,"o":"m 200 1031 l 422 1031 l 422 369 b 646 117 422 204 485 117 b 869 369 807 117 869 204 l 869 1031 l 1092 1031 l 1092 369 b 646 -92 1092 113 900 -92 b 200 369 392 -92 200 113 "},"∩":{"ha":0,"x_min":0,"x_max":0,"o":"m 200 569 b 646 1031 200 826 392 1031 b 1092 569 900 1031 1092 826 l 1092 -92 l 869 -92 l 869 569 b 646 822 869 735 807 822 b 422 569 485 822 422 735 l 422 -92 l 200 -92 l 200 569 "},"∧":{"ha":0,"x_min":0,"x_max":0,"o":"m 643 739 l 306 -92 l 47 -92 l 532 1022 l 760 1022 l 1244 -92 l 986 -92 l 649 739 "},"∨":{"ha":0,"x_min":0,"x_max":0,"o":"m 986 1022 l 1244 1022 l 760 -92 l 532 -92 l 47 1022 l 306 1022 l 643 192 l 649 192 "},"¬":{"ha":0,"x_min":0,"x_max":0,"o":"m 1149 764 l 1149 278 l 950 278 l 950 575 l 132 575 l 132 764 "},"￢":{"ha":0,"x_min":0,"x_max":0,"o":"m 132 764 l 132 575 l 950 575 l 950 278 l 1149 278 l 1149 764 "},"⇒":{"ha":0,"x_min":0,"x_max":0,"o":"m 1033 464 l 904 569 l 90 569 l 90 731 l 763 731 l 643 849 l 772 940 l 1278 464 l 772 -11 l 643 81 l 763 199 l 90 199 l 90 360 l 904 360 "},"⇔":{"ha":0,"x_min":0,"x_max":0,"o":"m -14 464 l 403 940 l 508 849 l 411 731 l 881 731 l 783 849 l 889 940 l 1306 464 l 889 -11 l 783 81 l 881 199 l 411 199 l 508 81 l 403 -11 m 294 360 l 997 360 l 1104 464 l 997 569 l 294 569 l 188 464 "},"∀":{"ha":0,"x_min":0,"x_max":0,"o":"m 47 1022 l 278 1022 l 389 749 l 883 749 l 986 1022 l 1244 1022 l 760 -92 l 532 -92 m 821 582 l 457 582 l 643 122 l 649 122 "},"∃":{"ha":0,"x_min":0,"x_max":0,"o":"m 1136 975 l 1136 -56 l 181 -56 l 181 153 l 886 153 l 886 364 l 181 364 l 181 558 l 886 558 l 886 767 l 181 767 l 181 975 "},"´":{"ha":-357,"x_min":0,"x_max":0,"o":"m 292 696 l 111 836 l 360 1165 l 557 1015 "},"˜":{"ha":-139,"x_min":0,"x_max":0,"o":"m 604 285 b 508 307 571 282 538 293 l 379 375 b 286 407 349 390 315 407 b 157 311 236 407 193 363 l 42 393 b 288 629 94 532 199 626 b 414 597 338 631 378 615 l 522 543 b 603 513 549 529 579 513 b 728 603 649 513 692 554 l 844 522 b 604 285 782 383 703 292 "},"ˇ":{"ha":0,"x_min":0,"x_max":0,"o":"m 1079 1110 l 647 697 l 214 1111 l 471 1111 l 646 960 l 811 1110 "},"˘":{"ha":132,"x_min":0,"x_max":0,"o":"m 607 826 b 288 1113 378 826 293 969 l 517 1113 b 607 1003 521 1043 547 1003 b 694 1113 665 1003 692 1043 l 925 1113 b 607 826 918 969 835 826 "},"˝":{"ha":0,"x_min":0,"x_max":0,"o":"m 668 1111 l 931 1111 l 840 700 l 667 700 m 363 1111 l 625 1111 l 535 700 l 361 700 "},"˚":{"ha":0,"x_min":0,"x_max":0,"o":"m 646 629 b 411 863 514 629 411 728 b 646 1096 411 997 514 1096 b 881 863 778 1096 881 997 b 646 629 881 728 778 629 m 646 747 b 753 863 710 747 753 794 b 646 978 753 931 710 978 b 540 863 583 978 540 931 b 646 747 540 794 583 747 "},"˙":{"ha":0,"x_min":0,"x_max":0,"o":"m 647 715 b 497 863 563 715 497 785 b 646 1017 497 946 556 1017 b 792 863 738 1017 792 946 b 647 715 792 783 739 715 "},"¸":{"ha":-192,"x_min":0,"x_max":0,"o":"m 247 -257 b 408 -200 369 -256 408 -237 b 260 -150 408 -157 371 -150 l 296 7 l 457 7 l 440 -72 b 585 -215 533 -78 585 -135 b 247 -383 585 -326 450 -390 "},"˛":{"ha":0,"x_min":0,"x_max":0,"o":"m 838 -367 l 708 -367 b 454 -164 547 -367 454 -285 l 454 -4 l 729 -4 l 729 -174 b 781 -233 729 -211 739 -233 l 838 -233 "},"¡":{"ha":-489,"x_min":0,"x_max":0,"o":"m 268 744 b 425 590 361 744 425 678 b 268 433 425 500 361 433 b 111 590 176 433 111 500 b 268 744 111 678 176 744 m 410 -481 l 126 -481 l 178 308 l 358 308 "},"¿":{"ha":-179,"x_min":0,"x_max":0,"o":"m 419 746 b 576 592 513 746 576 679 b 419 435 576 501 513 435 b 263 592 328 435 263 501 b 419 746 263 679 328 746 m 549 264 b 465 46 549 175 514 104 l 357 -82 b 319 -172 332 -111 319 -142 b 433 -278 319 -242 368 -278 b 554 -164 499 -278 554 -239 l 804 -164 b 413 -504 804 -362 638 -504 b 46 -192 217 -504 46 -411 b 125 0 46 -112 81 -54 l 265 169 b 299 310 293 203 299 269 l 549 310 "},"ː":{"ha":0,"x_min":0,"x_max":0,"o":"m 646 600 l 489 911 l 803 911 m 489 -25 l 646 286 l 803 -25 "},"∶":{"ha":0,"x_min":0,"x_max":0,"o":"m 803 911 l 489 911 l 646 600 m 803 -25 l 646 286 l 489 -25 "},"∮":{"ha":0,"x_min":0,"x_max":0,"o":"m 490 69 b 363 308 417 119 363 203 b 569 586 363 449 450 550 l 599 760 b 922 1063 626 925 757 1057 b 1058 1051 968 1063 1014 1060 l 1058 858 b 953 865 1024 865 988 868 b 829 560 896 863 863 826 b 974 308 911 511 974 422 b 776 33 974 172 890 72 l 746 35 l 718 -122 b 358 -490 668 -408 513 -490 b 246 -479 319 -490 281 -486 l 246 -286 b 335 -293 272 -292 314 -293 b 464 -79 419 -293 436 -235 m 518 489 b 369 311 515 376 472 314 b 518 132 472 308 515 249 b 665 310 519 249 563 307 b 518 489 563 314 519 376 m 815 488 b 668 310 813 375 771 313 b 815 131 771 307 813 247 b 964 308 817 247 861 306 b 815 488 861 313 817 375 "},"∑":{"ha":0,"x_min":0,"x_max":0,"o":"m 490 -265 l 1065 -265 l 1065 -490 l 226 -490 l 226 -219 l 539 269 l 240 735 l 240 1024 l 1029 1024 l 1029 801 l 511 801 l 511 796 l 846 283 l 490 -254 "},"∏":{"ha":0,"x_min":0,"x_max":0,"o":"m 189 1025 l 1104 1025 l 1104 -490 l 856 -490 l 856 810 l 438 810 l 438 -490 l 189 -490 "},"¤":{"ha":-179,"x_min":0,"x_max":0,"o":"m 31 182 l 126 279 b 74 454 92 328 74 385 b 125 628 74 522 92 581 l 31 725 l 153 847 l 264 738 b 422 774 313 761 368 774 b 582 738 476 774 533 761 l 693 847 l 815 725 l 718 628 b 772 454 754 581 772 522 b 718 279 772 385 751 328 l 815 182 l 693 58 l 581 171 b 422 136 531 147 475 136 b 265 171 368 136 314 147 l 153 58 m 422 307 b 554 454 496 307 554 364 b 422 603 554 544 496 603 b 292 454 349 603 292 544 b 422 307 292 364 349 307 "},"℉":{"ha":0,"x_min":0,"x_max":0,"o":"m 304 629 b 69 863 172 629 69 728 b 304 1096 69 997 172 1096 b 539 863 436 1096 539 997 b 304 629 539 728 436 629 m 304 747 b 411 863 368 747 411 794 b 304 978 411 931 368 978 b 199 863 242 978 199 931 b 304 747 199 794 242 747 m 838 721 l 838 454 l 1249 454 l 1249 247 l 838 247 l 838 -136 l 593 -136 l 593 921 l 1279 921 l 1279 721 "},"‰":{"ha":0,"x_min":0,"x_max":0,"o":"m 206 436 b 14 740 94 436 14 533 b 206 1042 14 949 94 1042 b 399 740 317 1042 399 949 b 206 436 399 533 317 436 m 251 -169 l 101 -169 l 621 1042 l 769 1042 m 206 1006 b 40 740 203 872 139 746 b 206 474 139 733 203 608 b 374 740 208 608 274 733 b 206 1006 274 746 208 872 m 664 435 b 857 131 776 435 857 338 b 664 -171 857 -78 776 -171 b 472 131 553 -171 472 -78 b 664 435 472 338 553 435 m 1086 435 b 1278 131 1197 435 1278 338 b 1086 -171 1278 -78 1197 -171 b 893 131 975 -171 893 -78 b 1086 435 893 338 975 435 m 664 -135 b 831 131 667 -1 731 124 b 664 396 731 136 667 263 b 497 131 661 263 596 136 b 664 -135 596 124 661 -1 m 1086 -135 b 1251 131 1089 -1 1153 124 b 1086 396 1153 136 1089 263 b 918 131 1082 263 1018 136 b 1086 -135 1018 124 1082 -1 "},"◁":{"ha":0,"x_min":0,"x_max":0,"o":"m 1171 -221 l 40 432 l 1171 1085 m 1104 969 l 174 432 l 1104 -106 "},"◀":{"ha":0,"x_min":0,"x_max":0,"o":"m 1171 -221 l 40 432 l 1171 1085 "},"▷":{"ha":0,"x_min":0,"x_max":0,"o":"m 121 -221 l 121 1085 l 1251 432 m 188 969 l 188 -106 l 1118 432 "},"▶":{"ha":0,"x_min":0,"x_max":0,"o":"m 121 -221 l 121 1085 l 1251 432 "},"♤":{"ha":0,"x_min":0,"x_max":0,"o":"m 658 1088 b 971 751 711 1008 856 860 l 971 753 b 1233 308 1071 657 1233 515 b 938 -12 1233 138 1114 -12 b 789 31 883 -12 832 4 b 865 -151 799 -19 822 -106 l 846 -174 l 446 -174 l 426 -151 b 503 31 469 -106 493 -19 b 354 -12 460 4 408 -12 b 58 308 178 -12 58 138 b 321 753 58 515 221 657 l 321 751 b 633 1088 436 860 581 1008 l 658 1088 m 607 286 b 579 -86 610 163 614 38 l 713 -86 b 685 286 678 38 682 163 l 753 288 b 940 104 778 139 872 104 b 1117 308 1047 104 1117 196 b 892 667 1117 463 974 590 b 646 925 799 751 700 856 b 400 667 592 856 492 751 b 175 308 318 590 175 463 b 351 104 175 196 244 104 b 539 288 419 104 486 139 l 607 286 "},"♠":{"ha":0,"x_min":0,"x_max":0,"o":"m 961 740 b 1225 303 1063 644 1225 501 b 947 0 1225 142 1113 -18 b 729 71 858 10 814 15 l 825 -146 b 825 -174 840 -160 831 -174 l 467 -174 l 563 71 b 344 0 478 15 433 10 b 67 303 181 -18 67 142 b 331 740 67 501 229 644 b 643 1092 454 858 593 1013 b 649 1092 644 1094 647 1094 b 961 740 699 1013 838 858 "},"♡":{"ha":0,"x_min":0,"x_max":0,"o":"m 364 1018 b 647 854 453 1018 569 988 b 931 1018 726 986 840 1018 b 1236 669 1097 1018 1236 867 b 969 217 1236 461 1072 315 b 660 -132 849 101 707 -54 l 633 -132 b 325 217 588 -54 446 101 b 58 669 222 315 58 463 b 364 1018 58 867 197 1018 m 644 678 b 364 903 586 792 508 903 b 175 669 264 903 175 806 b 408 297 175 515 319 382 b 647 32 507 204 593 106 b 888 299 700 107 789 207 l 888 297 b 1119 669 976 383 1119 514 b 931 903 1119 806 1029 903 b 650 678 786 903 708 792 "},"♥":{"ha":0,"x_min":0,"x_max":0,"o":"m 653 792 b 940 1014 693 946 810 1014 b 1231 679 1099 1014 1231 868 b 961 226 1231 474 1065 326 b 649 -143 835 106 700 -60 b 643 -143 647 -146 644 -146 b 331 226 592 -60 457 106 b 61 679 226 326 61 475 b 351 1014 61 868 193 1014 b 639 792 482 1014 597 946 b 646 782 640 788 642 782 b 653 792 650 782 651 788 "},"♧":{"ha":0,"x_min":0,"x_max":0,"o":"m 646 1035 b 957 731 814 1035 957 897 b 915 585 957 671 935 622 b 960 588 928 588 944 588 b 1257 285 1136 588 1257 453 b 961 -18 1257 110 1128 -18 b 779 44 897 -18 833 4 l 874 -174 l 418 -174 l 513 44 b 331 -18 458 4 394 -18 b 35 285 164 -18 35 110 b 332 588 35 453 156 588 b 376 585 347 588 364 588 b 335 731 357 622 335 671 b 646 1035 335 897 478 1035 m 646 918 b 450 731 544 918 450 832 b 565 451 450 669 469 567 l 553 432 b 329 485 443 486 374 490 b 151 285 215 471 151 389 b 331 97 151 176 236 97 b 536 265 399 97 510 129 l 607 265 b 585 -60 611 157 608 7 l 707 -60 b 685 265 683 7 681 157 l 742 267 b 961 97 793 135 894 97 b 1140 285 1056 97 1140 176 b 963 485 1140 389 1076 471 b 739 432 918 490 849 486 l 726 451 b 842 731 822 567 842 669 b 646 918 842 832 747 918 "},"♣":{"ha":0,"x_min":0,"x_max":0,"o":"m 576 85 b 319 -10 494 13 429 -10 b 40 272 163 -10 40 107 b 321 556 40 431 160 556 b 440 524 363 556 408 540 b 450 526 440 524 447 521 b 446 539 454 533 446 539 b 360 739 397 585 360 656 b 646 1028 360 897 486 1028 b 932 740 804 1028 932 899 b 846 539 932 657 894 585 b 842 526 846 539 838 533 b 851 524 844 521 851 524 b 969 556 883 540 931 556 b 1251 272 1135 556 1251 431 b 972 -10 1251 107 1129 -10 b 715 85 868 -10 803 4 l 825 -174 l 468 -174 l 576 85 "},"⊙":{"ha":0,"x_min":0,"x_max":0,"o":"m 646 -56 b 132 458 363 -56 132 175 b 646 972 132 742 363 972 b 1160 458 929 972 1160 742 b 646 -56 1160 175 929 -56 m 299 458 b 646 111 299 267 454 111 b 993 458 838 111 993 267 b 646 806 993 650 838 806 b 299 458 454 806 299 650 m 646 304 b 489 458 553 304 489 371 b 646 615 489 549 553 615 b 803 458 738 615 803 549 b 646 304 803 371 738 304 "},"◉":{"ha":0,"x_min":0,"x_max":0,"o":"m 646 -56 b 1160 458 929 -56 1160 175 b 646 972 1160 742 929 972 b 132 458 363 972 132 742 b 646 -56 132 175 363 -56 m 299 458 b 646 806 299 650 454 806 b 993 458 838 806 993 650 b 646 111 993 267 838 111 b 299 458 454 111 299 267 m 646 304 b 803 458 738 304 803 371 b 646 615 803 549 738 615 b 489 458 553 615 489 549 b 646 304 489 371 553 304 "},"◈":{"ha":0,"x_min":0,"x_max":0,"o":"m 1324 436 l 646 -242 l -32 436 l 646 1114 m 63 436 l 646 -147 l 1229 436 l 646 1019 m 646 806 l 1014 436 l 646 68 l 276 436 "},"▣":{"ha":0,"x_min":0,"x_max":0,"o":"m 1233 1024 l 1233 -151 l 58 -151 l 58 1024 m 129 -81 l 1163 -81 l 1163 953 l 129 953 m 311 771 l 981 771 l 981 101 l 311 101 "},"◐":{"ha":0,"x_min":0,"x_max":0,"o":"m 1257 436 b 646 -175 1257 99 983 -175 b 35 436 308 -175 35 99 b 646 1047 35 774 308 1047 b 1257 436 983 1047 1257 774 m 646 -126 b 1208 436 957 -126 1208 125 b 646 999 1208 747 957 999 "},"◑":{"ha":0,"x_min":0,"x_max":0,"o":"m 1257 436 b 646 -175 1257 99 983 -175 b 35 436 308 -175 35 99 b 646 1047 35 774 308 1047 b 1257 436 983 1047 1257 774 m 646 999 b 83 436 335 999 83 747 b 646 -126 83 125 335 -126 "},"▒":{"ha":0,"x_min":0,"x_max":0,"o":"m 1101 1024 l 1236 1024 l 1236 883 l 1101 883 m 540 883 l 406 883 l 406 1024 l 540 1024 m 193 883 l 58 883 l 58 1024 l 193 1024 m 369 883 l 235 883 l 235 1024 l 369 1024 m 890 883 l 753 883 l 753 1024 l 890 1024 m 928 1024 l 1061 1024 l 1061 883 l 928 883 m 579 883 l 579 1024 l 715 1024 l 715 883 m 1101 844 l 1236 844 l 1236 711 l 1101 711 m 540 711 l 406 711 l 406 844 l 540 844 m 193 711 l 58 711 l 58 844 l 193 844 m 369 711 l 235 711 l 235 844 l 369 844 m 890 711 l 753 711 l 753 844 l 890 844 m 928 844 l 1061 844 l 1061 711 l 928 711 m 579 711 l 579 844 l 715 844 l 715 711 m 1101 675 l 1236 675 l 1236 542 l 1101 542 m 540 542 l 406 542 l 406 675 l 540 675 m 193 542 l 58 542 l 58 675 l 193 675 m 369 542 l 235 542 l 235 675 l 369 675 m 890 542 l 753 542 l 753 675 l 890 675 m 928 675 l 1061 675 l 1061 542 l 928 542 m 579 542 l 579 675 l 715 675 l 715 542 m 579 364 l 579 501 l 715 501 l 715 364 m 928 501 l 1061 501 l 1061 364 l 928 364 m 890 364 l 753 364 l 753 501 l 890 501 m 369 364 l 235 364 l 235 501 l 369 501 m 193 364 l 58 364 l 58 501 l 193 501 m 540 364 l 406 364 l 406 501 l 540 501 m 1101 501 l 1236 501 l 1236 364 l 1101 364 m 1101 325 l 1236 325 l 1236 190 l 1101 190 m 540 190 l 406 190 l 406 325 l 540 325 m 193 190 l 58 190 l 58 325 l 193 325 m 369 190 l 235 190 l 235 325 l 369 325 m 890 190 l 753 190 l 753 325 l 890 325 m 928 325 l 1061 325 l 1061 190 l 928 190 m 579 190 l 579 325 l 715 325 l 715 190 m 1101 154 l 1236 154 l 1236 22 l 1101 22 m 540 22 l 406 22 l 406 154 l 540 154 m 193 22 l 58 22 l 58 154 l 193 154 m 369 22 l 235 22 l 235 154 l 369 154 m 890 22 l 753 22 l 753 154 l 890 154 m 928 154 l 1061 154 l 1061 22 l 928 22 m 579 22 l 579 154 l 715 154 l 715 22 m 1101 -15 l 1236 -15 l 1236 -151 l 1101 -151 m 540 -151 l 406 -151 l 406 -15 l 540 -15 m 193 -151 l 58 -151 l 58 -15 l 193 -15 m 369 -151 l 235 -151 l 235 -15 l 369 -15 m 890 -151 l 753 -151 l 753 -15 l 890 -15 m 928 -15 l 1061 -15 l 1061 -151 l 928 -151 m 579 -151 l 579 -15 l 715 -15 l 715 -151 "},"▤":{"ha":0,"x_min":0,"x_max":0,"o":"m 1233 1024 l 1233 -151 l 58 -151 l 58 1024 m 129 953 l 129 747 l 1163 747 l 1163 953 m 1163 471 l 1163 676 l 129 676 l 129 471 m 129 401 l 129 196 l 1163 196 l 1163 401 m 1163 -81 l 1163 125 l 129 125 l 129 -81 "},"▥":{"ha":0,"x_min":0,"x_max":0,"o":"m 1233 1024 l 1233 -151 l 58 -151 l 58 1024 m 1163 953 l 957 953 l 957 -81 l 1163 -81 m 129 -81 l 335 -81 l 335 953 l 129 953 m 611 953 l 406 953 l 406 -81 l 611 -81 m 681 -81 l 886 -81 l 886 953 l 681 953 "},"▨":{"ha":0,"x_min":0,"x_max":0,"o":"m 1233 1024 l 1233 -151 l 58 -151 l 58 1024 m 129 953 l 129 797 l 285 953 m 129 144 l 129 -40 l 1122 953 l 938 953 m 561 953 l 383 953 l 129 699 l 129 521 m 129 422 l 129 242 l 840 953 l 660 953 m 1163 714 l 1163 897 l 185 -81 l 368 -81 m 1163 438 l 1163 617 l 465 -81 l 644 -81 m 747 -81 l 921 -81 l 1163 161 l 1163 335 m 1163 -81 l 1163 58 l 1024 -81 "},"▧":{"ha":0,"x_min":0,"x_max":0,"o":"m 1233 1024 l 1233 -151 l 58 -151 l 58 1024 m 1163 953 l 1014 953 l 1163 804 m 636 953 l 457 953 l 1163 247 l 1163 426 m 1163 701 l 911 953 l 739 953 l 1163 529 m 1163 -33 l 1163 150 l 360 953 l 176 953 m 929 -81 l 1113 -81 l 129 903 l 129 719 m 650 -81 l 831 -81 l 129 621 l 129 440 m 129 164 l 374 -81 l 551 -81 l 129 342 m 129 -81 l 276 -81 l 129 67 "},"▦":{"ha":0,"x_min":0,"x_max":0,"o":"m 1233 1024 l 1233 -151 l 58 -151 l 58 1024 m 129 953 l 129 747 l 335 747 l 335 953 m 611 953 l 406 953 l 406 747 l 611 747 m 886 747 l 886 953 l 681 953 l 681 747 m 1163 953 l 957 953 l 957 747 l 1163 747 m 1163 471 l 1163 676 l 957 676 l 957 471 m 335 676 l 129 676 l 129 471 l 335 471 m 406 676 l 406 471 l 611 471 l 611 676 m 681 676 l 681 471 l 886 471 l 886 676 m 957 196 l 1163 196 l 1163 401 l 957 401 m 886 196 l 886 401 l 681 401 l 681 196 m 406 196 l 611 196 l 611 401 l 406 401 m 129 401 l 129 196 l 335 196 l 335 401 m 1163 -81 l 1163 125 l 957 125 l 957 -81 m 129 -81 l 335 -81 l 335 125 l 129 125 m 681 -81 l 886 -81 l 886 125 l 681 125 m 406 125 l 406 -81 l 611 -81 l 611 125 "},"▩":{"ha":0,"x_min":0,"x_max":0,"o":"m 1233 1024 l 1233 -151 l 58 -151 l 58 1024 m 1069 900 l 1122 953 l 1014 953 m 840 953 l 739 953 l 790 903 m 561 953 l 457 953 l 510 901 m 285 953 l 176 953 l 231 899 m 739 851 l 647 942 l 558 851 l 649 763 m 461 853 l 371 942 l 281 850 l 368 761 m 1018 849 l 925 940 l 839 853 l 931 763 m 129 903 l 129 797 l 182 850 m 1163 897 l 1117 851 l 1163 804 m 510 803 l 418 713 l 508 621 l 600 714 m 232 801 l 139 710 l 229 621 l 319 713 m 879 711 l 788 801 l 697 713 l 790 621 m 1157 708 l 1065 800 l 979 714 l 1071 621 m 649 481 l 742 572 l 649 664 l 558 572 m 368 482 l 460 572 l 369 664 l 278 571 m 1019 569 l 928 663 l 839 572 l 929 481 m 129 521 l 179 571 l 129 621 m 1163 617 l 1119 572 l 1163 529 m 790 340 l 881 432 l 790 524 l 697 432 m 510 340 l 600 432 l 510 524 l 417 432 m 229 522 l 138 432 l 229 342 l 318 432 m 1068 521 l 978 432 l 1068 342 l 1157 432 m 839 292 l 928 203 l 1019 293 l 929 383 m 558 292 l 649 200 l 742 292 l 649 383 m 278 292 l 369 201 l 460 290 l 368 383 m 129 242 l 179 292 l 129 342 m 1163 247 l 1163 335 l 1119 290 m 788 61 l 879 154 l 790 243 l 697 151 m 139 154 l 232 63 l 319 151 l 229 243 m 1065 64 l 1157 156 l 1071 242 l 979 151 m 510 60 l 600 151 l 508 242 l 418 153 m 281 14 l 371 -78 l 461 11 l 368 103 m 839 10 l 925 -76 l 1018 17 l 931 103 m 558 11 l 647 -78 l 739 13 l 649 103 m 129 -40 l 182 13 l 129 67 m 1163 -33 l 1163 58 l 1117 13 m 185 -81 l 276 -81 l 231 -35 m 1024 -81 l 1113 -81 l 1069 -35 m 465 -81 l 551 -81 l 510 -37 m 747 -81 l 831 -81 l 790 -39 "},"♨":{"ha":0,"x_min":0,"x_max":0,"o":"m 581 560 b 522 756 538 628 522 704 b 653 1014 522 854 560 946 l 719 1004 b 633 808 663 949 633 869 b 697 607 633 749 653 678 b 756 411 740 539 756 464 b 625 153 756 313 718 221 l 558 164 b 644 360 615 218 644 297 b 581 560 644 419 625 490 m 842 563 b 785 736 799 624 785 690 b 901 965 785 814 808 901 l 967 957 b 893 783 907 904 893 833 b 956 606 893 732 913 667 b 1013 431 999 543 1013 476 b 896 201 1013 354 989 265 l 831 210 b 904 385 890 264 904 333 b 842 563 904 435 885 501 m 326 563 b 269 736 283 624 269 690 b 386 965 269 814 293 901 l 451 957 b 378 783 392 904 378 833 b 440 606 378 732 397 667 b 497 431 483 543 497 476 b 381 201 497 354 474 265 l 315 210 b 389 385 375 264 389 333 b 326 563 389 435 369 501 m 1199 338 b 1243 211 1228 304 1243 260 b 646 -124 1243 17 978 -124 b 49 211 314 -124 49 17 b 88 332 49 257 63 299 l 146 319 b 126 250 133 300 126 278 b 646 19 126 131 372 19 b 1165 250 919 19 1165 131 b 1150 314 1165 274 1160 294 "},"☏":{"ha":0,"x_min":0,"x_max":0,"o":"m 417 678 l 417 608 b 257 353 417 518 360 453 b 124 8 158 256 124 133 b 207 -76 124 -43 150 -76 l 1085 -76 b 1168 8 1142 -76 1168 -43 b 1035 353 1168 133 1133 256 b 875 608 932 453 875 518 l 875 678 l 976 678 l 971 557 b 1013 479 969 528 968 489 l 1215 464 b 1276 522 1250 460 1276 486 b 646 899 1276 865 917 899 b 15 522 375 899 15 865 b 76 464 15 486 42 460 l 279 479 b 321 557 324 489 322 528 l 315 678 m 646 860 b 1238 522 890 860 1238 836 b 1221 503 1238 506 1233 501 l 1019 518 b 1007 542 1010 519 1006 525 l 1018 717 l 836 717 l 836 608 b 1007 325 836 504 904 425 b 1129 8 1100 236 1129 128 b 1085 -37 1129 -26 1119 -37 l 207 -37 b 163 8 172 -37 163 -26 b 285 325 163 128 192 236 b 456 608 388 425 456 504 l 456 717 l 274 717 l 285 542 b 272 518 286 525 282 519 l 71 503 b 54 522 58 501 54 506 b 646 860 54 836 401 860 m 756 544 l 756 717 l 536 717 l 536 544 m 717 583 l 575 583 l 575 678 l 717 678 m 646 0 b 899 253 783 0 899 115 b 646 506 899 390 783 506 b 393 253 508 506 393 390 b 646 0 393 115 508 0 m 432 253 b 646 467 432 371 528 467 b 860 253 764 467 860 371 b 646 39 860 135 764 39 b 432 253 528 39 432 135 "},"☎":{"ha":0,"x_min":0,"x_max":0,"o":"m 321 557 b 279 479 322 528 324 489 l 76 464 b 15 522 42 460 15 486 b 646 899 15 865 375 899 b 1276 522 917 899 1276 865 b 1215 464 1276 486 1250 460 l 1013 479 b 971 557 968 489 969 528 l 976 678 l 875 678 l 875 608 b 1035 353 875 518 932 453 b 1168 8 1133 256 1168 133 b 1085 -76 1168 -43 1142 -76 l 207 -76 b 124 8 150 -76 124 -43 b 257 353 124 133 158 256 b 417 608 360 453 417 518 l 417 678 l 315 678 m 556 690 l 556 557 l 736 557 l 736 690 m 413 246 b 646 13 413 117 517 13 b 879 246 775 13 879 117 b 646 479 879 375 775 479 b 413 246 517 479 413 375 "},"☜":{"ha":0,"x_min":0,"x_max":0,"o":"m 1100 156 b 1072 151 1090 156 1082 156 b 819 85 979 118 911 100 b 708 75 779 78 743 75 b 589 90 668 75 608 82 b 586 90 588 90 588 92 b 581 90 585 90 583 90 l 568 89 b 481 114 536 89 507 94 b 431 211 451 135 433 168 b 429 215 431 213 429 215 l 414 222 b 363 332 383 243 364 281 b 358 342 363 336 361 340 b 315 385 338 353 324 367 b 328 497 300 422 303 469 l 333 501 b 329 508 336 504 333 508 b 164 508 268 507 197 506 b 56 596 79 515 56 556 b 164 692 56 661 117 682 b 697 740 258 711 586 740 b 1094 617 800 740 924 696 b 1106 615 1099 615 1101 615 l 1199 615 b 1218 596 1213 615 1218 607 l 1218 175 b 1217 165 1218 172 1218 168 b 1199 156 1214 158 1206 156 m 361 547 b 413 553 383 547 401 550 b 460 581 429 557 449 568 b 550 665 485 611 526 642 l 600 700 b 171 654 463 690 233 668 b 89 596 89 638 89 608 b 167 546 89 574 100 551 b 361 547 204 543 299 546 m 1103 576 b 1088 579 1099 576 1092 576 b 735 699 938 650 810 699 b 594 657 672 699 638 688 b 490 563 571 639 519 599 b 467 510 468 535 463 519 b 558 494 479 485 514 481 b 708 549 632 518 694 542 b 729 543 715 553 722 549 b 1021 421 783 490 949 421 b 1043 406 1029 421 1043 415 b 1021 383 1043 396 1032 386 b 714 506 974 369 753 457 b 717 450 721 497 721 463 b 761 332 749 426 776 368 b 792 285 779 322 789 300 b 768 192 800 243 785 215 b 671 118 743 158 706 136 b 671 114 668 118 669 114 b 814 121 715 111 764 113 b 1072 193 907 138 972 156 b 1089 196 1078 196 1085 196 l 1169 197 b 1185 211 1176 197 1185 203 l 1185 565 b 1172 576 1185 572 1178 576 m 403 367 b 485 364 436 360 471 361 b 604 394 529 369 568 378 b 664 432 629 406 650 418 b 676 475 679 446 679 461 b 657 485 674 483 667 488 l 569 458 b 492 453 539 451 514 449 b 432 504 463 460 446 471 b 411 511 428 514 418 514 b 353 471 390 503 369 489 b 346 401 336 451 338 421 b 403 367 356 379 382 371 m 517 239 b 672 294 556 239 625 260 b 728 365 710 321 728 340 b 717 400 728 379 725 390 b 689 401 710 406 700 408 b 615 361 667 389 639 372 b 447 325 568 339 511 325 b 404 328 433 325 419 325 b 399 321 401 328 399 325 b 432 256 401 297 407 271 b 517 239 454 242 486 239 m 561 126 b 747 219 614 126 706 169 b 760 272 765 240 764 263 b 717 282 750 299 731 293 b 517 201 663 243 563 201 b 471 204 501 201 486 203 b 467 200 469 204 467 203 b 499 144 471 176 482 157 b 561 126 522 128 550 126 "},"☞":{"ha":0,"x_min":0,"x_max":0,"o":"m 93 156 b 75 165 86 156 78 158 b 74 175 74 168 74 172 l 74 596 b 93 615 74 607 79 615 l 186 615 b 197 617 190 615 193 615 b 594 740 368 696 492 740 b 1128 692 706 740 1033 711 b 1236 596 1175 682 1236 661 b 1128 508 1236 556 1213 515 b 963 508 1094 506 1024 507 b 958 501 958 508 956 504 l 964 497 b 976 385 989 469 992 422 b 933 342 968 367 954 353 b 929 332 931 340 929 336 b 878 222 928 281 908 243 l 863 215 b 861 211 863 215 861 213 b 811 114 858 168 840 135 b 725 89 785 94 757 89 l 713 90 b 706 90 711 90 708 90 b 703 90 704 92 704 90 b 583 75 683 82 624 75 b 472 85 549 75 513 78 b 219 151 381 100 313 118 b 192 156 210 156 201 156 l 93 156 m 931 547 b 1125 546 993 546 1088 543 b 1203 596 1192 551 1203 574 b 1121 654 1203 608 1203 638 b 692 700 1058 668 829 690 l 742 665 b 832 581 765 642 807 611 b 879 553 843 568 863 557 b 931 547 890 550 908 547 m 119 576 b 107 565 114 576 107 572 l 107 211 b 122 197 107 203 115 197 l 203 196 b 219 193 207 196 214 196 b 478 121 319 156 385 138 b 621 114 528 113 576 111 b 621 118 622 114 624 118 b 524 192 586 136 549 158 b 500 285 507 215 492 243 b 531 332 503 300 513 322 b 575 450 515 368 543 426 b 578 506 571 463 571 497 b 271 383 539 457 318 369 b 249 406 260 386 249 396 b 271 421 249 415 263 421 b 563 543 343 421 508 490 b 583 549 569 549 576 553 b 733 494 597 542 660 518 b 825 510 778 481 813 485 b 801 563 829 519 824 535 b 697 657 772 599 721 639 b 557 699 654 688 619 699 b 204 579 482 699 354 650 b 189 576 200 576 193 576 l 119 576 m 889 367 b 946 401 910 371 936 379 b 939 471 954 421 956 451 b 881 511 922 489 901 503 b 860 504 874 514 864 514 b 800 453 846 471 829 460 b 722 458 778 449 753 451 l 635 485 b 615 475 625 488 618 483 b 628 432 613 461 613 446 b 688 394 642 418 663 406 b 807 364 724 378 763 369 b 889 367 821 361 856 360 m 775 239 b 860 256 806 239 838 242 b 893 321 885 271 890 297 b 888 328 893 325 890 328 b 844 325 872 325 858 325 b 676 361 781 325 724 339 b 603 401 653 372 625 389 b 575 400 592 408 582 406 b 564 365 567 390 564 379 b 619 294 564 340 582 321 b 775 239 667 260 736 239 m 731 126 b 793 144 742 126 769 128 b 825 200 810 157 821 176 b 821 204 825 203 822 204 b 775 201 806 203 790 201 b 575 282 729 201 629 243 b 532 272 561 293 542 299 b 544 219 528 263 526 240 b 731 126 586 169 678 126 "},"¶":{"ha":-226,"x_min":0,"x_max":0,"o":"m 314 379 b 50 701 183 379 50 464 b 314 1024 50 939 183 1024 l 729 1024 l 729 -150 l 576 -150 l 576 889 l 467 889 l 467 -150 l 314 -150 "},"†":{"ha":0,"x_min":0,"x_max":0,"o":"m 750 707 l 1007 707 l 1007 529 l 750 529 l 750 -151 l 542 -151 l 542 529 l 285 529 l 285 707 l 542 707 l 542 1022 l 750 1022 "},"‡":{"ha":0,"x_min":0,"x_max":0,"o":"m 750 731 l 1007 731 l 1007 553 l 750 553 l 750 325 l 1007 325 l 1007 147 l 750 147 l 750 -150 l 542 -150 l 542 147 l 285 147 l 285 325 l 542 325 l 542 553 l 285 553 l 285 731 l 542 731 l 542 1022 l 750 1022 "},"↕":{"ha":0,"x_min":0,"x_max":0,"o":"m 981 704 l 844 597 l 729 743 l 729 132 l 844 278 l 981 171 l 646 -194 l 311 171 l 447 278 l 563 132 l 563 743 l 447 597 l 311 704 l 646 1069 "},"↗":{"ha":0,"x_min":0,"x_max":0,"o":"m 228 103 l 828 701 l 643 679 l 622 851 l 1117 874 l 1096 378 l 924 399 l 946 583 l 346 -15 "},"↙":{"ha":0,"x_min":0,"x_max":0,"o":"m 1117 756 l 517 157 l 701 179 l 722 7 l 228 -15 l 249 481 l 421 460 l 399 275 l 999 874 "},"↖":{"ha":0,"x_min":0,"x_max":0,"o":"m 399 583 l 421 399 l 249 378 l 228 874 l 722 851 l 701 679 l 517 701 l 1117 103 l 999 -15 "},"↘":{"ha":0,"x_min":0,"x_max":0,"o":"m 946 275 l 924 460 l 1096 481 l 1117 -15 l 622 7 l 643 179 l 828 157 l 228 756 l 346 874 "},"♭":{"ha":0,"x_min":0,"x_max":0,"o":"m 804 583 b 992 394 926 583 992 497 b 468 -179 992 96 644 10 l 454 -179 l 454 1068 l 508 1068 l 508 361 b 804 583 571 486 683 583 m 508 -75 b 860 372 675 72 860 161 b 742 493 860 465 808 493 b 508 276 668 493 588 440 l 508 -75 "},"♩":{"ha":0,"x_min":0,"x_max":0,"o":"m 726 1075 l 726 33 b 472 -203 726 -111 632 -203 b 343 -86 394 -203 343 -154 b 583 92 343 13 428 92 b 671 74 615 92 650 85 l 671 1075 "},"♪":{"ha":0,"x_min":0,"x_max":0,"o":"m 626 1075 l 661 1075 b 822 769 661 942 738 843 b 1001 457 907 696 1001 588 b 885 118 1001 340 951 225 l 849 118 b 936 410 879 182 936 299 b 682 675 936 571 826 643 l 682 33 b 428 -203 682 -111 588 -203 b 299 -86 350 -203 299 -154 b 539 92 299 13 383 92 b 626 74 571 92 606 85 "},"♬":{"ha":0,"x_min":0,"x_max":0,"o":"m 368 918 l 1181 1096 l 1181 197 b 926 -39 1181 53 1086 -39 b 797 78 849 -39 797 10 b 1038 256 797 176 882 256 b 1125 238 1069 256 1104 249 l 1125 706 l 424 553 l 424 31 b 169 -206 424 -114 329 -206 b 40 -89 92 -206 40 -157 b 281 89 40 10 125 89 b 368 71 313 89 347 82 m 1125 944 l 424 792 l 424 692 l 1125 844 "},"㉿":{"ha":364,"x_min":0,"x_max":0,"o":"m 374 371 l 101 371 b 99 433 99 392 99 414 b 692 1042 94 768 364 1042 b 1250 654 918 1042 1146 914 l 1114 654 b 693 911 1032 815 875 911 b 229 500 457 911 257 728 l 374 500 m 960 653 l 772 518 l 944 219 l 799 219 l 668 443 l 557 363 l 557 219 l 428 219 l 428 653 l 557 653 l 557 519 l 746 653 m 1286 501 b 1290 440 1290 481 1290 457 b 696 -169 1290 107 1025 -169 b 139 219 469 -169 224 -31 l 276 219 b 696 -39 358 60 521 -39 b 1160 371 929 -39 1132 142 l 960 371 l 960 501 "},"㈜":{"ha":0,"x_min":0,"x_max":0,"o":"m 1271 436 b 1086 -150 1271 217 1200 19 l 1024 -150 b 1169 436 1122 10 1169 278 b 1024 1024 1169 596 1122 863 l 1086 1024 b 1271 436 1200 854 1271 657 m 21 436 b 207 1024 21 657 93 854 l 268 1024 b 122 436 171 863 122 596 b 268 -150 122 278 171 10 l 207 -150 b 21 436 93 19 21 217 m 247 824 l 1054 824 l 1054 672 l 863 672 l 1054 403 l 831 403 l 650 674 l 471 403 l 247 403 l 439 672 l 247 672 m 247 363 l 1054 363 l 1054 213 l 753 213 l 753 1 l 549 1 l 549 213 l 247 213 "},"№":{"ha":0,"x_min":0,"x_max":0,"o":"m 963 1042 b 1238 669 1133 1042 1238 869 l 1238 515 b 963 143 1238 303 1133 143 b 686 515 790 143 686 303 l 686 669 b 963 1042 686 869 790 1042 m 479 -143 l 268 432 b 215 564 250 481 238 517 b 221 376 219 499 221 435 l 221 -143 l 53 -143 l 53 1024 l 221 1024 l 426 476 b 485 292 447 419 468 358 b 479 488 479 354 479 422 l 479 1024 l 646 1024 l 646 -143 m 963 981 b 750 593 960 726 896 599 b 963 206 896 586 960 449 b 1174 594 965 449 1028 588 b 963 981 1028 600 965 726 m 706 53 l 1236 53 l 1236 -156 l 706 -156 "},"㏇":{"ha":0,"x_min":0,"x_max":0,"o":"m 561 303 l 561 233 b 294 -169 561 -15 468 -169 b 28 261 121 -169 28 -1 l 28 610 b 294 1040 28 872 121 1040 b 561 638 468 1040 561 886 l 561 582 l 401 582 l 401 624 b 294 818 401 753 379 818 b 188 596 211 818 188 739 l 188 275 b 294 53 188 132 211 53 b 401 247 379 53 401 118 l 401 303 m 824 744 b 1060 365 986 744 1060 568 l 1060 208 b 824 -171 1060 -8 986 -171 b 589 208 661 -171 589 -8 l 589 365 b 824 744 589 568 661 744 m 824 661 b 650 288 819 417 781 293 b 824 -128 788 281 824 133 b 1000 289 824 133 858 282 b 824 661 867 294 826 417 m 1168 -169 b 1057 -15 1088 -169 1057 -103 b 1168 142 1057 75 1088 142 b 1281 -15 1247 142 1281 75 b 1168 -169 1281 -103 1247 -169 "},"™":{"ha":-17,"x_min":0,"x_max":0,"o":"m 289 508 l 169 508 l 169 926 l 21 926 l 21 1024 l 436 1024 l 436 926 l 289 926 m 806 1024 l 950 1024 l 950 508 l 838 508 l 838 721 b 846 846 838 753 843 808 l 749 521 l 658 521 l 560 846 b 568 721 564 808 568 753 l 568 508 l 457 508 l 457 1024 l 601 1024 l 686 750 b 703 668 693 722 699 694 b 721 750 708 694 713 722 "},"㏂":{"ha":0,"x_min":0,"x_max":0,"o":"m 174 -169 b 26 86 90 -169 26 -81 b 192 400 26 261 69 368 l 282 424 l 282 443 b 218 539 282 513 258 539 b 157 457 178 539 157 504 l 157 443 l 35 443 l 35 471 b 218 739 35 621 107 739 b 403 443 322 739 403 615 l 403 -151 l 289 -151 l 289 -101 b 174 -169 268 -139 222 -169 m 731 710 b 867 654 789 743 836 722 b 924 710 886 678 906 699 b 1106 400 1022 772 1106 656 l 1106 -151 l 986 -151 l 986 372 b 917 496 986 483 961 521 l 903 475 b 906 400 904 451 906 426 l 906 -151 l 788 -151 l 788 372 b 721 497 788 483 763 526 l 706 469 l 706 -151 l 588 -151 l 588 725 l 706 725 l 706 679 m 211 363 b 97 119 208 232 156 125 b 211 -117 156 114 208 6 b 322 121 214 7 267 115 b 211 363 267 126 214 232 m 492 -167 b 415 -65 446 -167 415 -122 b 492 39 415 -6 446 39 b 568 -65 536 39 568 -6 b 492 -167 568 -122 536 -167 m 1201 -167 b 1124 -65 1156 -167 1124 -122 b 1201 39 1124 -6 1156 39 b 1278 -65 1246 39 1278 -6 b 1201 -167 1278 -122 1246 -167 "},"㏘":{"ha":0,"x_min":0,"x_max":0,"o":"m 721 710 b 856 656 775 743 822 724 b 928 714 879 682 906 704 b 1106 400 1033 763 1106 656 l 1106 -151 l 982 -151 l 982 372 b 917 496 982 483 957 521 l 894 472 b 897 400 896 450 897 425 l 897 -151 l 774 -151 l 774 372 b 711 497 774 483 751 526 l 689 469 l 689 -151 l 565 -151 l 565 725 l 689 725 l 689 679 m 32 -490 l 32 725 l 251 725 b 440 279 375 725 440 526 b 251 -151 440 33 369 -151 l 157 -151 l 157 -490 m 240 681 b 81 288 239 422 190 293 b 240 -108 190 281 239 140 b 400 289 243 140 290 282 b 240 681 290 294 243 422 m 474 -167 b 397 -65 428 -167 397 -122 b 474 39 397 -6 428 39 b 550 -65 518 39 550 -6 b 474 -167 550 -122 518 -167 m 1201 -167 b 1124 -65 1156 -167 1124 -122 b 1201 39 1124 -6 1156 39 b 1278 -65 1246 39 1278 -6 b 1201 -167 1278 -122 1246 -167 "},"℡":{"ha":132,"x_min":0,"x_max":0,"o":"m 279 508 l 157 508 l 157 926 l 21 926 l 21 1024 l 415 1024 l 415 926 l 279 926 m 440 508 l 440 1024 l 765 1024 l 765 926 l 563 926 l 563 819 l 760 819 l 760 721 l 563 721 l 563 593 b 765 631 625 593 692 604 l 765 508 m 799 1024 l 921 1024 l 921 596 b 1108 633 996 597 1049 607 l 1108 508 l 799 508 "},"！":{"ha":0,"x_min":0,"x_max":0,"o":"m 504 1056 l 788 1056 l 736 267 l 556 267 m 646 -169 b 489 -15 553 -169 489 -103 b 646 142 489 75 553 142 b 803 -15 738 142 803 75 b 646 -169 803 -103 738 -169 "},"＂":{"ha":0,"x_min":0,"x_max":0,"o":"m 361 1111 l 624 1111 l 586 700 l 413 700 m 667 1111 l 929 1111 l 878 700 l 704 700 "},"＃":{"ha":0,"x_min":0,"x_max":0,"o":"m 924 665 l 871 225 l 1026 225 l 1026 44 l 850 44 l 826 -153 l 649 -153 l 672 44 l 508 44 l 485 -153 l 307 -153 l 331 44 l 217 44 l 217 225 l 353 225 l 407 665 l 268 665 l 268 846 l 429 846 l 451 1025 l 625 1025 l 603 846 l 771 846 l 793 1025 l 967 1025 l 944 846 l 1075 846 l 1075 665 m 529 225 l 694 225 l 749 665 l 582 665 "},"＄":{"ha":0,"x_min":0,"x_max":0,"o":"m 1086 211 b 765 -144 1086 51 976 -104 l 765 -294 l 553 -294 l 553 -147 b 206 224 349 -115 206 15 l 488 224 b 657 67 488 140 544 67 b 790 183 753 67 790 122 b 664 300 790 231 718 271 l 440 415 b 240 694 322 476 240 538 b 553 1017 240 871 358 988 l 553 1181 l 765 1181 l 765 1013 b 1047 694 919 978 1047 867 l 786 694 b 657 807 786 765 739 807 b 538 707 581 807 538 767 b 671 593 538 650 585 640 l 890 474 b 1086 211 1000 414 1086 360 "},"％":{"ha":0,"x_min":0,"x_max":0,"o":"m 292 436 b -6 740 119 436 -6 533 b 292 1042 -6 949 119 1042 b 590 740 464 1042 590 949 b 292 436 590 533 464 436 m 340 -169 l 151 -169 l 954 1042 l 1143 1042 m 292 1006 b 35 740 286 872 189 746 b 292 474 189 733 286 608 b 551 740 296 608 397 733 b 292 1006 397 746 296 872 m 1001 435 b 1299 131 1174 435 1299 338 b 1001 -171 1299 -78 1174 -171 b 703 131 829 -171 703 -78 b 1001 435 703 338 829 435 m 1001 -135 b 1258 131 1006 -1 1104 124 b 1001 396 1104 136 1006 263 b 742 131 996 263 896 136 b 1001 -135 896 124 996 -1 "},"＆":{"ha":0,"x_min":0,"x_max":0,"o":"m 1153 476 b 1019 89 1153 375 1113 207 b 1190 47 1068 63 1122 47 l 1190 -175 b 854 -85 1040 -175 939 -143 b 540 -175 772 -133 669 -175 b 100 164 276 -175 100 -47 b 264 446 100 285 169 383 l 318 482 l 293 510 b 197 726 251 557 197 640 b 532 1042 197 906 342 1042 b 860 761 724 1042 860 926 b 724 513 860 651 806 567 l 640 456 l 840 240 b 910 476 892 306 910 371 l 1153 476 m 504 601 l 579 650 b 644 761 621 676 644 711 b 536 857 644 815 589 857 b 424 747 471 857 424 814 b 500 607 424 704 465 644 m 533 40 b 681 79 594 40 640 57 l 456 329 l 440 318 b 367 181 382 276 367 224 b 533 40 367 97 432 40 "},"＇":{"ha":0,"x_min":0,"x_max":0,"o":"m 504 1111 l 788 1111 l 736 700 l 556 700 "},"（":{"ha":0,"x_min":0,"x_max":0,"o":"m 853 397 b 1101 1183 853 692 949 956 l 1278 1183 b 1082 397 1146 968 1082 610 b 1278 -389 1082 185 1146 -174 l 1101 -389 b 853 397 949 -161 853 103 "},"）":{"ha":0,"x_min":0,"x_max":0,"o":"m 439 397 b 190 -389 439 103 343 -161 l 14 -389 b 210 397 146 -174 210 185 b 14 1183 210 610 146 968 l 190 1183 b 439 397 343 956 439 692 "},"＊":{"ha":0,"x_min":0,"x_max":0,"o":"m 728 956 l 908 1040 l 975 836 l 779 797 l 915 654 l 742 528 l 646 700 l 550 526 l 376 653 l 511 797 l 317 835 l 383 1039 l 561 956 l 538 1153 l 753 1153 "},"＋":{"ha":0,"x_min":0,"x_max":0,"o":"m 764 846 l 764 551 l 1043 551 l 1043 346 l 764 346 l 764 51 l 528 51 l 528 346 l 249 346 l 249 551 l 528 551 l 528 846 "},"，":{"ha":0,"x_min":0,"x_max":0,"o":"m 390 -22 b 69 -369 404 -196 260 -356 l 69 -265 b 188 -157 142 -244 175 -212 b 76 -15 119 -140 76 -87 b 233 142 76 75 140 142 b 390 -22 325 142 383 68 "},"－":{"ha":0,"x_min":0,"x_max":0,"o":"m 415 553 l 876 553 l 876 344 l 415 344 "},"．":{"ha":0,"x_min":0,"x_max":0,"o":"m 233 -169 b 76 -15 140 -169 76 -103 b 233 142 76 75 140 142 b 390 -15 325 142 390 75 b 233 -169 390 -103 325 -169 "},"／":{"ha":0,"x_min":0,"x_max":0,"o":"m 715 1156 l 899 1156 l 578 -332 l 394 -332 "},"０":{"ha":0,"x_min":0,"x_max":0,"o":"m 646 1040 b 1097 610 919 1040 1097 872 l 1097 261 b 646 -169 1097 -1 919 -169 b 194 261 372 -169 194 -1 l 194 610 b 646 1040 194 872 372 1040 m 233 436 b 646 -112 467 436 638 183 b 1058 438 654 183 824 438 b 646 988 824 438 654 690 b 233 436 638 690 467 436 "},"１":{"ha":0,"x_min":0,"x_max":0,"o":"m 621 -151 l 621 746 l 393 617 l 393 839 l 690 1024 l 899 1024 l 899 -151 "},"２":{"ha":0,"x_min":0,"x_max":0,"o":"m 215 -151 l 215 33 l 597 374 b 801 668 724 486 801 554 b 640 818 801 757 739 818 b 479 640 533 818 465 751 l 229 640 b 643 1040 215 836 357 1040 b 1079 661 932 1040 1079 872 b 867 313 1079 539 1014 443 l 553 36 b 1068 126 724 36 925 54 l 1068 -151 "},"３":{"ha":0,"x_min":0,"x_max":0,"o":"m 497 549 l 581 549 b 775 701 725 549 775 613 b 633 822 775 772 717 822 b 492 718 560 822 492 779 l 249 718 b 649 1042 242 889 389 1042 b 1053 728 894 1042 1053 900 b 879 465 1053 621 971 501 b 1094 185 1001 428 1094 336 b 653 -169 1094 -21 886 -169 b 196 183 396 -169 196 -53 l 446 183 b 624 58 446 107 532 58 b 817 196 733 58 817 113 b 581 354 817 297 717 354 l 497 354 "},"４":{"ha":0,"x_min":0,"x_max":0,"o":"m 1143 24 l 1003 24 l 1003 -151 l 739 -151 l 739 24 l 176 24 l 176 232 l 753 1024 l 1003 1024 l 1003 246 l 1143 246 m 688 801 b 393 449 682 606 578 456 b 688 79 583 440 688 269 b 981 450 688 269 792 442 b 688 801 796 457 692 606 "},"５":{"ha":0,"x_min":0,"x_max":0,"o":"m 646 -175 b 182 215 414 -175 182 -54 l 432 215 b 635 53 439 115 531 53 b 828 247 760 53 828 139 b 633 435 828 363 744 435 b 428 376 558 435 489 411 l 271 451 l 271 1025 l 1001 1025 l 1001 803 l 546 803 l 546 614 b 703 638 583 628 660 638 b 1110 254 901 638 1110 503 b 646 -175 1110 -11 872 -175 "},"６":{"ha":0,"x_min":0,"x_max":0,"o":"m 646 -174 b 200 207 378 -174 200 -10 l 200 690 b 639 1042 200 904 385 1042 b 1064 710 904 1042 1064 899 l 1064 703 l 792 703 l 792 710 b 639 819 792 775 728 819 b 472 697 547 819 472 774 l 472 582 b 646 613 507 599 593 613 b 1092 272 900 613 1092 475 l 1092 207 b 646 -174 1092 -10 914 -174 m 646 -106 b 1021 222 651 138 779 218 b 646 551 779 226 651 318 b 271 221 639 318 511 225 b 646 -106 511 217 639 138 "},"７":{"ha":0,"x_min":0,"x_max":0,"o":"m 454 149 b 869 801 454 429 618 699 l 214 801 l 214 1024 l 1076 1024 l 1076 867 b 732 176 883 708 732 482 l 732 -151 l 454 -151 "},"８":{"ha":0,"x_min":0,"x_max":0,"o":"m 646 1042 b 1071 710 914 1042 1071 924 l 1071 700 b 947 476 1071 610 1026 528 b 1111 207 1050 421 1111 331 l 1111 192 b 646 -169 1111 -57 919 -169 b 181 192 372 -169 181 -57 l 181 207 b 344 476 181 332 242 422 b 222 700 265 528 222 611 l 222 710 b 646 1042 222 924 379 1042 m 642 986 b 292 743 633 840 467 747 b 642 501 467 739 633 657 b 992 743 650 657 817 739 b 642 986 817 747 650 840 m 236 182 b 642 -122 421 168 642 88 b 1033 181 642 82 851 175 b 642 486 851 186 642 294 b 236 182 642 290 421 182 "},"９":{"ha":0,"x_min":0,"x_max":0,"o":"m 646 1042 b 1092 663 914 1042 1092 879 l 1092 182 b 653 -169 1092 -32 907 -169 b 228 163 388 -169 228 -26 l 228 169 l 500 169 l 500 163 b 653 53 500 97 564 53 b 819 175 744 53 819 99 l 819 290 b 646 260 785 274 699 260 b 200 597 392 260 200 394 l 200 663 b 646 1042 200 879 378 1042 m 646 974 b 271 647 639 731 511 651 b 646 301 518 643 646 549 b 1021 649 646 549 774 643 b 646 974 779 653 651 731 "},"：":{"ha":0,"x_min":0,"x_max":0,"o":"m 646 600 b 489 754 553 600 489 667 b 646 911 489 844 553 911 b 803 754 738 911 803 844 b 646 600 803 667 738 600 m 646 -25 b 489 129 553 -25 489 42 b 646 286 489 219 553 286 b 803 129 738 286 803 219 b 646 -25 803 42 738 -25 "},"；":{"ha":0,"x_min":0,"x_max":0,"o":"m 649 600 b 492 754 556 600 492 667 b 649 911 492 844 556 911 b 806 754 740 911 806 844 b 649 600 806 667 740 600 m 806 136 b 485 -197 803 -36 674 -183 l 485 -93 b 599 1 550 -74 585 -46 b 492 143 533 19 492 72 b 649 300 492 233 556 300 b 806 143 740 300 806 233 "},"＜":{"ha":0,"x_min":0,"x_max":0,"o":"m 972 407 l 1278 -6 l 1278 -292 l 757 301 l 757 521 l 1278 1114 l 1278 828 l 972 415 "},"＝":{"ha":0,"x_min":0,"x_max":0,"o":"m 288 754 l 1003 754 l 1003 553 l 288 553 m 288 340 l 1003 340 l 1003 139 l 288 139 "},"＞":{"ha":0,"x_min":0,"x_max":0,"o":"m 319 415 l 14 828 l 14 1114 l 535 521 l 535 301 l 14 -292 l 14 -6 l 319 407 "},"？":{"ha":0,"x_min":0,"x_max":0,"o":"m 522 313 b 606 531 522 401 557 472 l 714 658 b 751 749 739 688 751 718 b 638 854 751 818 703 854 b 517 740 572 854 517 815 l 267 740 b 658 1081 267 939 433 1081 b 1025 768 854 1081 1025 988 b 946 576 1025 689 990 631 l 806 407 b 772 267 778 374 772 307 l 522 267 m 651 -169 b 494 -15 558 -169 494 -103 b 651 142 494 75 558 142 b 808 -15 743 142 808 75 b 651 -169 808 -103 743 -169 "},"＠":{"ha":0,"x_min":0,"x_max":0,"o":"m 654 774 b 786 708 704 774 760 753 l 786 768 l 956 768 l 956 342 b 996 167 956 229 967 167 b 1115 479 1051 167 1115 285 b 701 974 1115 750 993 974 b 188 313 440 974 188 724 b 642 -232 188 -46 415 -232 b 932 -167 717 -232 874 -204 l 932 -319 b 624 -403 843 -381 729 -403 b 32 307 328 -403 32 -165 b 721 1143 32 792 344 1143 b 1261 488 1051 1143 1261 872 b 975 -17 1261 150 1076 -17 b 821 108 894 -17 842 26 b 642 -17 793 38 713 -17 b 347 369 457 -17 347 147 b 654 774 347 590 467 774 m 644 700 b 422 375 639 526 531 382 b 644 51 531 368 639 224 b 868 376 650 224 760 368 b 644 700 760 383 650 526 "},"Ａ":{"ha":0,"x_min":0,"x_max":0,"o":"m 843 68 l 449 68 l 369 -151 l 72 -151 l 508 1024 l 785 1024 l 1219 -151 l 922 -151 m 900 515 b 646 897 708 515 649 692 b 392 515 643 692 582 515 b 646 117 588 515 646 315 b 900 515 646 315 704 515 "},"Ｂ":{"ha":0,"x_min":0,"x_max":0,"o":"m 671 1024 b 1053 733 886 1024 1053 931 b 913 490 1053 638 992 536 b 1113 213 1024 460 1113 335 b 686 -151 1113 -21 943 -151 l 151 -151 l 151 1024 m 613 986 b 263 743 604 828 438 747 b 613 501 438 739 604 669 b 963 743 621 669 788 739 b 613 986 788 747 621 828 m 613 486 b 235 183 613 294 415 188 b 613 -121 415 178 613 83 b 990 182 613 83 808 176 b 613 486 808 188 613 294 "},"Ｃ":{"ha":0,"x_min":0,"x_max":0,"o":"m 1153 303 l 1153 233 b 646 -169 1153 -15 947 -169 b 139 261 344 -169 139 -1 l 139 610 b 646 1040 139 872 344 1040 b 1153 638 947 1040 1153 886 l 1153 582 l 875 582 l 875 624 b 646 818 875 753 790 818 b 417 596 501 818 417 739 l 417 275 b 646 53 417 132 501 53 b 875 247 790 53 875 118 l 875 303 "},"Ｄ":{"ha":0,"x_min":0,"x_max":0,"o":"m 164 1024 l 669 1024 b 1154 436 971 1024 1154 790 b 669 -151 1154 82 971 -151 l 164 -151 m 189 443 b 657 -122 429 443 657 185 b 1125 444 657 185 885 444 b 657 1013 885 444 657 706 b 189 443 657 706 429 443 "},"Ｅ":{"ha":0,"x_min":0,"x_max":0,"o":"m 243 -151 l 243 1024 l 1047 1024 l 1047 801 l 521 801 l 521 558 l 1033 558 l 1033 333 l 521 333 l 521 43 b 1047 126 726 43 879 67 l 1047 -151 "},"Ｆ":{"ha":0,"x_min":0,"x_max":0,"o":"m 1049 801 l 547 801 l 547 504 l 1014 504 l 1014 275 l 547 275 l 547 -151 l 269 -151 l 269 1024 l 1049 1024 "},"Ｇ":{"ha":0,"x_min":0,"x_max":0,"o":"m 1167 233 b 646 -169 1167 -15 961 -169 b 125 261 344 -169 125 -1 l 125 610 b 646 1040 125 872 344 1040 b 1146 651 947 1040 1146 889 l 1146 596 l 868 596 l 868 638 b 646 818 868 753 790 818 b 403 596 501 818 403 739 l 403 275 b 646 53 403 132 501 53 b 900 247 801 53 900 118 l 900 272 l 629 272 l 629 481 l 1167 481 "},"Ｈ":{"ha":0,"x_min":0,"x_max":0,"o":"m 851 -151 l 851 331 l 440 331 l 440 -151 l 163 -151 l 163 1024 l 440 1024 l 440 553 l 851 553 l 851 1024 l 1129 1024 l 1129 -151 "},"Ｉ":{"ha":0,"x_min":0,"x_max":0,"o":"m 785 -151 l 507 -151 l 507 1024 l 785 1024 "},"Ｊ":{"ha":0,"x_min":0,"x_max":0,"o":"m 500 200 b 639 74 500 113 557 74 b 778 218 729 74 778 131 l 778 1024 l 1056 1024 l 1056 226 b 639 -169 1056 17 903 -169 b 236 200 375 -169 236 -3 "},"Ｋ":{"ha":0,"x_min":0,"x_max":0,"o":"m 147 1024 l 425 1024 l 425 572 l 783 1024 l 1089 1024 l 711 550 l 1144 -151 l 839 -151 l 544 342 l 425 192 l 425 -151 l 147 -151 "},"Ｌ":{"ha":0,"x_min":0,"x_max":0,"o":"m 275 1024 l 553 1024 l 553 47 b 1043 133 725 50 910 72 l 1043 -151 l 275 -151 "},"Ｍ":{"ha":0,"x_min":0,"x_max":0,"o":"m 896 1024 l 1231 1024 l 1231 -151 l 971 -151 l 971 333 b 990 618 971 406 982 532 l 763 -124 l 556 -124 l 328 618 b 347 333 336 532 347 406 l 347 -151 l 88 -151 l 88 1024 l 422 1024 l 619 400 b 658 211 636 336 649 274 b 699 400 669 274 681 336 "},"Ｎ":{"ha":0,"x_min":0,"x_max":0,"o":"m 857 -151 l 511 428 b 425 561 482 476 460 514 b 433 372 431 496 433 431 l 433 -151 l 158 -151 l 158 1024 l 433 1024 l 771 472 b 865 286 806 415 839 354 b 857 483 857 350 857 418 l 857 1024 l 1132 1024 l 1132 -151 "},"Ｏ":{"ha":0,"x_min":0,"x_max":0,"o":"m 646 1040 b 1167 610 961 1040 1167 872 l 1167 261 b 646 -169 1167 -1 961 -169 b 125 261 331 -169 125 -1 l 125 610 b 646 1040 125 872 331 1040 m 164 436 b 646 -136 404 436 646 171 b 1128 438 646 171 888 438 b 646 1011 888 438 646 704 b 164 436 646 704 404 436 "},"Ｐ":{"ha":0,"x_min":0,"x_max":0,"o":"m 172 -151 l 172 1024 l 693 1024 b 1119 604 950 1024 1119 851 b 693 200 1119 358 936 200 l 450 200 l 450 -151 m 640 979 b 269 613 640 775 450 619 b 640 246 450 604 640 436 b 1011 614 640 436 831 606 b 640 979 831 621 640 775 "},"Ｑ":{"ha":0,"x_min":0,"x_max":0,"o":"m 646 1042 b 1167 611 961 1042 1167 874 l 1167 275 b 796 -140 1167 57 1024 -94 b 958 -203 806 -171 847 -203 l 1097 -203 l 1097 -425 l 1000 -425 b 515 -144 758 -425 528 -361 b 125 275 275 -104 125 50 l 125 611 b 646 1042 125 874 331 1042 m 164 443 b 646 -122 404 443 646 185 b 1128 444 646 185 888 444 b 646 1013 888 444 646 706 b 164 443 646 706 404 443 "},"Ｒ":{"ha":0,"x_min":0,"x_max":0,"o":"m 149 -151 l 149 1024 l 669 1024 b 1094 618 926 1024 1094 865 b 885 272 1094 453 1013 333 l 1143 -151 l 838 -151 l 606 228 l 426 228 l 426 -151 m 617 979 b 246 626 617 775 426 633 b 617 274 426 618 617 464 b 988 628 617 464 807 619 b 617 979 807 635 617 775 "},"Ｓ":{"ha":0,"x_min":0,"x_max":0,"o":"m 654 -169 b 171 217 376 -169 171 -24 l 453 217 b 657 60 453 124 544 60 b 825 176 753 60 825 115 b 699 290 825 228 756 267 l 413 408 b 213 701 290 460 213 544 b 657 1042 213 908 403 1042 b 1075 688 888 1042 1075 899 l 814 688 b 657 814 814 758 739 814 b 510 714 581 814 510 774 b 643 600 510 657 553 639 l 925 483 b 1121 204 1039 435 1121 353 b 654 -169 1121 18 938 -169 "},"Ｔ":{"ha":0,"x_min":0,"x_max":0,"o":"m 785 -151 l 507 -151 l 507 801 l 164 801 l 164 1024 l 1128 1024 l 1128 801 l 785 801 "},"Ｕ":{"ha":0,"x_min":0,"x_max":0,"o":"m 1132 1024 l 1132 317 b 646 -169 1132 47 961 -169 b 160 317 331 -169 160 47 l 160 1024 l 438 1024 l 438 317 b 646 53 438 151 514 53 b 854 317 778 53 854 151 l 854 1024 "},"Ｖ":{"ha":0,"x_min":0,"x_max":0,"o":"m 790 -151 l 501 -151 l 79 1024 l 360 1024 l 567 443 b 646 167 601 346 619 268 b 725 443 672 268 690 347 l 932 1024 l 1213 1024 "},"Ｗ":{"ha":0,"x_min":0,"x_max":0,"o":"m 1082 -151 l 753 -151 l 656 483 b 644 556 651 508 647 532 l 635 483 l 539 -151 l 210 -151 l 0 1024 l 256 1024 l 353 413 b 394 135 368 319 381 228 b 432 411 406 226 418 319 l 525 1024 l 765 1024 l 860 411 b 897 135 872 319 886 226 l 938 413 l 1035 1024 l 1292 1024 "},"Ｘ":{"ha":0,"x_min":0,"x_max":0,"o":"m 429 1024 l 644 660 l 860 1024 l 1174 1024 l 815 440 l 1178 -151 l 864 -151 l 644 221 l 426 -151 l 113 -151 l 475 440 l 115 1024 "},"Ｙ":{"ha":0,"x_min":0,"x_max":0,"o":"m 507 -151 l 507 306 l 90 1024 l 404 1024 l 646 572 l 888 1024 l 1201 1024 l 785 306 l 785 -151 "},"Ｚ":{"ha":0,"x_min":0,"x_max":0,"o":"m 211 29 l 760 801 l 225 801 l 225 1024 l 1088 1024 l 1088 843 l 536 36 b 1094 126 721 36 951 54 l 1094 -151 l 211 -151 "},"［":{"ha":0,"x_min":0,"x_max":0,"o":"m 896 1156 l 1285 1156 l 1285 1003 l 1104 1003 l 1104 -181 l 1285 -181 l 1285 -333 l 896 -333 "},"￦":{"ha":0,"x_min":0,"x_max":0,"o":"m 1213 575 l 1285 575 l 1285 479 l 1194 479 l 1078 -144 l 750 -144 l 656 460 b 653 479 654 465 653 472 l 638 479 b 635 460 636 472 635 465 l 539 -144 l 211 -144 l 96 479 l 7 479 l 7 575 l 78 575 l 4 972 l 258 972 l 324 575 l 463 575 l 526 972 l 764 972 l 826 575 l 965 575 l 1032 972 l 1286 972 m 394 128 b 433 390 406 215 419 303 l 447 479 l 339 479 l 354 392 b 394 128 369 303 382 217 m 935 392 l 949 479 l 842 479 l 857 390 b 894 128 871 303 883 215 "},"］":{"ha":0,"x_min":0,"x_max":0,"o":"m 396 -333 l 7 -333 l 7 -181 l 188 -181 l 188 1003 l 7 1003 l 7 1156 l 396 1156 "},"＾":{"ha":0,"x_min":0,"x_max":0,"o":"m 1039 810 l 810 810 l 646 999 l 482 810 l 253 810 l 518 1210 l 774 1210 "},"＿":{"ha":0,"x_min":0,"x_max":0,"o":"m 215 -168 l 1075 -168 l 1075 -325 l 215 -325 "},"｀":{"ha":0,"x_min":0,"x_max":0,"o":"m 410 985 l 600 1174 l 881 839 l 743 703 "},"ａ":{"ha":0,"x_min":0,"x_max":0,"o":"m 556 -169 b 214 86 367 -169 214 -81 b 597 400 214 261 314 368 l 806 424 l 806 443 b 653 539 806 513 744 539 b 514 457 564 539 514 504 l 514 443 l 242 443 l 242 471 b 653 739 242 621 401 739 b 1078 443 893 739 1078 615 l 1078 -151 l 819 -151 l 819 -101 b 556 -169 768 -139 663 -169 m 639 363 b 382 119 632 232 513 125 b 639 -126 515 114 639 0 b 894 121 639 0 761 115 b 639 363 765 126 644 232 "},"ｂ":{"ha":0,"x_min":0,"x_max":0,"o":"m 472 1024 l 472 725 l 679 725 b 1092 294 936 725 1092 540 b 679 -151 1092 47 950 -151 l 200 -151 l 200 1024 m 654 679 b 307 286 649 431 546 293 b 654 -108 546 279 649 150 b 1001 285 658 150 761 278 b 654 679 761 292 658 431 "},"ｃ":{"ha":0,"x_min":0,"x_max":0,"o":"m 1085 224 l 1085 168 b 646 -169 1085 -4 936 -169 b 207 210 383 -169 207 -21 l 207 365 b 646 744 207 596 383 744 b 1085 407 922 744 1085 579 l 1085 365 l 813 365 l 813 393 b 646 531 813 463 749 531 b 479 351 543 531 479 451 l 479 224 b 646 44 479 124 543 44 b 813 182 749 44 813 113 l 813 224 "},"ｄ":{"ha":0,"x_min":0,"x_max":0,"o":"m 1092 1024 l 1092 -151 l 613 -151 b 200 294 342 -151 200 47 b 613 725 200 540 356 725 l 819 725 l 819 1024 m 638 -129 b 985 286 638 143 739 279 b 638 679 744 293 642 431 b 290 285 632 431 529 292 b 638 -129 536 278 638 143 "},"ｅ":{"ha":0,"x_min":0,"x_max":0,"o":"m 472 185 b 646 33 472 85 554 33 b 806 101 746 33 806 57 l 806 128 l 1078 128 l 1078 88 b 646 -171 1078 -60 894 -171 b 200 199 392 -171 200 -18 l 200 365 b 646 744 200 596 392 744 b 1092 365 900 744 1092 596 l 1092 190 l 472 190 m 660 679 b 364 465 651 525 496 468 b 660 239 500 461 660 393 b 943 467 660 393 808 463 b 660 679 813 469 667 525 "},"ｆ":{"ha":0,"x_min":0,"x_max":0,"o":"m 924 897 l 856 897 b 753 776 794 897 753 865 l 753 731 l 931 731 l 931 508 l 753 508 l 753 -151 l 481 -151 l 481 508 l 361 508 l 361 731 l 481 731 l 481 768 b 815 1119 481 957 565 1119 l 924 1119 "},"ｇ":{"ha":0,"x_min":0,"x_max":0,"o":"m 646 744 b 1106 365 914 744 1106 582 l 1106 -165 b 653 -489 1106 -337 907 -489 b 214 -193 388 -489 214 -354 l 214 -158 l 486 -158 l 486 -179 b 653 -275 486 -237 550 -275 b 833 -151 758 -275 833 -221 l 833 -97 b 646 -128 799 -121 699 -128 b 186 238 392 -128 186 35 l 186 365 b 646 744 186 582 378 744 m 646 689 b 299 308 640 431 538 314 b 646 -93 544 301 646 168 b 993 310 646 168 747 303 b 646 689 753 315 650 431 "},"ｈ":{"ha":0,"x_min":0,"x_max":0,"o":"m 669 715 b 1053 406 914 758 1053 661 l 1053 -151 l 781 -151 l 781 378 b 628 501 781 489 728 525 l 511 474 l 511 -151 l 239 -151 l 239 1024 l 511 1024 l 511 688 l 669 715 "},"ｉ":{"ha":0,"x_min":0,"x_max":0,"o":"m 646 817 b 496 969 557 817 496 886 b 646 1125 496 1056 557 1125 b 796 969 733 1125 796 1056 b 646 817 796 886 733 817 m 510 714 l 782 714 l 782 -151 l 510 -151 "},"ｊ":{"ha":0,"x_min":0,"x_max":0,"o":"m 724 817 b 574 969 635 817 574 886 b 724 1125 574 1056 635 1125 b 874 969 811 1125 874 1056 b 724 817 874 886 811 817 m 418 -267 l 481 -267 b 588 -137 547 -267 588 -228 l 588 714 l 860 714 l 860 -118 b 539 -489 860 -318 792 -489 l 418 -489 "},"ｋ":{"ha":0,"x_min":0,"x_max":0,"o":"m 471 438 l 750 725 l 1056 725 l 711 367 l 1092 -151 l 786 -151 l 543 192 l 471 115 l 471 -151 l 199 -151 l 199 1024 l 471 1024 "},"ｌ":{"ha":0,"x_min":0,"x_max":0,"o":"m 449 1024 l 721 1024 l 721 113 b 786 53 721 64 747 53 l 842 53 l 842 -169 l 769 -169 b 449 118 544 -169 449 -54 "},"ｍ":{"ha":0,"x_min":0,"x_max":0,"o":"m 381 710 b 696 651 517 743 626 722 b 878 714 756 679 822 703 b 1303 400 1135 763 1303 656 l 1303 -151 l 1031 -151 l 1031 372 b 871 496 1031 483 971 521 l 776 471 b 782 400 779 449 782 425 l 782 -151 l 510 -151 l 510 372 b 357 497 510 483 456 526 l 261 469 l 261 -151 l -11 -151 l -11 725 l 261 725 l 261 679 "},"ｎ":{"ha":0,"x_min":0,"x_max":0,"o":"m 669 714 b 1053 400 914 761 1053 656 l 1053 -151 l 781 -151 l 781 372 b 628 500 781 483 728 526 l 511 469 l 511 -151 l 239 -151 l 239 725 l 511 725 l 511 683 l 669 714 "},"ｏ":{"ha":0,"x_min":0,"x_max":0,"o":"m 646 744 b 1099 365 928 744 1099 568 l 1099 208 b 646 -171 1099 -8 928 -171 b 193 208 364 -171 193 -8 l 193 365 b 646 744 193 568 364 744 m 646 682 b 299 288 640 424 538 293 b 646 -107 538 281 640 140 b 993 289 650 142 753 282 b 646 682 753 294 650 424 "},"ｐ":{"ha":0,"x_min":0,"x_max":0,"o":"m 200 -490 l 200 725 l 679 725 b 1092 279 950 725 1092 526 b 679 -151 1092 33 936 -151 l 472 -151 l 472 -490 m 654 681 b 307 288 649 422 546 293 b 654 -108 546 281 649 140 b 1001 289 658 140 761 282 b 654 681 761 294 658 422 "},"ｑ":{"ha":0,"x_min":0,"x_max":0,"o":"m 819 -490 l 819 -151 l 613 -151 b 200 279 356 -151 200 33 b 613 725 200 526 342 725 l 1092 725 l 1092 -490 m 638 -108 b 985 288 642 140 744 281 b 638 681 744 293 642 422 b 290 289 632 422 529 294 b 638 -108 529 282 632 140 "},"ｒ":{"ha":0,"x_min":0,"x_max":0,"o":"m 646 572 b 864 725 676 651 747 725 l 918 725 l 918 489 l 882 489 b 646 250 764 489 669 390 l 646 -151 l 374 -151 l 374 725 l 646 725 "},"ｓ":{"ha":0,"x_min":0,"x_max":0,"o":"m 661 -175 b 257 146 392 -164 235 -28 l 507 146 b 668 36 493 81 589 39 b 815 106 760 33 815 67 b 735 167 815 133 778 151 l 490 247 b 289 482 365 289 289 369 b 676 744 289 657 467 744 b 1035 469 888 744 1063 624 l 799 469 b 675 546 803 525 736 546 b 561 501 613 546 561 528 b 631 442 561 476 583 461 l 907 343 b 1089 107 1015 304 1097 236 b 661 -175 1078 -60 906 -185 "},"ｔ":{"ha":0,"x_min":0,"x_max":0,"o":"m 928 -151 l 807 -151 b 486 219 554 -151 486 19 l 486 501 l 364 501 l 364 724 l 486 724 l 486 1025 l 758 1025 l 758 724 l 928 724 l 928 501 l 758 501 l 758 200 b 865 71 758 110 799 71 l 928 71 "},"ｕ":{"ha":0,"x_min":0,"x_max":0,"o":"m 622 -142 b 239 172 378 -189 239 -83 l 239 725 l 511 725 l 511 200 b 664 72 511 89 564 46 l 781 103 l 781 725 l 1053 725 l 1053 -151 l 781 -151 l 781 -111 "},"ｖ":{"ha":0,"x_min":0,"x_max":0,"o":"m 833 -151 l 458 -151 l 167 725 l 450 725 l 582 315 b 646 103 601 247 626 172 b 710 315 664 172 689 247 l 842 725 l 1125 725 "},"ｗ":{"ha":0,"x_min":0,"x_max":0,"o":"m 1110 -151 l 757 -151 l 664 274 b 646 361 658 299 651 329 b 629 274 640 329 635 299 l 536 -151 l 183 -151 l -10 725 l 264 725 l 343 314 b 388 63 358 229 374 147 l 521 725 l 772 725 l 906 63 b 950 314 919 147 935 229 l 1029 725 l 1303 725 "},"ｘ":{"ha":0,"x_min":0,"x_max":0,"o":"m 492 726 l 644 493 l 799 726 l 1101 726 l 803 293 l 1110 -151 l 808 -151 l 644 103 l 482 -151 l 181 -151 l 486 293 l 189 726 "},"ｙ":{"ha":0,"x_min":0,"x_max":0,"o":"m 500 -153 l 165 726 l 451 726 l 638 161 l 840 726 l 1126 726 l 624 -490 l 360 -490 "},"ｚ":{"ha":0,"x_min":0,"x_max":0,"o":"m 274 29 l 663 504 l 308 504 l 308 726 l 997 726 l 997 546 l 586 39 b 1018 126 742 46 903 68 l 1018 -151 l 274 -151 "},"｛":{"ha":0,"x_min":0,"x_max":0,"o":"m 1165 -333 b 932 -101 1018 -333 931 -257 l 933 196 b 794 329 933 260 911 326 l 794 493 b 933 626 911 496 933 563 l 932 922 b 1165 1156 931 1079 1018 1156 l 1285 1156 l 1285 1003 l 1253 1003 b 1160 888 1192 1003 1160 965 l 1160 628 b 1015 410 1160 490 1108 433 b 1160 193 1108 389 1160 331 l 1160 -65 b 1253 -181 1160 -143 1192 -181 l 1285 -181 l 1285 -333 "},"｜":{"ha":0,"x_min":0,"x_max":0,"o":"m 556 1222 l 736 1222 l 736 -489 l 556 -489 "},"｝":{"ha":0,"x_min":0,"x_max":0,"o":"m 7 -333 l 7 -181 l 39 -181 b 132 -65 100 -181 132 -143 l 132 193 b 275 410 132 331 183 389 b 132 628 183 433 132 490 l 132 888 b 39 1003 132 965 100 1003 l 7 1003 l 7 1156 l 126 1156 b 360 922 274 1156 361 1079 l 358 626 b 497 493 358 563 381 496 l 497 329 b 358 196 381 326 358 260 l 360 -101 b 126 -333 361 -257 274 -333 "},"‾":{"ha":0,"x_min":0,"x_max":0,"o":"m 1340 1111 l 1340 1042 l -49 1042 l -49 1111 "},"￣":{"ha":0,"x_min":0,"x_max":0,"o":"m -49 1111 l -49 1042 l 1340 1042 l 1340 1111 "},"ㄱ":{"ha":0,"x_min":0,"x_max":0,"o":"m 656 29 b 751 600 714 246 742 372 l 204 600 l 204 829 l 1086 829 b 989 29 1076 549 1063 297 "},"ㄲ":{"ha":0,"x_min":0,"x_max":0,"o":"m 238 43 b 328 600 297 260 318 372 l 185 600 l 185 829 l 646 829 b 557 43 636 549 629 311 m 707 43 b 789 600 758 260 788 372 l 686 600 l 686 829 l 1107 829 b 1025 43 1106 549 1090 311 "},"ㄳ":{"ha":0,"x_min":0,"x_max":0,"o":"m 319 57 l 319 586 l 139 586 l 139 829 l 597 829 l 597 57 m 692 829 l 1075 829 l 1164 57 l 933 57 l 883 560 l 833 57 l 614 57 "},"ㄴ":{"ha":0,"x_min":0,"x_max":0,"o":"m 197 829 l 515 829 l 515 286 b 1094 313 746 286 913 292 l 1094 57 l 197 57 "},"ㄵ":{"ha":0,"x_min":0,"x_max":0,"o":"m 394 253 b 579 289 460 253 517 263 l 579 57 l 117 57 l 117 829 l 394 829 m 574 829 l 1176 829 l 1176 607 l 1103 607 l 1160 57 l 915 57 l 875 603 l 835 57 l 590 57 l 647 607 l 574 607 "},"ㄶ":{"ha":0,"x_min":0,"x_max":0,"o":"m 1051 843 l 1051 760 l 1194 760 l 1194 565 l 617 565 l 617 760 l 760 760 l 760 843 m 389 267 b 590 303 454 267 528 276 l 590 57 l 111 57 l 111 828 l 389 828 m 908 40 b 626 228 751 40 626 114 l 626 371 b 908 551 626 485 751 551 b 1189 371 1065 551 1189 485 l 1189 228 b 908 40 1189 114 1065 40 m 1128 296 b 908 482 1029 297 914 315 b 689 296 901 315 786 297 b 908 110 786 293 901 275 b 1128 296 914 275 1029 293 "},"ㄷ":{"ha":0,"x_min":0,"x_max":0,"o":"m 197 829 l 1081 829 l 1081 600 l 515 600 l 515 286 b 1094 313 746 286 913 292 l 1094 57 l 197 57 "},"ㄸ":{"ha":0,"x_min":0,"x_max":0,"o":"m 168 829 l 633 829 l 633 600 l 469 600 l 469 286 b 633 304 510 286 594 292 l 633 57 l 168 57 m 675 829 l 1124 829 l 1124 600 l 976 600 l 976 286 b 1124 304 1017 286 1086 292 l 1124 57 l 675 57 "},"ㄹ":{"ha":0,"x_min":0,"x_max":0,"o":"m 197 547 l 750 547 l 750 628 l 197 628 l 197 843 l 1068 843 l 1068 350 l 515 350 l 515 258 b 1094 285 746 258 913 264 l 1094 43 l 197 43 "},"ㄺ":{"ha":0,"x_min":0,"x_max":0,"o":"m 882 51 l 882 614 l 674 614 l 674 829 l 1160 829 l 1160 51 m 132 829 l 639 829 l 639 428 b 396 354 564 383 510 357 l 396 263 b 694 361 536 263 608 301 l 694 51 l 132 51 l 132 529 l 375 529 l 375 621 l 132 621 "},"ㄻ":{"ha":0,"x_min":0,"x_max":0,"o":"m 679 829 l 1160 829 l 1160 51 l 679 51 m 132 829 l 646 829 l 646 426 b 396 353 571 382 510 356 l 396 261 b 646 333 510 261 571 282 l 646 51 l 132 51 l 132 529 l 382 529 l 382 621 l 132 621 m 693 446 b 919 93 860 446 917 258 b 1146 447 922 258 979 447 b 919 788 979 447 922 622 b 693 446 917 622 860 446 "},"ㄼ":{"ha":0,"x_min":0,"x_max":0,"o":"m 1201 829 l 1201 51 l 679 51 l 679 829 l 915 829 l 915 690 l 965 690 l 965 829 m 132 829 l 646 829 l 646 426 b 396 353 571 382 510 356 l 396 261 b 646 333 510 261 571 282 l 646 51 l 132 51 l 132 529 l 382 529 l 382 621 l 132 621 m 940 638 b 719 376 938 510 914 383 b 940 104 914 369 938 232 b 1161 378 943 232 967 369 b 940 638 967 385 943 510 "},"ㄽ":{"ha":0,"x_min":0,"x_max":0,"o":"m 725 829 l 1100 829 l 1197 51 l 954 51 l 913 560 l 871 51 l 628 51 m 132 829 l 618 829 l 618 413 b 396 353 543 368 482 356 l 396 261 b 618 318 482 261 543 267 l 618 51 l 132 51 l 132 529 l 354 529 l 354 621 l 132 621 "},"ㄾ":{"ha":0,"x_min":0,"x_max":0,"o":"m 132 829 l 639 829 l 639 426 b 396 353 564 382 510 356 l 396 261 b 639 333 510 261 564 282 l 639 51 l 132 51 l 132 529 l 375 529 l 375 621 l 132 621 m 674 51 l 674 829 l 1160 829 l 1160 621 l 938 621 l 938 529 l 1160 529 l 1160 413 b 938 346 1085 368 1051 349 l 938 261 b 1160 333 1010 261 1085 282 l 1160 51 "},"ㄿ":{"ha":0,"x_min":0,"x_max":0,"o":"m 679 313 l 733 313 l 733 568 l 679 568 l 679 829 l 1201 829 l 1201 568 l 1147 568 l 1147 313 l 1201 313 l 1201 50 l 679 50 m 132 829 l 646 829 l 646 426 b 396 353 571 382 510 356 l 396 261 b 646 333 510 261 571 282 l 646 51 l 132 51 l 132 529 l 382 529 l 382 621 l 132 621 m 750 440 b 940 89 850 440 936 261 b 1131 440 944 261 1031 440 b 940 794 1031 440 944 621 b 750 440 936 621 850 440 "},"ㅀ":{"ha":0,"x_min":0,"x_max":0,"o":"m 1079 843 l 1079 760 l 1222 760 l 1222 565 l 644 565 l 644 760 l 788 760 l 788 843 m 132 829 l 618 829 l 618 413 b 396 353 543 368 482 356 l 396 261 b 618 319 482 261 543 268 l 618 51 l 132 51 l 132 529 l 354 529 l 354 621 l 132 621 m 936 40 b 654 228 779 40 654 114 l 654 371 b 936 551 654 485 779 551 b 1217 371 1093 551 1217 485 l 1217 228 b 936 40 1217 114 1093 40 m 1156 296 b 936 482 1057 297 942 315 b 717 296 929 315 814 297 b 936 110 814 293 929 275 b 1156 296 942 275 1057 293 "},"ㅁ":{"ha":0,"x_min":0,"x_max":0,"o":"m 208 829 l 1083 829 l 1083 57 l 208 57 m 646 810 b 242 442 646 542 435 446 b 646 76 435 438 646 344 b 1049 443 646 344 857 438 b 646 810 857 447 646 542 "},"ㅂ":{"ha":0,"x_min":0,"x_max":0,"o":"m 208 829 l 526 829 l 526 688 l 765 688 l 765 829 l 1083 829 l 1083 57 l 208 57 m 646 658 b 296 372 639 528 494 379 b 646 85 494 364 639 217 b 994 372 653 217 797 364 b 646 658 797 379 653 528 "},"ㅃ":{"ha":0,"x_min":0,"x_max":0,"o":"m 176 829 l 439 829 l 439 650 l 522 650 l 522 829 l 769 829 l 769 650 l 853 650 l 853 829 l 1115 829 l 1115 57 l 176 57 m 646 631 b 265 358 638 500 485 365 b 646 75 490 351 646 208 b 1025 358 646 208 800 351 b 646 631 806 365 653 500 "},"ㅄ":{"ha":0,"x_min":0,"x_max":0,"o":"m 681 829 l 681 206 l 764 829 l 1139 829 l 1257 50 l 986 50 l 951 574 l 917 50 l 97 50 l 97 829 l 361 829 l 361 718 l 417 718 l 417 829 m 389 675 b 138 382 385 543 338 389 b 389 71 349 374 389 207 b 640 383 389 207 428 375 b 389 675 439 390 393 543 "},"ㅅ":{"ha":0,"x_min":0,"x_max":0,"o":"m 431 829 l 861 829 l 1165 56 l 831 56 l 646 538 l 461 56 l 126 56 "},"ㅆ":{"ha":0,"x_min":0,"x_max":0,"o":"m 258 829 l 579 829 l 644 417 l 711 829 l 1032 829 l 1172 57 l 900 57 l 842 488 l 767 57 l 524 57 l 449 488 l 390 57 l 118 57 "},"ㅇ":{"ha":0,"x_min":0,"x_max":0,"o":"m 208 524 b 646 839 208 679 343 839 b 1083 524 949 839 1083 679 l 1083 364 b 646 47 1083 208 949 47 b 208 364 343 47 208 208 m 646 810 b 242 442 646 542 435 446 b 646 76 435 438 646 344 b 1049 443 646 344 857 438 b 646 810 857 447 646 542 "},"ㅈ":{"ha":0,"x_min":0,"x_max":0,"o":"m 353 601 l 193 601 l 193 831 l 1099 831 l 1099 601 l 939 601 l 1115 57 l 789 57 l 646 585 l 503 57 l 176 57 "},"ㅉ":{"ha":0,"x_min":0,"x_max":0,"o":"m 1057 601 l 1172 57 l 900 57 l 842 442 l 767 57 l 524 57 l 449 442 l 390 57 l 118 57 l 232 601 l 143 601 l 143 831 l 1147 831 l 1147 601 m 601 601 l 644 367 l 689 601 "},"ㅊ":{"ha":0,"x_min":0,"x_max":0,"o":"m 185 793 l 482 793 l 482 906 l 817 906 l 817 793 l 1107 793 l 1107 564 l 939 564 l 1107 57 l 781 57 l 646 547 l 511 57 l 185 57 l 353 564 l 185 564 "},"ㅋ":{"ha":0,"x_min":0,"x_max":0,"o":"m 656 43 b 707 243 676 119 693 182 l 204 243 l 204 472 l 743 472 l 751 599 l 204 600 l 204 829 l 1086 829 b 989 43 1076 549 1063 311 "},"ㅌ":{"ha":0,"x_min":0,"x_max":0,"o":"m 1067 350 l 515 350 l 515 258 b 1094 285 746 258 913 264 l 1094 43 l 197 43 l 197 843 l 1082 843 l 1082 628 l 515 628 l 515 547 l 1067 547 "},"ㅍ":{"ha":0,"x_min":0,"x_max":0,"o":"m 190 829 l 1097 829 l 1097 600 l 1003 600 l 1003 286 l 1100 286 l 1097 57 l 190 57 l 190 286 l 286 286 l 286 600 l 190 600 m 644 769 b 354 443 638 596 508 450 b 644 103 513 435 644 281 b 935 443 644 281 776 435 b 644 769 781 450 650 596 "},"ㅎ":{"ha":0,"x_min":0,"x_max":0,"o":"m 182 815 l 479 815 l 479 922 l 813 922 l 813 815 l 1110 815 l 1110 600 l 182 600 m 213 318 b 646 579 213 488 392 579 b 1079 318 900 579 1079 488 l 1079 257 b 646 -4 1079 89 900 -4 b 213 257 392 -4 213 89 m 646 533 b 299 301 638 364 483 304 b 646 29 489 297 646 207 b 992 301 646 207 803 297 b 646 533 807 304 653 364 "},"ㅏ":{"ha":0,"x_min":0,"x_max":0,"o":"m 375 1024 l 653 1024 l 653 594 l 917 594 l 917 358 l 653 358 l 653 -151 l 375 -151 "},"ㅐ":{"ha":0,"x_min":0,"x_max":0,"o":"m 304 1024 l 558 1024 l 558 567 l 732 567 l 732 1024 l 986 1024 l 986 -151 l 732 -151 l 732 331 l 558 331 l 558 -151 l 304 -151 "},"ㅑ":{"ha":0,"x_min":0,"x_max":0,"o":"m 375 1024 l 653 1024 l 653 786 l 903 786 l 903 564 l 653 564 l 653 356 l 903 356 l 903 133 l 653 133 l 653 -151 l 375 -151 "},"ㅒ":{"ha":0,"x_min":0,"x_max":0,"o":"m 290 1024 l 544 1024 l 544 817 l 746 817 l 746 1024 l 1000 1024 l 1000 -151 l 746 -151 l 746 122 l 544 122 l 544 -151 l 290 -151 m 544 358 l 746 358 l 746 581 l 544 581 "},"ㅓ":{"ha":0,"x_min":0,"x_max":0,"o":"m 344 581 l 625 581 l 625 1024 l 903 1024 l 903 -151 l 625 -151 l 625 344 l 344 344 "},"ㅔ":{"ha":0,"x_min":0,"x_max":0,"o":"m 214 567 l 432 567 l 432 1024 l 686 1024 l 686 -151 l 432 -151 l 432 331 l 214 331 m 781 1024 l 1035 1024 l 1035 -151 l 781 -151 "},"ㅕ":{"ha":0,"x_min":0,"x_max":0,"o":"m 343 328 l 629 328 l 629 529 l 343 529 l 343 751 l 629 751 l 629 1024 l 907 1024 l 907 -151 l 629 -151 l 629 106 l 343 106 "},"ㅖ":{"ha":0,"x_min":0,"x_max":0,"o":"m 228 765 l 432 765 l 432 1024 l 686 1024 l 686 -151 l 432 -151 l 432 133 l 228 133 l 228 356 l 432 356 l 432 543 l 228 543 m 781 1024 l 1035 1024 l 1035 -151 l 781 -151 "},"ㅗ":{"ha":0,"x_min":0,"x_max":0,"o":"m 69 203 l 500 203 l 500 676 l 792 676 l 792 203 l 1222 203 l 1222 -12 l 69 -12 "},"ㅘ":{"ha":0,"x_min":0,"x_max":0,"o":"m 799 1024 l 1076 1024 l 1076 608 l 1271 608 l 1271 372 l 1076 372 l 1076 -151 l 799 -151 m 21 203 l 229 203 l 229 532 l 507 532 l 507 203 l 743 203 l 743 -12 l 21 -12 "},"ㅙ":{"ha":0,"x_min":0,"x_max":0,"o":"m 665 1024 l 907 1024 l 907 567 l 981 567 l 981 1024 l 1222 1024 l 1222 -151 l 981 -151 l 981 331 l 907 331 l 907 -151 l 665 -151 m 69 203 l 222 203 l 222 497 l 472 497 l 472 203 l 617 203 l 617 -12 l 69 -12 "},"ㅚ":{"ha":0,"x_min":0,"x_max":0,"o":"m 910 1024 l 1188 1024 l 1188 -151 l 910 -151 m 63 203 l 299 203 l 299 532 l 576 532 l 576 203 l 854 203 l 854 -12 l 63 -12 "},"ㅛ":{"ha":0,"x_min":0,"x_max":0,"o":"m 69 203 l 292 203 l 292 663 l 563 663 l 563 203 l 731 203 l 731 663 l 1001 663 l 1001 203 l 1222 203 l 1222 -12 l 69 -12 "},"ㅜ":{"ha":0,"x_min":0,"x_max":0,"o":"m 69 615 l 1222 615 l 1222 400 l 792 400 l 792 -12 l 500 -12 l 500 400 l 69 400 "},"ㅝ":{"ha":0,"x_min":0,"x_max":0,"o":"m 639 218 l 944 218 l 944 1024 l 1222 1024 l 1222 -151 l 944 -151 l 944 3 l 639 3 m 69 543 l 889 543 l 889 328 l 590 328 l 590 -137 l 299 -137 l 299 328 l 69 328 "},"ㅞ":{"ha":0,"x_min":0,"x_max":0,"o":"m 493 232 l 674 232 l 674 1024 l 915 1024 l 915 -151 l 674 -151 l 674 17 l 493 17 m 981 1024 l 1222 1024 l 1222 -151 l 981 -151 m 69 543 l 625 543 l 625 328 l 451 328 l 451 -137 l 201 -137 l 201 328 l 69 328 "},"ㅟ":{"ha":0,"x_min":0,"x_max":0,"o":"m 944 1024 l 1222 1024 l 1222 -151 l 944 -151 m 69 647 l 889 647 l 889 432 l 618 432 l 618 -12 l 326 -12 l 326 432 l 69 432 "},"ㅠ":{"ha":0,"x_min":0,"x_max":0,"o":"m 764 400 l 528 400 l 528 -12 l 250 -12 l 250 400 l 69 400 l 69 615 l 1222 615 l 1222 400 l 1042 400 l 1042 -12 l 764 -12 "},"ㅡ":{"ha":0,"x_min":0,"x_max":0,"o":"m 69 481 l 1222 481 l 1222 265 l 69 265 "},"ㅢ":{"ha":0,"x_min":0,"x_max":0,"o":"m 951 1024 l 1229 1024 l 1229 -151 l 951 -151 m 63 203 l 896 203 l 896 -12 l 63 -12 "},"ㅣ":{"ha":0,"x_min":0,"x_max":0,"o":"m 507 1024 l 785 1024 l 785 -151 l 507 -151 "},"ㅥ":{"ha":0,"x_min":0,"x_max":0,"o":"m 168 829 l 469 829 l 469 286 b 633 304 510 286 594 292 l 633 57 l 168 57 m 675 829 l 976 829 l 976 286 b 1124 304 1017 286 1086 292 l 1124 57 l 675 57 "},"ㅦ":{"ha":0,"x_min":0,"x_max":0,"o":"m 675 829 l 1124 829 l 1124 600 l 976 600 l 976 286 b 1124 304 1017 286 1086 292 l 1124 57 l 675 57 m 168 829 l 469 829 l 469 286 b 633 304 510 286 594 292 l 633 57 l 168 57 "},"ㅧ":{"ha":0,"x_min":0,"x_max":0,"o":"m 168 829 l 469 829 l 469 286 b 633 304 510 286 594 292 l 633 101 l 725 829 l 1100 829 l 1197 57 l 954 57 l 913 560 l 871 57 l 168 57 "},"ㅨ":{"ha":0,"x_min":0,"x_max":0,"o":"m 168 829 l 469 829 l 469 286 b 633 304 510 286 594 292 l 633 258 l 767 829 l 1058 829 l 1239 57 l 168 57 m 913 665 b 692 404 910 538 886 411 b 913 132 886 397 910 260 b 1133 406 915 260 939 397 b 913 665 939 413 915 538 "},"ㅩ":{"ha":0,"x_min":0,"x_max":0,"o":"m 642 614 l 494 614 l 494 829 l 838 829 l 838 194 l 893 829 l 1158 829 l 1226 51 l 1056 51 l 1025 560 l 996 51 l 642 51 m 132 829 l 475 829 l 475 413 b 318 353 422 368 379 356 l 318 261 b 517 318 379 261 464 267 l 517 51 l 132 51 l 132 529 l 289 529 l 289 621 l 132 621 "},"ㅪ":{"ha":0,"x_min":0,"x_max":0,"o":"m 118 829 l 632 829 l 632 426 b 382 353 557 382 496 356 l 382 261 b 632 333 496 261 557 282 l 632 51 l 118 51 l 118 529 l 368 529 l 368 621 l 118 621 m 689 829 l 1179 829 l 1179 600 l 990 600 l 990 286 b 1179 304 1031 286 1142 292 l 1179 57 l 689 57 "},"ㅫ":{"ha":0,"x_min":0,"x_max":0,"o":"m 843 829 l 843 303 l 888 829 l 1136 829 l 1201 57 l 1040 57 l 1013 560 l 985 57 l 843 57 l 843 51 l 496 51 l 496 829 l 653 829 l 653 690 l 686 690 l 686 829 m 132 829 l 474 829 l 474 426 b 307 353 424 382 383 356 l 307 261 b 474 333 383 261 424 282 l 474 51 l 132 51 l 132 529 l 299 529 l 299 621 l 132 621 m 669 638 b 524 376 668 510 653 383 b 669 104 653 369 668 232 b 817 378 672 232 688 369 b 669 638 688 385 672 510 "},"ㅬ":{"ha":0,"x_min":0,"x_max":0,"o":"m 146 829 l 660 829 l 660 429 b 410 356 585 385 524 358 l 410 265 b 650 331 519 265 579 283 l 767 829 l 1058 829 l 1239 57 l 146 57 l 146 532 l 396 532 l 396 622 l 146 622 m 913 665 b 692 404 910 538 886 411 b 913 132 886 397 910 260 b 1133 406 915 260 939 397 b 913 665 939 413 915 538 "},"ㅭ":{"ha":0,"x_min":0,"x_max":0,"o":"m 132 829 l 646 829 l 646 429 b 396 356 571 385 510 358 l 396 265 b 646 338 510 265 571 286 l 646 57 l 132 57 l 132 532 l 382 532 l 382 622 l 132 622 m 1215 622 l 688 622 l 688 829 l 1215 829 m 938 572 b 1211 299 1093 572 1211 458 b 938 24 1211 138 1093 24 b 664 299 782 24 664 138 b 938 572 664 458 782 572 m 938 497 b 717 299 935 400 911 304 b 938 93 911 294 935 190 b 1158 300 940 190 964 294 b 938 497 964 306 940 400 "},"ㅮ":{"ha":0,"x_min":0,"x_max":0,"o":"m 1201 829 l 1201 51 l 679 51 l 679 829 l 915 829 l 915 690 l 965 690 l 965 829 m 115 829 l 628 829 l 628 51 l 115 51 m 131 446 b 372 93 308 446 368 258 b 613 447 375 258 435 447 b 372 788 435 447 375 622 b 131 446 368 622 308 446 m 940 638 b 719 376 938 510 914 383 b 940 104 914 369 938 232 b 1161 378 943 232 967 369 b 940 638 967 385 943 510 "},"ㅯ":{"ha":0,"x_min":0,"x_max":0,"o":"m 115 829 l 628 829 l 628 74 l 722 829 l 1097 829 l 1194 51 l 951 51 l 910 560 l 868 51 l 115 51 m 131 446 b 372 93 308 446 368 258 b 613 447 375 258 435 447 b 372 788 435 447 375 622 b 131 446 368 622 308 446 "},"ㅰ":{"ha":0,"x_min":0,"x_max":0,"o":"m 115 829 l 628 829 l 628 235 l 767 829 l 1058 829 l 1239 57 l 115 57 m 131 446 b 372 93 308 446 368 258 b 613 447 375 258 435 447 b 372 788 435 447 375 622 b 131 446 368 622 308 446 m 913 665 b 692 404 910 538 886 411 b 913 132 886 397 910 260 b 1133 406 915 260 939 397 b 913 665 939 413 915 538 "},"ㅱ":{"ha":0,"x_min":0,"x_max":0,"o":"m 1072 893 l 1072 406 l 222 406 l 222 893 m 260 658 b 640 424 576 658 636 535 b 1019 660 643 535 703 660 b 640 886 703 660 643 776 b 260 658 636 776 576 658 m 640 329 b 904 119 793 329 904 247 b 640 -89 904 -6 793 -89 b 375 119 486 -89 375 -6 b 640 329 375 247 486 329 m 414 122 b 640 -64 601 122 638 25 b 865 124 642 25 676 124 b 640 304 676 124 642 217 b 414 122 638 217 601 122 "},"ㅲ":{"ha":0,"x_min":0,"x_max":0,"o":"m 1165 835 l 1165 53 l 925 53 l 925 642 l 697 642 l 697 835 m 660 829 l 660 51 l 138 51 l 138 829 l 374 829 l 374 690 l 424 690 l 424 829 m 399 638 b 178 376 396 510 372 383 b 399 104 372 369 396 232 b 619 378 401 232 425 369 b 399 638 425 385 401 510 "},"ㅳ":{"ha":0,"x_min":0,"x_max":0,"o":"m 660 829 l 660 51 l 138 51 l 138 829 l 374 829 l 374 690 l 424 690 l 424 829 m 703 829 l 1151 829 l 1151 600 l 1004 600 l 1004 286 b 1151 304 1044 286 1114 292 l 1151 57 l 703 57 m 399 638 b 178 376 396 510 372 383 b 399 104 372 369 396 232 b 619 378 401 232 425 369 b 399 638 425 385 401 510 "},"ㅴ":{"ha":0,"x_min":0,"x_max":0,"o":"m 1200 831 l 1200 53 l 1028 53 l 1028 642 l 879 642 l 879 831 m 515 829 l 515 206 l 575 829 l 843 829 l 928 50 l 733 50 l 708 574 l 683 50 l 97 50 l 97 829 l 286 829 l 286 718 l 326 718 l 326 829 m 306 675 b 126 382 303 543 269 389 b 306 71 278 374 306 207 b 486 383 306 207 333 375 b 306 675 342 390 308 543 "},"ㅵ":{"ha":0,"x_min":0,"x_max":0,"o":"m 501 829 l 501 206 l 561 829 l 829 829 l 883 331 l 883 829 l 1235 829 l 1235 600 l 1119 600 l 1119 286 b 1235 304 1150 286 1206 292 l 1235 50 l 719 50 l 694 574 l 669 50 l 83 50 l 83 829 l 272 829 l 272 718 l 313 718 l 313 829 m 292 675 b 113 382 289 543 256 389 b 292 71 264 374 292 207 b 472 383 292 207 319 375 b 292 675 328 390 294 543 "},"ㅶ":{"ha":0,"x_min":0,"x_max":0,"o":"m 646 829 l 646 51 l 124 51 l 124 829 l 360 829 l 360 690 l 410 690 l 410 829 m 671 829 l 1199 829 l 1199 607 l 1135 607 l 1185 57 l 971 57 l 935 603 l 900 57 l 686 57 l 735 607 l 671 607 m 385 638 b 164 376 382 510 358 383 b 385 104 358 369 382 232 b 606 378 388 232 411 369 b 385 638 411 385 388 510 "},"ㅷ":{"ha":0,"x_min":0,"x_max":0,"o":"m 646 829 l 646 51 l 124 51 l 124 829 l 360 829 l 360 690 l 410 690 l 410 829 m 688 51 l 688 829 l 1174 829 l 1174 621 l 951 621 l 951 529 l 1174 529 l 1174 413 b 951 346 1099 368 1065 349 l 951 261 b 1174 333 1024 261 1099 282 l 1174 51 m 385 638 b 164 376 382 510 358 383 b 385 104 358 369 382 232 b 606 378 388 232 411 369 b 385 638 411 385 388 510 "},"ㅸ":{"ha":0,"x_min":0,"x_max":0,"o":"m 447 907 l 447 804 l 846 804 l 846 907 l 1071 907 l 1071 403 l 222 403 l 222 907 m 260 613 b 640 424 576 613 636 513 b 1019 613 643 513 703 613 b 640 794 703 613 643 707 b 260 613 636 707 576 613 m 640 329 b 904 119 793 329 904 247 b 640 -89 904 -6 793 -89 b 375 119 486 -89 375 -6 b 640 329 375 247 486 329 m 414 122 b 640 -64 601 122 638 25 b 865 124 642 25 676 124 b 640 304 676 124 642 217 b 414 122 638 217 601 122 "},"ㅹ":{"ha":0,"x_min":0,"x_max":0,"o":"m 447 907 l 447 804 l 536 804 l 536 907 l 761 907 l 761 804 l 846 804 l 846 907 l 1071 907 l 1071 403 l 222 403 l 222 907 m 260 613 b 640 424 576 613 636 513 b 1019 613 643 513 703 613 b 640 794 703 613 643 707 b 260 613 636 707 576 613 m 640 329 b 904 119 793 329 904 247 b 640 -89 904 -6 793 -89 b 375 119 486 -89 375 -6 b 640 329 375 247 486 329 m 414 122 b 640 -64 601 122 638 25 b 865 124 642 25 676 124 b 640 304 676 124 642 217 b 414 122 638 217 601 122 "},"ㅺ":{"ha":0,"x_min":0,"x_max":0,"o":"m 819 57 l 819 586 l 639 586 l 639 829 l 1097 829 l 1097 57 m 206 829 l 589 829 l 678 57 l 447 57 l 397 560 l 347 57 l 128 57 "},"ㅻ":{"ha":0,"x_min":0,"x_max":0,"o":"m 206 829 l 589 829 l 678 57 l 447 57 l 397 560 l 347 57 l 128 57 m 1006 253 b 1190 289 1071 253 1128 263 l 1190 57 l 728 57 l 728 829 l 1006 829 "},"ㅼ":{"ha":0,"x_min":0,"x_max":0,"o":"m 206 829 l 589 829 l 678 57 l 447 57 l 397 560 l 347 57 l 128 57 m 703 829 l 1151 829 l 1151 600 l 1004 600 l 1004 286 b 1151 304 1044 286 1114 292 l 1151 57 l 703 57 "},"ㅽ":{"ha":0,"x_min":0,"x_max":0,"o":"m 193 829 l 576 829 l 665 57 l 435 57 l 385 560 l 335 57 l 115 57 m 1201 829 l 1201 57 l 679 57 l 679 829 l 915 829 l 915 690 l 965 690 l 965 829 m 940 638 b 719 376 938 510 914 383 b 940 104 914 369 938 232 b 1161 378 943 232 967 369 b 940 638 967 385 943 510 "},"ㅾ":{"ha":0,"x_min":0,"x_max":0,"o":"m 193 829 l 576 829 l 658 114 l 710 607 l 636 607 l 636 829 l 1239 829 l 1239 607 l 1165 607 l 1222 57 l 978 57 l 938 603 l 897 57 l 435 57 l 385 560 l 335 57 l 115 57 "},"ㅿ":{"ha":0,"x_min":0,"x_max":0,"o":"m 563 829 l 729 829 l 1104 57 l 188 57 m 644 651 b 424 390 642 524 618 397 b 644 118 618 383 642 246 b 865 392 647 246 671 383 b 644 651 671 399 647 524 "},"ㆀ":{"ha":0,"x_min":0,"x_max":0,"o":"m 69 524 b 346 839 69 679 154 839 b 622 524 538 839 622 679 l 622 364 b 346 47 622 208 538 47 b 69 364 154 47 69 208 m 667 524 b 943 839 667 679 751 839 b 1219 524 1135 839 1219 679 l 1219 364 b 943 47 1219 208 1135 47 b 667 364 751 47 667 208 m 346 810 b 90 442 346 542 213 446 b 346 76 213 438 346 344 b 600 443 346 344 479 438 b 346 810 479 447 346 542 m 943 810 b 688 442 943 542 810 446 b 943 76 810 438 943 344 b 1197 443 943 344 1076 438 b 943 810 1076 447 943 542 "},"ㆁ":{"ha":0,"x_min":0,"x_max":0,"o":"m 208 460 b 479 715 208 567 293 675 l 479 922 l 813 922 l 813 715 b 1083 460 999 675 1083 567 l 1083 321 b 646 47 1083 186 949 47 b 208 321 343 47 208 186 m 646 707 b 242 389 646 475 435 392 b 646 72 435 385 646 304 b 1049 390 646 304 857 385 b 646 707 857 393 646 475 "},"ㆂ":{"ha":0,"x_min":0,"x_max":0,"o":"m 69 460 b 250 715 69 567 126 675 l 250 829 l 472 829 l 472 715 b 653 460 596 675 653 567 l 653 321 b 361 47 653 186 563 47 b 69 321 160 47 69 186 m 735 829 l 1118 829 l 1207 57 l 976 57 l 926 560 l 876 57 l 657 57 m 361 707 b 92 389 361 475 221 392 b 361 72 221 385 361 304 b 629 390 361 304 501 385 b 361 707 501 393 361 475 "},"ㆃ":{"ha":0,"x_min":0,"x_max":0,"o":"m 69 460 b 250 715 69 567 126 675 l 250 829 l 472 829 l 472 715 b 653 460 596 675 653 567 l 653 321 b 361 47 653 186 563 47 b 69 321 160 47 69 186 m 797 829 l 1071 829 l 1239 57 l 629 57 m 361 707 b 92 389 361 475 221 392 b 361 72 221 385 361 304 b 629 390 361 304 501 385 b 361 707 501 393 361 475 m 933 665 b 728 404 931 538 910 411 b 933 132 910 397 931 260 b 1140 406 936 260 958 397 b 933 665 958 413 936 538 "},"ㆄ":{"ha":0,"x_min":0,"x_max":0,"o":"m 232 893 l 1056 893 l 1056 749 l 961 749 l 961 550 l 1058 550 l 1056 406 l 232 406 l 232 550 l 328 550 l 328 749 l 232 749 m 644 856 b 354 650 638 746 508 654 b 644 435 513 644 644 547 b 935 650 644 547 776 644 b 644 856 781 654 650 746 m 640 329 b 904 119 793 329 904 247 b 640 -89 904 -6 793 -89 b 375 119 486 -89 375 -6 b 640 329 375 247 486 329 m 414 122 b 640 -64 601 122 638 25 b 865 124 642 25 676 124 b 640 304 676 124 642 217 b 414 122 638 217 601 122 "},"ㆅ":{"ha":0,"x_min":0,"x_max":0,"o":"m 83 815 l 257 815 l 257 922 l 453 922 l 453 815 l 626 815 l 626 600 l 83 600 m 667 815 l 840 815 l 840 922 l 1036 922 l 1036 815 l 1210 815 l 1210 600 l 667 600 m 101 318 b 354 579 101 488 206 579 b 608 318 503 579 608 488 l 608 257 b 354 -4 608 89 503 -4 b 101 257 206 -4 101 89 m 685 318 b 938 579 685 488 789 579 b 1192 318 1086 579 1192 488 l 1192 257 b 938 -4 1192 89 1086 -4 b 685 257 789 -4 685 89 m 354 533 b 151 301 350 364 260 304 b 354 29 263 297 354 207 b 557 301 354 207 446 297 b 354 533 449 304 358 364 m 938 533 b 735 301 933 364 843 304 b 938 29 846 297 938 207 b 1140 301 938 207 1029 297 b 938 533 1032 304 942 364 "},"ㆆ":{"ha":0,"x_min":0,"x_max":0,"o":"m 1100 892 l 1100 700 l 196 700 l 196 892 m 646 647 b 1025 322 861 647 1025 511 b 646 -3 1025 133 861 -3 b 267 322 429 -3 267 133 b 646 647 267 511 429 647 m 646 575 b 324 321 646 390 478 324 b 646 69 478 318 646 254 b 967 322 646 254 814 318 b 646 575 814 325 646 390 "},"ㆇ":{"ha":0,"x_min":0,"x_max":0,"o":"m 799 1024 l 1076 1024 l 1076 775 l 1271 775 l 1271 539 l 1076 539 l 1076 428 l 1271 428 l 1271 192 l 1076 192 l 1076 -151 l 799 -151 m 21 203 l 90 203 l 90 532 l 326 532 l 326 203 l 410 203 l 410 532 l 646 532 l 646 203 l 743 203 l 743 -12 l 21 -12 "},"ㆈ":{"ha":0,"x_min":0,"x_max":0,"o":"m 907 817 l 981 817 l 981 1024 l 1222 1024 l 1222 -151 l 981 -151 l 981 122 l 907 122 l 907 -151 l 665 -151 l 665 1024 l 907 1024 m 981 358 l 981 581 l 907 581 l 907 358 m 69 203 l 125 203 l 125 497 l 319 497 l 319 203 l 375 203 l 375 497 l 569 497 l 569 203 l 617 203 l 617 -12 l 69 -12 "},"ㆉ":{"ha":0,"x_min":0,"x_max":0,"o":"m 910 1024 l 1188 1024 l 1188 -151 l 910 -151 m 63 203 l 160 203 l 160 532 l 438 532 l 438 203 l 507 203 l 507 532 l 785 532 l 785 203 l 854 203 l 854 -12 l 63 -12 "},"ㆊ":{"ha":0,"x_min":0,"x_max":0,"o":"m 708 88 l 944 86 l 944 128 l 708 128 l 708 288 l 944 288 l 944 1024 l 1222 1024 l 1222 -151 l 944 -151 l 944 -74 l 708 -74 m 69 543 l 889 543 l 889 328 l 674 328 l 674 -137 l 438 -137 l 438 328 l 396 328 l 396 -137 l 160 -137 l 160 328 l 69 328 "},"ㆋ":{"ha":0,"x_min":0,"x_max":0,"o":"m 557 88 l 682 86 l 682 128 l 557 128 l 557 288 l 682 288 l 682 1024 l 917 1024 l 917 -151 l 682 -151 l 682 -74 l 557 -74 m 981 1024 l 1222 1024 l 1222 -151 l 981 -151 m 69 543 l 625 543 l 625 328 l 517 328 l 517 -137 l 351 -137 l 351 328 l 306 328 l 306 -137 l 138 -137 l 138 328 l 69 328 "},"ㆌ":{"ha":0,"x_min":0,"x_max":0,"o":"m 944 1024 l 1222 1024 l 1222 -151 l 944 -151 m 69 647 l 889 647 l 889 432 l 785 432 l 785 -12 l 493 -12 l 493 432 l 438 432 l 438 -12 l 146 -12 l 146 432 l 69 432 "},"ㆍ":{"ha":0,"x_min":0,"x_max":0,"o":"m 660 303 b 503 457 567 303 503 369 b 660 614 503 547 567 614 b 817 457 751 614 817 547 b 660 303 817 369 751 303 "},"ㆎ":{"ha":0,"x_min":0,"x_max":0,"o":"m 688 1024 l 965 1024 l 965 -151 l 688 -151 m 424 303 b 267 457 331 303 267 369 b 424 614 267 547 331 614 b 581 457 515 614 581 547 b 424 303 581 369 515 303 "},"ⅰ":{"ha":0,"x_min":0,"x_max":0,"o":"m 646 817 b 496 969 557 817 496 886 b 646 1125 496 1056 557 1125 b 796 969 733 1125 796 1056 b 646 817 796 886 733 817 m 510 725 l 782 725 l 782 -151 l 510 -151 "},"ⅱ":{"ha":0,"x_min":0,"x_max":0,"o":"m 410 817 b 260 969 321 817 260 886 b 410 1125 260 1056 321 1125 b 560 969 497 1125 560 1056 b 410 817 560 886 497 817 m 882 817 b 732 969 793 817 732 886 b 882 1125 732 1056 793 1125 b 1032 969 969 1125 1032 1056 b 882 817 1032 886 969 817 m 274 725 l 546 725 l 546 -151 l 274 -151 m 746 725 l 1018 725 l 1018 -151 l 746 -151 "},"ⅲ":{"ha":0,"x_min":0,"x_max":0,"o":"m 217 817 b 79 969 135 817 79 886 b 217 1125 79 1056 135 1125 b 353 969 296 1125 353 1056 b 217 817 353 886 296 817 m 647 817 b 510 969 567 817 510 886 b 647 1125 510 1056 567 1125 b 785 969 728 1125 785 1056 b 647 817 785 886 728 817 m 1078 817 b 942 969 997 817 942 886 b 1078 1125 942 1056 997 1125 b 1215 969 1158 1125 1215 1056 b 1078 817 1215 886 1158 817 m 92 725 l 340 725 l 340 -151 l 92 -151 m 524 725 l 771 725 l 771 -151 l 524 -151 m 954 725 l 1203 725 l 1203 -151 l 954 -151 "},"ⅳ":{"ha":0,"x_min":0,"x_max":0,"o":"m 271 817 b 121 969 182 817 121 886 b 271 1125 121 1056 182 1125 b 421 969 358 1125 421 1056 b 271 817 421 886 358 817 m 135 726 l 407 726 l 407 -151 l 135 -151 m 1019 -151 l 699 -151 l 449 725 l 692 725 l 803 315 b 858 103 819 247 840 172 b 913 315 874 172 894 247 l 1025 725 l 1268 725 "},"ⅴ":{"ha":0,"x_min":0,"x_max":0,"o":"m 833 -151 l 458 -151 l 167 725 l 450 725 l 582 315 b 646 103 601 247 626 172 b 710 315 664 172 689 247 l 842 725 l 1125 725 "},"ⅵ":{"ha":0,"x_min":0,"x_max":0,"o":"m 1021 817 b 871 969 933 817 871 886 b 1021 1125 871 1056 933 1125 b 1171 969 1110 1125 1171 1056 b 1021 817 1171 886 1110 817 m 885 -151 l 885 726 l 1157 726 l 1157 -151 m 267 725 l 379 315 b 433 103 397 247 418 172 b 489 315 451 172 472 247 l 600 725 l 843 725 l 593 -151 l 272 -151 l 24 725 "},"ⅶ":{"ha":0,"x_min":0,"x_max":0,"o":"m 857 817 b 732 969 785 817 732 886 b 857 1125 732 1056 785 1125 b 983 969 932 1125 983 1056 b 857 817 983 886 932 817 m 1136 817 b 1011 969 1063 817 1011 886 b 1136 1125 1011 1056 1063 1125 b 1261 969 1210 1125 1261 1056 b 1136 817 1261 886 1210 817 m 743 -151 l 743 726 l 971 726 l 971 -151 m 1022 -151 l 1022 726 l 1250 726 l 1250 -151 m 226 725 l 321 315 b 367 103 336 247 353 172 b 413 315 381 172 399 247 l 506 725 l 708 725 l 500 -151 l 232 -151 l 24 725 "},"ⅷ":{"ha":0,"x_min":0,"x_max":0,"o":"m 699 817 b 597 969 640 817 597 886 b 699 1125 597 1056 640 1125 b 800 969 758 1125 800 1056 b 699 817 800 886 758 817 m 924 817 b 822 969 864 817 822 886 b 924 1125 822 1056 864 1125 b 1025 969 983 1125 1025 1056 b 924 817 1025 886 983 817 m 1149 817 b 1047 969 1089 817 1047 886 b 1149 1125 1047 1056 1089 1125 b 1250 969 1208 1125 1250 1056 b 1149 817 1250 886 1208 817 m 606 -151 l 606 726 l 790 726 l 790 -151 m 832 -151 l 832 726 l 1017 726 l 1017 -151 m 1057 -151 l 1057 726 l 1242 726 l 1242 -151 m 188 725 l 264 315 b 301 103 276 247 290 172 b 339 315 313 172 328 247 l 414 725 l 578 725 l 410 -151 l 192 -151 l 24 725 "},"ⅸ":{"ha":0,"x_min":0,"x_max":0,"o":"m 271 817 b 121 969 182 817 121 886 b 271 1125 121 1056 182 1125 b 421 969 358 1125 421 1056 b 271 817 421 886 358 817 m 135 726 l 407 726 l 407 -151 l 135 -151 m 710 726 l 836 492 l 960 726 l 1207 726 l 964 293 l 1214 -151 l 968 -151 l 835 103 l 701 -151 l 456 -151 l 706 293 l 463 726 "},"ⅹ":{"ha":0,"x_min":0,"x_max":0,"o":"m 492 726 l 644 493 l 799 726 l 1101 726 l 803 293 l 1110 -151 l 808 -151 l 644 103 l 482 -151 l 181 -151 l 486 293 l 189 726 "},"Ⅰ":{"ha":0,"x_min":0,"x_max":0,"o":"m 785 -151 l 507 -151 l 507 1024 l 785 1024 "},"Ⅱ":{"ha":0,"x_min":0,"x_max":0,"o":"m 276 1022 l 526 1022 l 526 -151 l 276 -151 m 765 1022 l 1015 1022 l 1015 -151 l 765 -151 "},"Ⅲ":{"ha":0,"x_min":0,"x_max":0,"o":"m 60 1024 l 310 1024 l 310 -151 l 60 -151 m 521 1024 l 771 1024 l 771 -151 l 521 -151 m 982 1024 l 1232 1024 l 1232 -151 l 982 -151 "},"Ⅳ":{"ha":0,"x_min":0,"x_max":0,"o":"m 711 -151 l 442 1022 l 693 1022 l 893 111 l 900 111 l 1101 1022 l 1363 1022 l 1093 -151 m 85 -151 l 85 1022 l 335 1022 l 335 -151 "},"Ⅴ":{"ha":0,"x_min":0,"x_max":0,"o":"m 790 -151 l 501 -151 l 79 1024 l 360 1024 l 567 443 b 646 167 601 346 619 268 b 725 443 672 268 690 347 l 932 1024 l 1213 1024 "},"Ⅵ":{"ha":0,"x_min":0,"x_max":0,"o":"m -60 1022 l 201 1022 l 403 111 l 410 111 l 610 1022 l 861 1022 l 592 -151 l 210 -151 m 968 1022 l 1218 1022 l 1218 -151 l 968 -151 "},"Ⅶ":{"ha":0,"x_min":0,"x_max":0,"o":"m -25 1024 l 236 1024 l 340 113 l 347 113 l 450 1024 l 701 1024 l 529 -151 l 147 -151 m 725 1024 l 975 1024 l 975 -151 l 725 -151 m 1061 1024 l 1311 1024 l 1311 -151 l 1061 -151 "},"Ⅷ":{"ha":0,"x_min":0,"x_max":0,"o":"m -25 1024 l 181 1024 l 271 113 l 278 113 l 367 1024 l 563 1024 l 432 -151 l 119 -151 m 1100 1024 l 1294 1024 l 1294 -151 l 1100 -151 m 850 1024 l 1044 1024 l 1044 -151 l 850 -151 m 600 1024 l 794 1024 l 794 -151 l 600 -151 "},"Ⅸ":{"ha":0,"x_min":0,"x_max":0,"o":"m 63 1024 l 313 1024 l 313 -151 l 63 -151 m 629 1024 l 811 660 l 993 1024 l 1257 1024 l 954 440 l 1261 -151 l 996 -151 l 811 221 l 626 -151 l 361 -151 l 668 440 l 364 1024 "},"Ⅹ":{"ha":0,"x_min":0,"x_max":0,"o":"m 429 1024 l 644 660 l 860 1024 l 1174 1024 l 815 440 l 1178 -151 l 864 -151 l 644 221 l 426 -151 l 113 -151 l 475 440 l 115 1024 "},"Α":{"ha":150,"x_min":0,"x_max":0,"o":"m 785 68 l 390 68 l 311 -151 l 14 -151 l 450 1024 l 726 1024 l 1161 -151 l 864 -151 m 842 515 b 588 897 650 515 590 692 b 333 515 585 692 524 515 b 588 117 529 515 588 315 b 842 515 588 315 646 515 "},"Β":{"ha":82,"x_min":0,"x_max":0,"o":"m 589 1024 b 971 733 804 1024 971 931 b 831 490 971 638 910 536 b 1031 213 942 460 1031 335 b 604 -151 1031 -21 861 -151 l 69 -151 l 69 1024 m 531 986 b 181 743 522 828 356 747 b 531 501 356 739 522 669 b 881 743 539 669 706 739 b 531 986 706 747 539 828 m 531 486 b 153 183 531 294 333 188 b 531 -121 333 178 531 83 b 908 182 531 83 726 176 b 531 486 726 188 531 294 "},"Γ":{"ha":-101,"x_min":0,"x_max":0,"o":"m 133 1024 l 865 1024 l 865 796 l 408 796 l 408 -151 l 133 -151 "},"Δ":{"ha":210,"x_min":0,"x_max":0,"o":"m 60 15 l 453 1024 l 783 1024 l 1176 15 l 1176 -151 l 60 -151 m 875 81 l 622 815 l 615 815 l 356 81 "},"Ε":{"ha":-110,"x_min":0,"x_max":0,"o":"m 69 -151 l 69 1024 l 874 1024 l 874 801 l 347 801 l 347 558 l 860 558 l 860 333 l 347 333 l 347 43 b 874 126 553 43 706 67 l 874 -151 "},"Ζ":{"ha":-128,"x_min":0,"x_max":0,"o":"m 14 29 l 563 801 l 28 801 l 28 1024 l 890 1024 l 890 843 l 339 36 b 897 126 524 36 754 54 l 897 -151 l 14 -151 "},"Η":{"ha":81,"x_min":0,"x_max":0,"o":"m 758 -151 l 758 331 l 347 331 l 347 -151 l 69 -151 l 69 1024 l 347 1024 l 347 553 l 758 553 l 758 1024 l 1036 1024 l 1036 -151 "},"Θ":{"ha":114,"x_min":0,"x_max":0,"o":"m 569 1040 b 1090 610 885 1040 1090 872 l 1090 261 b 569 -169 1090 -1 885 -169 b 49 261 254 -169 49 -1 l 49 610 b 569 1040 49 872 254 1040 m 569 818 b 326 594 406 818 326 731 l 326 275 b 569 53 326 139 406 53 b 813 275 733 53 813 139 l 813 594 b 569 818 813 731 733 818 m 417 557 l 722 557 l 722 342 l 417 342 "},"Ι":{"ha":-608,"x_min":0,"x_max":0,"o":"m 347 -151 l 69 -151 l 69 1024 l 347 1024 "},"Κ":{"ha":56,"x_min":0,"x_max":0,"o":"m 69 1024 l 347 1024 l 347 572 l 706 1024 l 1011 1024 l 633 550 l 1067 -151 l 761 -151 l 467 342 l 347 192 l 347 -151 l 69 -151 "},"Λ":{"ha":-132,"x_min":0,"x_max":0,"o":"m 1119 -151 l 839 -151 l 632 429 b 553 706 597 525 579 604 b 474 429 526 604 508 526 l 267 -151 l -14 -151 l 408 1024 l 697 1024 "},"Μ":{"ha":229,"x_min":0,"x_max":0,"o":"m 878 1024 l 1213 1024 l 1213 -151 l 953 -151 l 953 333 b 972 618 953 406 964 532 l 744 -124 l 538 -124 l 310 618 b 329 333 318 532 329 406 l 329 -151 l 69 -151 l 69 1024 l 404 1024 l 601 400 b 640 211 618 336 631 274 b 681 400 651 274 663 336 "},"Ν":{"ha":88,"x_min":0,"x_max":0,"o":"m 768 -151 l 422 428 b 336 561 393 476 371 514 b 344 372 342 496 344 431 l 344 -151 l 69 -151 l 69 1024 l 344 1024 l 682 472 b 776 286 717 415 750 354 b 768 483 768 350 768 418 l 768 1024 l 1043 1024 l 1043 -151 "},"Ξ":{"ha":-8,"x_min":0,"x_max":0,"o":"m 113 1024 l 906 1024 l 906 796 l 113 796 m 157 569 l 860 569 l 860 338 l 157 338 m 94 81 l 924 81 l 924 -151 l 94 -151 "},"Ο":{"ha":114,"x_min":0,"x_max":0,"o":"m 569 1040 b 1090 610 885 1040 1090 872 l 1090 261 b 569 -169 1090 -1 885 -169 b 49 261 254 -169 49 -1 l 49 610 b 569 1040 49 872 254 1040 m 88 436 b 569 -136 328 436 569 171 b 1051 438 569 171 811 438 b 569 1011 811 438 569 704 b 88 436 569 704 328 436 "},"Π":{"ha":149,"x_min":0,"x_max":0,"o":"m 133 1024 l 1042 1024 l 1042 -151 l 767 -151 l 767 796 l 408 796 l 408 -151 l 133 -151 "},"Ρ":{"ha":33,"x_min":0,"x_max":0,"o":"m 69 -151 l 69 1024 l 590 1024 b 1017 604 847 1024 1017 851 b 590 200 1017 358 833 200 l 347 200 l 347 -151 m 538 979 b 167 613 538 775 347 619 b 538 246 347 604 538 436 b 908 614 538 436 728 606 b 538 979 728 621 538 775 "},"Σ":{"ha":-53,"x_min":0,"x_max":0,"o":"m 65 15 l 415 443 l 71 860 l 71 1024 l 864 1024 l 864 796 l 414 796 l 692 450 l 408 81 l 911 81 l 911 -151 l 65 -151 "},"Τ":{"ha":-75,"x_min":0,"x_max":0,"o":"m 614 -151 l 336 -151 l 336 801 l -7 801 l -7 1024 l 957 1024 l 957 801 l 614 801 "},"Υ":{"ha":113,"x_min":0,"x_max":0,"o":"m 443 -151 l 443 306 l 26 1024 l 340 1024 l 582 572 l 824 1024 l 1138 1024 l 721 306 l 721 -151 "},"Φ":{"ha":0,"x_min":0,"x_max":0,"o":"m 768 917 b 1224 443 1051 892 1224 721 b 768 -39 1224 164 1051 -14 l 768 -190 l 525 -190 l 525 -39 b 69 443 242 -14 69 164 b 525 917 69 721 242 892 l 525 1064 l 768 1064 m 768 169 b 964 443 894 193 964 303 b 768 710 964 582 894 686 m 525 710 b 329 443 399 686 329 582 b 525 169 329 303 399 193 "},"Χ":{"ha":40,"x_min":0,"x_max":0,"o":"m 317 1024 l 532 660 l 747 1024 l 1061 1024 l 703 440 l 1065 -151 l 751 -151 l 532 221 l 314 -151 l 0 -151 l 363 440 l 3 1024 "},"Ψ":{"ha":0,"x_min":0,"x_max":0,"o":"m 1217 1024 l 1217 728 b 781 243 1217 410 1064 265 l 781 -151 l 525 -151 l 525 243 b 89 728 243 265 89 410 l 89 1024 l 358 1024 l 358 744 b 525 461 358 550 404 476 l 525 1024 l 781 1024 l 781 461 b 946 744 900 478 946 550 l 946 1024 "},"Ω":{"ha":239,"x_min":0,"x_max":0,"o":"m 79 71 l 267 71 l 267 76 b 106 494 194 153 106 310 b 631 1046 106 814 317 1046 b 1158 494 946 1046 1158 814 b 997 76 1158 310 1069 153 l 997 71 l 1185 71 l 1185 -151 l 707 -151 l 707 47 b 876 467 824 158 876 296 b 631 810 876 660 783 810 b 388 467 479 810 388 660 b 557 47 388 296 442 158 l 557 -151 l 79 -151 "},"α":{"ha":32,"x_min":0,"x_max":0,"o":"m 415 -174 b 61 283 200 -174 61 0 b 450 749 61 575 247 749 b 688 579 547 749 631 699 l 694 579 l 722 726 l 993 726 b 878 128 947 526 878 257 b 963 49 878 68 914 49 b 1019 60 979 49 1000 53 l 1053 -142 b 894 -174 1019 -160 967 -174 b 661 -31 769 -174 696 -136 l 654 -31 b 415 -174 596 -126 517 -174 m 493 -42 b 781 286 497 172 582 281 b 493 613 582 292 497 406 b 204 285 489 406 403 290 b 493 -42 403 279 489 172 "},"β":{"ha":43,"x_min":0,"x_max":0,"o":"m 110 651 b 526 1061 110 899 239 1061 b 917 753 724 1061 917 976 b 772 507 917 638 865 565 l 772 500 b 1007 201 901 472 1007 365 b 654 -174 1007 -57 824 -174 b 367 -56 560 -174 456 -150 b 388 -462 375 -196 381 -329 l 110 -462 m 538 476 b 822 718 542 635 625 714 b 538 960 625 722 542 807 b 253 718 533 807 450 722 b 538 476 450 714 533 635 m 538 -56 b 822 199 538 111 621 194 b 538 440 625 203 542 288 b 253 197 533 288 450 201 b 538 -56 456 193 538 111 "},"γ":{"ha":-74,"x_min":0,"x_max":0,"o":"m 322 -219 b 24 660 322 -18 172 322 l 278 749 b 490 228 350 592 426 418 l 499 228 b 651 726 585 404 639 518 l 922 726 b 585 -126 872 428 811 228 l 585 -490 l 322 -490 "},"δ":{"ha":-54,"x_min":0,"x_max":0,"o":"m 807 790 b 478 860 688 829 569 860 b 406 818 428 860 406 842 b 651 618 406 758 521 713 b 904 229 808 504 904 417 b 482 -174 904 -17 744 -174 b 68 217 256 -174 68 -36 b 331 563 68 397 190 499 b 151 843 236 633 151 711 b 478 1061 151 961 254 1061 b 867 992 607 1061 750 1031 m 507 -101 b 794 244 507 125 592 239 b 507 571 596 250 511 364 b 218 243 503 364 417 249 b 507 -101 422 238 507 125 "},"ε":{"ha":-187,"x_min":0,"x_max":0,"o":"m 500 -174 b 85 100 218 -174 85 -82 b 253 306 85 215 149 279 l 253 313 b 93 494 150 342 93 425 b 475 749 93 643 206 749 b 750 700 581 749 676 735 l 750 483 b 492 538 693 519 556 538 b 361 457 413 538 361 506 b 503 386 361 408 429 386 l 628 386 l 628 207 l 475 207 b 354 128 390 207 354 185 b 528 38 354 69 413 38 b 771 88 619 38 692 53 l 771 -126 b 500 -174 693 -153 610 -174 "},"ζ":{"ha":-193,"x_min":0,"x_max":0,"o":"m 450 -482 b 394 -165 551 -347 617 -165 b 71 224 229 -165 71 -67 b 386 828 71 422 150 638 l 125 828 l 125 1025 l 783 1025 l 783 811 l 775 811 b 351 226 513 674 351 394 b 554 49 351 90 393 49 b 693 -482 856 49 818 -292 "},"η":{"ha":-28,"x_min":0,"x_max":0,"o":"m 636 358 b 526 514 636 478 599 514 b 385 339 439 514 385 422 l 385 -151 l 111 -151 l 111 726 l 350 726 l 353 619 l 360 619 b 636 749 433 710 515 749 b 893 392 824 749 893 611 l 893 -490 l 636 -490 "},"θ":{"ha":7,"x_min":0,"x_max":0,"o":"m 515 1061 b 949 449 785 1061 949 878 b 515 -174 949 19 785 -174 b 83 449 246 -174 83 19 b 515 1061 83 881 246 1061 m 682 567 b 515 840 671 794 586 840 b 349 567 446 840 360 794 m 349 331 b 515 49 360 107 446 49 b 682 331 586 49 671 107 "},"ι":{"ha":-485,"x_min":0,"x_max":0,"o":"m 372 -174 b 111 133 168 -174 111 -50 l 111 726 l 389 726 l 389 124 b 444 49 389 67 393 49 b 531 60 458 49 514 53 l 531 -156 b 372 -174 492 -168 449 -174 "},"κ":{"ha":-49,"x_min":0,"x_max":0,"o":"m 661 -151 b 449 161 599 -68 540 15 l 446 158 b 368 -97 386 99 368 35 l 368 -151 l 111 -151 l 111 726 l 378 726 l 378 443 l 385 443 b 896 749 514 599 688 708 l 896 492 b 642 360 807 474 735 438 b 986 -151 731 188 869 -24 "},"λ":{"ha":-37,"x_min":0,"x_max":0,"o":"m 24 -151 l 358 686 l 353 710 b 228 832 336 790 297 832 b 83 801 172 832 125 821 l 83 1038 b 275 1061 139 1057 193 1061 b 672 694 482 1061 579 946 l 983 -151 l 686 -151 l 521 353 l 513 353 l 319 -151 "},"μ":{"ha":31,"x_min":0,"x_max":0,"o":"m 111 726 l 385 726 l 385 217 b 486 61 385 97 417 61 b 625 253 543 61 625 114 l 625 726 l 903 726 l 903 131 b 964 56 903 74 914 56 b 1039 67 979 56 1021 60 l 1039 -135 b 893 -167 1000 -153 971 -167 b 656 -29 768 -167 686 -124 l 651 -29 b 471 -164 611 -115 544 -164 b 368 -128 432 -164 396 -157 l 368 -462 l 111 -462 "},"ν":{"ha":-92,"x_min":0,"x_max":0,"o":"m 319 -151 b -4 726 247 174 114 514 l 292 726 b 493 128 381 569 460 307 l 501 128 b 632 726 583 322 617 529 l 906 726 b 649 -151 879 415 789 146 l 319 -151 "},"ξ":{"ha":-187,"x_min":0,"x_max":0,"o":"m 456 -489 b 525 -260 504 -422 526 -308 b 360 -165 524 -212 489 -185 b 74 174 178 -139 74 -46 b 269 476 74 324 140 432 l 269 485 b 111 672 168 522 111 569 b 185 826 111 728 136 790 l 26 826 l 26 1024 l 789 1024 l 789 810 l 539 810 b 386 690 446 810 386 782 b 571 582 386 615 438 582 l 743 582 l 743 346 l 556 346 b 354 217 442 346 354 318 b 533 49 354 103 378 64 b 807 -185 726 29 807 -49 b 739 -489 807 -246 803 -372 "},"ο":{"ha":-36,"x_min":0,"x_max":0,"o":"m 494 744 b 947 365 776 744 947 568 l 947 208 b 494 -171 947 -8 776 -171 b 42 208 213 -171 42 -8 l 42 365 b 494 744 42 568 213 744 m 494 682 b 147 288 489 424 386 293 b 494 -107 386 281 489 140 b 842 289 499 142 601 282 b 494 682 601 294 499 424 "},"π":{"ha":107,"x_min":0,"x_max":0,"o":"m 929 -174 b 658 110 726 -174 658 -90 l 658 513 l 461 513 b 418 -151 461 306 442 76 l 128 -151 b 192 513 172 83 192 322 l 29 513 l 29 726 l 1092 726 l 1092 513 l 918 513 l 918 126 b 997 49 918 67 944 49 b 1078 56 1013 49 1053 53 l 1078 -153 b 929 -174 1044 -167 999 -174 "},"ρ":{"ha":-18,"x_min":0,"x_max":0,"o":"m 103 265 b 528 749 103 600 283 749 b 942 303 783 749 942 585 b 576 -174 942 0 763 -174 b 361 -78 504 -174 421 -150 b 381 -462 368 -210 375 -336 l 103 -462 m 521 -60 b 808 286 521 167 606 281 b 521 613 610 292 525 406 b 232 285 517 406 431 290 b 521 -60 436 279 521 167 "},"σ":{"ha":-7,"x_min":0,"x_max":0,"o":"m 479 -174 b 61 278 249 -174 61 -14 b 492 726 61 579 271 726 l 999 726 l 999 501 b 751 522 903 513 842 518 l 751 515 b 886 233 836 465 886 363 b 479 -174 886 -17 717 -174 m 479 -56 b 767 272 483 158 568 267 b 479 599 568 278 483 392 b 190 271 475 392 389 276 b 479 -56 389 265 475 158 "},"τ":{"ha":-149,"x_min":0,"x_max":0,"o":"m 554 -174 b 301 138 364 -174 301 -49 l 301 513 l 46 513 l 46 726 l 831 726 l 831 513 l 558 513 l 558 126 b 626 49 558 67 586 49 b 763 63 658 49 722 53 l 763 -142 b 554 -174 701 -160 635 -174 "},"υ":{"ha":-82,"x_min":0,"x_max":0,"o":"m 461 -174 b 71 206 193 -174 71 -12 l 71 726 l 336 726 l 336 182 b 461 49 336 97 393 49 b 596 299 549 49 596 125 b 540 726 596 408 582 568 l 806 726 b 869 311 844 585 869 457 b 461 -174 869 13 731 -174 "},"φ":{"ha":0,"x_min":0,"x_max":0,"o":"m 772 739 b 1232 286 1019 726 1232 568 b 772 -164 1232 7 1018 -150 l 772 -490 l 521 -490 l 521 -164 b 61 286 276 -150 61 7 b 521 739 61 568 276 726 l 521 958 l 772 958 m 772 40 b 951 286 889 46 951 131 b 772 536 951 444 890 529 m 521 536 b 343 286 404 529 343 444 b 521 40 343 131 404 46 "},"χ":{"ha":-86,"x_min":0,"x_max":0,"o":"m 14 -490 l 304 144 l 13 726 l 311 726 l 479 400 l 486 400 l 604 726 l 918 726 l 658 150 l 965 -490 l 665 -490 l 486 -87 l 479 -87 l 325 -490 "},"ψ":{"ha":0,"x_min":0,"x_max":0,"o":"m 1169 726 b 1235 349 1211 597 1235 483 b 793 -174 1235 17 1103 -168 l 793 -490 l 514 -490 l 514 -174 b 93 269 176 -165 93 39 l 93 726 l 367 726 l 367 249 b 514 42 367 146 365 43 l 514 958 l 793 958 l 793 42 b 946 335 922 46 946 118 b 890 726 946 438 932 583 "},"ω":{"ha":0,"x_min":0,"x_max":0,"o":"m 403 -174 b 82 272 189 -174 82 -32 b 194 726 82 411 119 599 l 458 726 b 329 247 375 583 329 386 b 431 49 329 129 357 49 b 540 206 503 49 540 101 l 540 521 l 782 521 l 782 206 b 882 49 782 89 813 49 b 985 289 943 49 985 133 b 876 726 985 425 960 588 l 1135 726 b 1244 279 1211 599 1244 458 b 933 -174 1244 -24 1154 -174 b 664 -60 828 -174 726 -143 l 657 -60 b 403 -174 594 -143 507 -174 "},"─":{"ha":0,"x_min":0,"x_max":0,"o":"m 0 444 l 1292 444 l 1292 389 l 0 389 "},"│":{"ha":0,"x_min":0,"x_max":0,"o":"m 619 1111 l 672 1111 l 672 -278 l 619 -278 "},"┌":{"ha":0,"x_min":0,"x_max":0,"o":"m 672 389 l 672 -278 l 619 -278 l 619 444 l 1292 444 l 1292 389 "},"┐":{"ha":0,"x_min":0,"x_max":0,"o":"m 619 -278 l 619 389 l 0 389 l 0 444 l 672 444 l 672 -278 "},"┘":{"ha":0,"x_min":0,"x_max":0,"o":"m 0 389 l 0 444 l 619 444 l 619 1111 l 672 1111 l 672 389 "},"└":{"ha":0,"x_min":0,"x_max":0,"o":"m 619 389 l 619 1111 l 672 1111 l 672 444 l 1292 444 l 1292 389 "},"├":{"ha":0,"x_min":0,"x_max":0,"o":"m 672 389 l 672 -278 l 619 -278 l 619 1111 l 672 1111 l 672 444 l 1292 444 l 1292 389 "},"┬":{"ha":0,"x_min":0,"x_max":0,"o":"m 672 389 l 672 -278 l 619 -278 l 619 389 l 0 389 l 0 444 l 1292 444 l 1292 389 "},"┤":{"ha":0,"x_min":0,"x_max":0,"o":"m 619 -278 l 619 389 l 0 389 l 0 444 l 619 444 l 619 1111 l 672 1111 l 672 -278 "},"┴":{"ha":0,"x_min":0,"x_max":0,"o":"m 0 389 l 0 444 l 619 444 l 619 1111 l 672 1111 l 672 444 l 1292 444 l 1292 389 "},"┼":{"ha":0,"x_min":0,"x_max":0,"o":"m 672 389 l 672 -278 l 619 -278 l 619 389 l 0 389 l 0 444 l 619 444 l 619 1111 l 672 1111 l 672 444 l 1292 444 l 1292 389 "},"━":{"ha":0,"x_min":0,"x_max":0,"o":"m 0 500 l 1292 500 l 1292 333 l 0 333 "},"┃":{"ha":0,"x_min":0,"x_max":0,"o":"m 568 1111 l 724 1111 l 724 -278 l 568 -278 "},"┏":{"ha":0,"x_min":0,"x_max":0,"o":"m 724 333 l 724 -278 l 568 -278 l 568 500 l 1292 500 l 1292 333 "},"┓":{"ha":0,"x_min":0,"x_max":0,"o":"m 568 -278 l 568 333 l 0 333 l 0 500 l 724 500 l 724 -278 "},"┛":{"ha":0,"x_min":0,"x_max":0,"o":"m 0 500 l 568 500 l 568 1111 l 724 1111 l 724 333 l 0 333 "},"┗":{"ha":0,"x_min":0,"x_max":0,"o":"m 568 1111 l 724 1111 l 724 500 l 1292 500 l 1292 333 l 568 333 "},"┣":{"ha":0,"x_min":0,"x_max":0,"o":"m 724 333 l 724 -278 l 568 -278 l 568 1111 l 724 1111 l 724 500 l 1292 500 l 1292 333 "},"┳":{"ha":0,"x_min":0,"x_max":0,"o":"m 724 333 l 724 -278 l 568 -278 l 568 333 l 0 333 l 0 500 l 1292 500 l 1292 333 "},"┫":{"ha":0,"x_min":0,"x_max":0,"o":"m 568 -278 l 568 333 l 0 333 l 0 500 l 568 500 l 568 1111 l 724 1111 l 724 -278 "},"┻":{"ha":0,"x_min":0,"x_max":0,"o":"m 0 333 l 0 500 l 568 500 l 568 1111 l 724 1111 l 724 500 l 1292 500 l 1292 333 "},"╋":{"ha":0,"x_min":0,"x_max":0,"o":"m 724 333 l 724 -278 l 568 -278 l 568 333 l 0 333 l 0 500 l 568 500 l 568 1111 l 724 1111 l 724 500 l 1292 500 l 1292 333 "},"┠":{"ha":0,"x_min":0,"x_max":0,"o":"m 724 389 l 724 -278 l 568 -278 l 568 1111 l 724 1111 l 724 444 l 1292 444 l 1292 389 "},"┯":{"ha":0,"x_min":0,"x_max":0,"o":"m 672 333 l 672 -278 l 619 -278 l 619 333 l 0 333 l 0 500 l 1292 500 l 1292 333 "},"┨":{"ha":0,"x_min":0,"x_max":0,"o":"m 568 -278 l 568 389 l 0 389 l 0 444 l 568 444 l 568 1111 l 724 1111 l 724 -278 "},"┷":{"ha":0,"x_min":0,"x_max":0,"o":"m 0 333 l 0 500 l 619 500 l 619 1111 l 672 1111 l 672 500 l 1292 500 l 1292 333 "},"┿":{"ha":0,"x_min":0,"x_max":0,"o":"m 672 333 l 672 -278 l 619 -278 l 619 333 l 0 333 l 0 500 l 619 500 l 619 1111 l 672 1111 l 672 500 l 1292 500 l 1292 333 "},"┝":{"ha":0,"x_min":0,"x_max":0,"o":"m 672 333 l 672 -278 l 619 -278 l 619 1111 l 672 1111 l 672 500 l 1292 500 l 1292 333 "},"┰":{"ha":0,"x_min":0,"x_max":0,"o":"m 724 389 l 724 -278 l 568 -278 l 568 389 l 0 389 l 0 444 l 1292 444 l 1292 389 "},"┥":{"ha":0,"x_min":0,"x_max":0,"o":"m 619 -278 l 619 333 l 0 333 l 0 500 l 619 500 l 619 1111 l 672 1111 l 672 -278 "},"┸":{"ha":0,"x_min":0,"x_max":0,"o":"m 0 389 l 0 444 l 568 444 l 568 1111 l 724 1111 l 724 444 l 1292 444 l 1292 389 "},"╂":{"ha":0,"x_min":0,"x_max":0,"o":"m 724 389 l 724 -278 l 568 -278 l 568 389 l 0 389 l 0 444 l 568 444 l 568 1111 l 724 1111 l 724 444 l 1292 444 l 1292 389 "},"┒":{"ha":0,"x_min":0,"x_max":0,"o":"m 568 -278 l 568 389 l 0 389 l 0 444 l 724 444 l 724 -278 "},"┑":{"ha":0,"x_min":0,"x_max":0,"o":"m 619 -278 l 619 333 l 0 333 l 0 500 l 672 500 l 672 -278 "},"┚":{"ha":0,"x_min":0,"x_max":0,"o":"m 0 444 l 568 444 l 568 1111 l 724 1111 l 724 389 l 0 389 "},"┙":{"ha":0,"x_min":0,"x_max":0,"o":"m 0 333 l 0 500 l 619 500 l 619 1111 l 672 1111 l 672 333 "},"┖":{"ha":0,"x_min":0,"x_max":0,"o":"m 568 1111 l 724 1111 l 724 444 l 1292 444 l 1292 389 l 568 389 "},"┕":{"ha":0,"x_min":0,"x_max":0,"o":"m 619 333 l 619 1111 l 672 1111 l 672 500 l 1292 500 l 1292 333 "},"┎":{"ha":0,"x_min":0,"x_max":0,"o":"m 724 389 l 724 -278 l 568 -278 l 568 444 l 1292 444 l 1292 389 "},"┍":{"ha":0,"x_min":0,"x_max":0,"o":"m 672 333 l 672 -278 l 619 -278 l 619 500 l 1292 500 l 1292 333 "},"┞":{"ha":0,"x_min":0,"x_max":0,"o":"m 672 389 l 672 -278 l 619 -278 l 619 389 l 568 389 l 568 1111 l 724 1111 l 724 444 l 1292 444 l 1292 389 "},"┟":{"ha":0,"x_min":0,"x_max":0,"o":"m 724 389 l 724 -278 l 568 -278 l 568 444 l 619 444 l 619 1111 l 672 1111 l 672 444 l 1292 444 l 1292 389 "},"┡":{"ha":0,"x_min":0,"x_max":0,"o":"m 672 333 l 672 -278 l 619 -278 l 619 333 l 568 333 l 568 1111 l 724 1111 l 724 500 l 1292 500 l 1292 333 "},"┢":{"ha":0,"x_min":0,"x_max":0,"o":"m 724 333 l 724 -278 l 568 -278 l 568 500 l 619 500 l 619 1111 l 672 1111 l 672 500 l 1292 500 l 1292 333 "},"┦":{"ha":0,"x_min":0,"x_max":0,"o":"m 672 389 l 672 -278 l 619 -278 l 619 389 l 0 389 l 0 444 l 568 444 l 568 1111 l 724 1111 l 724 389 "},"┧":{"ha":0,"x_min":0,"x_max":0,"o":"m 568 -278 l 568 389 l 0 389 l 0 444 l 619 444 l 619 1111 l 672 1111 l 672 444 l 724 444 l 724 -278 "},"┩":{"ha":0,"x_min":0,"x_max":0,"o":"m 672 333 l 672 -278 l 619 -278 l 619 333 l 0 333 l 0 500 l 568 500 l 568 1111 l 724 1111 l 724 333 "},"┪":{"ha":0,"x_min":0,"x_max":0,"o":"m 568 -278 l 568 333 l 0 333 l 0 500 l 619 500 l 619 1111 l 672 1111 l 672 500 l 724 500 l 724 -278 "},"┭":{"ha":0,"x_min":0,"x_max":0,"o":"m 619 -278 l 619 333 l 0 333 l 0 500 l 672 500 l 672 444 l 1292 444 l 1292 389 l 672 389 l 672 -278 "},"┮":{"ha":0,"x_min":0,"x_max":0,"o":"m 672 333 l 672 -278 l 619 -278 l 619 389 l 0 389 l 0 444 l 619 444 l 619 500 l 1292 500 l 1292 333 "},"┱":{"ha":0,"x_min":0,"x_max":0,"o":"m 724 389 l 724 -278 l 568 -278 l 568 333 l 0 333 l 0 500 l 724 500 l 724 444 l 1292 444 l 1292 389 "},"┲":{"ha":0,"x_min":0,"x_max":0,"o":"m 724 333 l 724 -278 l 568 -278 l 568 389 l 0 389 l 0 444 l 568 444 l 568 500 l 1292 500 l 1292 333 "},"┵":{"ha":0,"x_min":0,"x_max":0,"o":"m 672 389 l 672 333 l 0 333 l 0 500 l 619 500 l 619 1111 l 672 1111 l 672 444 l 1292 444 l 1292 389 "},"┶":{"ha":0,"x_min":0,"x_max":0,"o":"m 619 333 l 619 389 l 0 389 l 0 444 l 619 444 l 619 1111 l 672 1111 l 672 500 l 1292 500 l 1292 333 "},"┹":{"ha":0,"x_min":0,"x_max":0,"o":"m 0 500 l 568 500 l 568 1111 l 724 1111 l 724 444 l 1292 444 l 1292 389 l 724 389 l 724 333 l 0 333 "},"┺":{"ha":0,"x_min":0,"x_max":0,"o":"m 568 389 l 0 389 l 0 444 l 568 444 l 568 1111 l 724 1111 l 724 500 l 1292 500 l 1292 333 l 568 333 "},"┽":{"ha":0,"x_min":0,"x_max":0,"o":"m 672 389 l 672 -278 l 619 -278 l 619 333 l 0 333 l 0 500 l 619 500 l 619 1111 l 672 1111 l 672 444 l 1292 444 l 1292 389 "},"┾":{"ha":0,"x_min":0,"x_max":0,"o":"m 672 333 l 672 -278 l 619 -278 l 619 389 l 0 389 l 0 444 l 619 444 l 619 1111 l 672 1111 l 672 500 l 1292 500 l 1292 333 "},"╀":{"ha":0,"x_min":0,"x_max":0,"o":"m 672 389 l 672 -278 l 619 -278 l 619 389 l 0 389 l 0 444 l 568 444 l 568 1111 l 724 1111 l 724 444 l 1292 444 l 1292 389 "},"╁":{"ha":0,"x_min":0,"x_max":0,"o":"m 724 389 l 724 -278 l 568 -278 l 568 389 l 0 389 l 0 444 l 619 444 l 619 1111 l 672 1111 l 672 444 l 1292 444 l 1292 389 "},"╃":{"ha":0,"x_min":0,"x_max":0,"o":"m 672 333 l 672 -278 l 619 -278 l 619 333 l 0 333 l 0 500 l 568 500 l 568 1111 l 724 1111 l 724 444 l 1292 444 l 1292 389 l 724 389 l 724 333 "},"╄":{"ha":0,"x_min":0,"x_max":0,"o":"m 672 333 l 672 -278 l 619 -278 l 619 333 l 568 333 l 568 389 l 0 389 l 0 444 l 568 444 l 568 1111 l 724 1111 l 724 500 l 1292 500 l 1292 333 "},"╅":{"ha":0,"x_min":0,"x_max":0,"o":"m 568 -278 l 568 333 l 0 333 l 0 500 l 619 500 l 619 1111 l 672 1111 l 672 500 l 724 500 l 724 444 l 1292 444 l 1292 389 l 724 389 l 724 -278 "},"╆":{"ha":0,"x_min":0,"x_max":0,"o":"m 724 333 l 724 -278 l 568 -278 l 568 389 l 0 389 l 0 444 l 568 444 l 568 500 l 619 500 l 619 1111 l 672 1111 l 672 500 l 1292 500 l 1292 333 "},"╇":{"ha":0,"x_min":0,"x_max":0,"o":"m 672 333 l 672 -278 l 619 -278 l 619 333 l 0 333 l 0 500 l 568 500 l 568 1111 l 724 1111 l 724 500 l 1292 500 l 1292 333 "},"╈":{"ha":0,"x_min":0,"x_max":0,"o":"m 724 333 l 724 -278 l 568 -278 l 568 333 l 0 333 l 0 500 l 619 500 l 619 1111 l 672 1111 l 672 500 l 1292 500 l 1292 333 "},"╉":{"ha":0,"x_min":0,"x_max":0,"o":"m 724 389 l 724 -278 l 568 -278 l 568 333 l 0 333 l 0 500 l 568 500 l 568 1111 l 724 1111 l 724 444 l 1292 444 l 1292 389 "},"╊":{"ha":0,"x_min":0,"x_max":0,"o":"m 724 333 l 724 -278 l 568 -278 l 568 389 l 0 389 l 0 444 l 568 444 l 568 1111 l 724 1111 l 724 500 l 1292 500 l 1292 333 "},"㎕":{"ha":0,"x_min":0,"x_max":0,"o":"m 1304 -42 b 1057 -172 1238 -108 1158 -172 b 778 67 926 -172 811 -92 l 711 19 l 650 186 b 771 276 700 221 728 246 l 771 643 b 1044 1051 771 924 886 1051 b 1278 769 1185 1051 1278 946 b 985 222 1278 567 1193 397 l 985 186 b 1090 40 985 83 1033 40 b 1224 114 1146 40 1189 81 m 985 458 b 1100 769 1063 543 1100 658 b 1051 867 1100 833 1079 867 b 985 678 1015 867 985 817 m 56 725 l 279 725 l 279 192 b 324 122 279 136 303 122 b 376 167 342 122 374 139 l 376 725 l 586 725 l 586 178 b 632 111 586 125 617 111 b 650 117 639 111 643 111 l 674 -61 b 578 -89 651 -78 621 -89 b 426 3 497 -89 451 -61 l 421 3 b 326 -81 410 -58 371 -81 b 258 -47 299 -81 271 -72 b 292 -386 263 -169 268 -269 l 56 -386 "},"㎖":{"ha":0,"x_min":0,"x_max":0,"o":"m 256 710 b 451 660 328 761 401 736 b 558 714 488 683 525 704 b 821 400 725 763 821 656 l 821 200 b 901 276 851 228 872 250 l 901 643 b 1124 1051 901 924 996 1051 b 1313 769 1238 1051 1313 946 b 1075 222 1313 567 1244 397 l 1075 186 b 1160 40 1075 83 1115 40 b 1269 114 1206 40 1240 81 l 1333 -42 b 1133 -172 1281 -108 1217 -172 b 908 67 1028 -172 935 -92 l 854 19 l 821 131 l 821 -151 l 643 -151 l 643 372 b 554 510 643 483 619 535 l 511 483 b 517 400 514 457 517 429 l 517 -151 l 340 -151 l 340 372 b 240 497 340 483 290 547 l 213 469 l 213 -151 l 36 -151 l 36 725 l 213 725 l 213 679 m 1075 458 b 1169 769 1138 543 1169 658 b 1129 867 1169 833 1151 867 b 1075 678 1100 867 1075 817 "},"㎗":{"ha":0,"x_min":0,"x_max":0,"o":"m 1304 -42 b 1057 -172 1238 -108 1158 -172 b 778 67 926 -172 811 -92 l 711 19 l 650 186 b 771 276 700 221 728 246 l 771 643 b 1044 1051 771 924 886 1051 b 1278 769 1185 1051 1278 946 b 985 222 1278 567 1193 397 l 985 186 b 1090 40 985 83 1033 40 b 1224 114 1146 40 1189 81 m 625 1024 l 625 -151 l 314 -151 b 46 294 138 -151 46 47 b 314 725 46 540 147 725 l 449 725 l 449 1024 m 985 458 b 1100 769 1063 543 1100 658 b 1051 867 1100 833 1079 867 b 985 678 1015 867 985 817 m 331 -108 b 556 286 333 150 400 279 b 331 679 400 293 333 431 b 104 285 326 431 260 292 b 331 -108 260 278 326 150 "},"ℓ":{"ha":-265,"x_min":0,"x_max":0,"o":"m 763 -42 b 488 -172 689 -108 600 -172 b 178 67 343 -172 215 -92 l 104 19 l 14 178 l 169 276 l 169 643 b 474 1051 169 924 297 1051 b 733 769 629 1051 733 946 b 407 222 733 567 639 397 l 407 186 b 525 40 407 83 461 40 b 672 114 586 40 635 81 m 407 458 b 536 769 494 543 536 658 b 482 867 536 833 513 867 b 407 678 442 867 407 817 "},"㎘":{"ha":0,"x_min":0,"x_max":0,"o":"m 1276 -42 b 1029 -172 1210 -108 1131 -172 b 750 67 899 -172 783 -92 l 699 40 l 622 186 b 743 276 672 221 700 246 l 743 643 b 1017 1051 743 924 858 1051 b 1250 769 1157 1051 1250 946 b 957 222 1250 567 1165 397 l 957 186 b 1063 40 957 83 1006 40 b 1196 114 1118 40 1161 81 m 265 438 l 492 725 l 739 725 l 460 367 l 768 -151 l 521 -151 l 324 192 l 265 115 l 265 -151 l 44 -151 l 44 1024 l 265 1024 m 957 458 b 1072 769 1035 543 1072 658 b 1024 867 1072 833 1051 867 b 957 678 988 867 957 817 "},"㏄":{"ha":0,"x_min":0,"x_max":0,"o":"m 631 224 l 631 168 b 331 -169 631 -4 542 -169 b 31 210 139 -169 31 -21 l 31 365 b 331 744 31 596 139 744 b 631 407 531 744 631 579 l 631 365 l 431 365 l 431 393 b 331 531 431 463 406 531 b 229 351 256 531 229 451 l 229 224 b 331 44 229 124 256 44 b 431 182 406 44 431 113 l 431 224 m 1268 224 l 1268 168 b 968 -169 1268 -4 1179 -169 b 668 210 776 -169 668 -21 l 668 365 b 968 744 668 596 776 744 b 1268 407 1168 744 1268 579 l 1268 365 l 1068 365 l 1068 393 b 968 531 1068 463 1043 531 b 867 351 893 531 867 451 l 867 224 b 968 44 867 124 893 44 b 1068 182 1043 44 1068 113 l 1068 224 "},"㎣":{"ha":0,"x_min":0,"x_max":0,"o":"m 1049 1004 l 1086 1004 b 1138 1040 1124 1006 1138 1021 b 1106 1064 1138 1053 1125 1064 b 1075 1032 1089 1064 1075 1050 l 969 1032 b 1111 1161 968 1100 1021 1161 b 1253 1047 1197 1161 1253 1111 b 1214 967 1253 1018 1236 986 b 1267 875 1243 949 1267 918 b 1113 749 1267 801 1193 749 b 953 888 1022 749 953 796 l 1060 888 b 1103 849 1060 863 1081 849 b 1151 878 1131 849 1151 860 b 1086 915 1151 899 1124 913 l 1049 915 m 829 710 b 978 654 893 743 944 722 b 1056 714 1001 681 1029 703 b 1247 400 1176 763 1247 656 l 1247 -151 l 1117 -151 l 1117 372 b 1042 496 1117 483 1089 521 l 1017 474 b 1019 400 1018 450 1019 426 l 1019 -151 l 890 -151 l 890 372 b 818 497 890 483 865 526 l 793 469 l 793 -151 l 663 -151 l 663 725 l 793 725 l 793 679 m 211 710 b 358 654 274 743 325 722 b 436 714 383 681 410 703 b 628 400 558 763 628 656 l 628 -151 l 499 -151 l 499 372 b 424 496 499 483 471 521 l 397 472 b 400 400 399 449 400 425 l 400 -151 l 272 -151 l 272 372 b 199 497 272 483 247 526 l 174 469 l 174 -151 l 44 -151 l 44 725 l 174 725 l 174 679 "},"㎤":{"ha":0,"x_min":0,"x_max":0,"o":"m 1049 1004 l 1086 1004 b 1138 1040 1124 1006 1138 1021 b 1106 1064 1138 1053 1125 1064 b 1075 1032 1089 1064 1075 1050 l 969 1032 b 1111 1161 968 1100 1021 1161 b 1253 1047 1197 1161 1253 1111 b 1214 967 1253 1018 1236 986 b 1267 875 1243 949 1267 918 b 1113 749 1267 801 1193 749 b 953 888 1022 749 953 796 l 1060 888 b 1103 849 1060 863 1081 849 b 1151 878 1131 849 1151 860 b 1076 915 1151 901 1119 915 l 1049 915 m 519 224 l 519 168 b 275 -169 519 -4 446 -169 b 28 210 119 -169 28 -21 l 28 365 b 275 744 28 596 119 744 b 519 407 436 744 519 579 l 519 365 l 360 365 l 360 393 b 275 531 360 463 335 531 b 188 351 215 531 188 451 l 188 224 b 275 44 188 124 215 44 b 360 182 335 44 360 113 l 360 224 m 742 710 b 925 657 819 743 883 724 b 1010 714 951 682 978 704 b 1260 400 1160 763 1260 656 l 1260 -151 l 1099 -151 l 1099 372 b 1006 496 1099 483 1065 521 l 976 474 b 979 400 978 450 979 426 l 979 -151 l 819 -151 l 819 372 b 729 497 819 483 788 526 l 697 469 l 697 -151 l 538 -151 l 538 725 l 697 725 l 697 679 "},"㎥":{"ha":0,"x_min":0,"x_max":0,"o":"m 1049 1004 l 1086 1004 b 1138 1040 1124 1006 1138 1021 b 1106 1064 1138 1053 1125 1064 b 1075 1032 1089 1064 1075 1050 l 969 1032 b 1111 1161 968 1100 1021 1161 b 1253 1047 1197 1161 1253 1111 b 1214 967 1253 1018 1236 986 b 1267 875 1243 949 1267 918 b 1113 749 1267 801 1193 749 b 953 888 1022 749 953 796 l 1060 888 b 1103 849 1060 863 1081 849 b 1151 878 1131 849 1151 860 b 1076 915 1151 901 1119 915 l 1049 915 m 392 710 b 703 656 524 743 632 724 b 847 714 747 681 794 704 b 1272 400 1104 763 1272 656 l 1272 -151 l 1000 -151 l 1000 372 b 840 496 1000 483 940 521 l 788 474 b 793 400 792 450 793 426 l 793 -151 l 521 -151 l 521 372 b 368 497 521 483 467 526 l 314 469 l 314 -151 l 42 -151 l 42 725 l 314 725 l 314 679 "},"㎦":{"ha":0,"x_min":0,"x_max":0,"o":"m 1049 1004 l 1076 1004 b 1138 1040 1122 1004 1138 1019 b 1106 1064 1138 1053 1125 1064 b 1075 1032 1089 1064 1075 1050 l 969 1032 b 1111 1161 968 1100 1021 1161 b 1253 1047 1197 1161 1253 1111 b 1214 967 1253 1018 1236 986 b 1267 875 1243 949 1267 918 b 1113 749 1267 801 1193 749 b 953 888 1022 749 953 796 l 1060 888 b 1103 849 1060 863 1081 849 b 1151 878 1131 849 1151 860 b 1086 915 1151 899 1124 913 l 1049 915 m 194 443 l 326 725 l 507 725 l 319 363 l 528 -151 l 347 -151 l 225 178 l 194 118 l 194 -151 l 33 -151 l 33 1024 l 194 1024 m 740 710 b 924 656 818 743 882 724 b 1010 714 950 682 979 704 b 1260 400 1161 763 1260 656 l 1260 -151 l 1100 -151 l 1100 372 b 1006 496 1100 483 1065 521 l 975 474 b 978 400 976 450 978 426 l 978 -151 l 817 -151 l 817 372 b 726 497 817 483 783 526 l 694 469 l 694 -151 l 533 -151 l 533 725 l 694 725 l 694 679 "},"㎙":{"ha":0,"x_min":0,"x_max":0,"o":"m 456 911 l 401 911 b 317 790 351 911 317 879 l 317 744 l 463 744 l 463 522 l 317 522 l 317 -151 l 136 -151 l 136 522 l 42 522 l 42 744 l 136 744 l 136 782 b 369 1133 136 971 164 1133 l 456 1133 m 711 710 b 901 656 789 743 857 724 b 1004 714 936 681 972 703 b 1254 400 1154 763 1254 656 l 1254 -151 l 1081 -151 l 1081 372 b 988 496 1081 483 1046 521 l 956 472 b 960 400 958 449 960 425 l 960 -151 l 788 -151 l 788 372 b 697 497 788 483 756 526 l 667 469 l 667 -151 l 493 -151 l 493 725 l 667 725 l 667 679 "},"㎚":{"ha":0,"x_min":0,"x_max":0,"o":"m 739 710 b 922 653 818 743 881 722 b 1018 714 953 679 986 703 b 1254 400 1168 763 1254 656 l 1254 -151 l 1094 -151 l 1094 372 b 1001 496 1094 483 1060 521 l 971 472 b 974 400 972 450 974 425 l 974 -151 l 815 -151 l 815 372 b 725 497 815 483 783 526 l 694 469 l 694 -151 l 535 -151 l 535 725 l 694 725 l 694 679 m 263 714 b 488 400 407 761 488 656 l 488 -151 l 328 -151 l 328 372 b 239 500 328 483 297 526 l 196 469 l 196 -151 l 36 -151 l 36 725 l 196 725 l 196 683 l 263 714 "},"㎛":{"ha":0,"x_min":0,"x_max":0,"o":"m 50 725 l 243 725 l 243 192 b 285 122 243 136 265 122 b 333 167 301 122 331 139 l 333 725 l 513 725 l 513 178 b 556 111 513 125 540 111 b 571 117 561 111 564 111 l 571 725 l 729 725 l 729 679 l 769 710 b 942 656 839 743 900 724 b 1035 714 972 682 1006 704 b 1261 400 1169 763 1261 656 l 1261 -151 l 1103 -151 l 1103 372 b 1019 496 1103 483 1072 521 l 992 472 b 994 400 993 450 994 425 l 994 -151 l 838 -151 l 838 372 b 757 497 838 483 810 526 l 729 469 l 729 -151 l 571 -151 l 571 -75 b 504 -89 553 -83 532 -89 b 379 3 431 -89 403 -61 l 374 3 b 288 -81 364 -58 328 -81 b 225 -47 261 -81 236 -72 b 256 -386 228 -169 233 -269 l 50 -386 "},"㎜":{"ha":0,"x_min":0,"x_max":0,"o":"m 829 710 b 978 654 893 743 944 722 b 1056 714 1001 681 1029 703 b 1247 400 1176 763 1247 656 l 1247 -151 l 1117 -151 l 1117 372 b 1042 496 1117 483 1089 521 l 1017 474 b 1019 400 1018 450 1019 426 l 1019 -151 l 890 -151 l 890 372 b 818 497 890 483 865 526 l 793 469 l 793 -151 l 663 -151 l 663 725 l 793 725 l 793 679 m 211 710 b 358 654 274 743 325 722 b 436 714 383 681 410 703 b 628 400 558 763 628 656 l 628 -151 l 499 -151 l 499 372 b 424 496 499 483 471 521 l 397 472 b 400 400 399 449 400 425 l 400 -151 l 272 -151 l 272 372 b 199 497 272 483 247 526 l 174 469 l 174 -151 l 44 -151 l 44 725 l 174 725 l 174 679 "},"㎝":{"ha":0,"x_min":0,"x_max":0,"o":"m 519 224 l 519 168 b 275 -169 519 -4 446 -169 b 28 210 119 -169 28 -21 l 28 365 b 275 744 28 596 119 744 b 519 407 436 744 519 579 l 519 365 l 360 365 l 360 393 b 275 531 360 463 335 531 b 188 351 215 531 188 451 l 188 224 b 275 44 188 124 215 44 b 360 182 335 44 360 113 l 360 224 m 742 710 b 925 657 819 743 883 724 b 1010 714 951 682 978 704 b 1260 400 1160 763 1260 656 l 1260 -151 l 1099 -151 l 1099 372 b 1006 496 1099 483 1065 521 l 976 474 b 979 400 978 450 979 426 l 979 -151 l 819 -151 l 819 372 b 729 497 819 483 788 526 l 697 469 l 697 -151 l 538 -151 l 538 725 l 697 725 l 697 679 "},"㎞":{"ha":0,"x_min":0,"x_max":0,"o":"m 194 443 l 326 725 l 507 725 l 319 363 l 528 -151 l 347 -151 l 225 178 l 194 118 l 194 -151 l 33 -151 l 33 1024 l 194 1024 m 740 710 b 924 656 818 743 882 724 b 1010 714 950 682 979 704 b 1260 400 1161 763 1260 656 l 1260 -151 l 1100 -151 l 1100 372 b 1006 496 1100 483 1065 521 l 975 474 b 978 400 976 450 978 426 l 978 -151 l 817 -151 l 817 372 b 726 497 817 483 783 526 l 694 469 l 694 -151 l 533 -151 l 533 725 l 694 725 l 694 679 "},"㎟":{"ha":0,"x_min":0,"x_max":0,"o":"m 961 751 l 961 831 l 1088 943 l 1088 942 b 1149 1026 1125 975 1149 996 b 1110 1061 1149 1047 1135 1061 b 1067 1001 1082 1061 1067 1039 l 960 1001 b 1111 1160 961 1075 1007 1160 b 1264 1024 1213 1160 1264 1100 b 1193 903 1264 978 1242 947 l 1122 840 b 1260 875 1167 843 1214 853 l 1260 751 m 196 710 b 349 658 261 743 314 724 b 417 714 369 682 392 704 b 636 400 543 763 636 656 l 636 -151 l 492 -151 l 492 372 b 414 496 492 483 463 521 l 390 475 b 393 400 392 451 393 426 l 393 -151 l 260 -151 l 260 372 b 197 497 260 483 228 531 l 172 469 l 172 -151 l 26 -151 l 26 725 l 172 725 l 172 679 m 849 710 b 1001 658 914 743 967 724 b 1069 714 1022 682 1044 704 b 1289 400 1196 763 1289 656 l 1289 -151 l 1144 -151 l 1144 372 b 1067 496 1144 483 1107 532 l 1043 475 b 1046 400 1044 451 1046 426 l 1046 -151 l 913 -151 l 913 372 b 850 497 913 483 888 539 l 825 469 l 825 -151 l 679 -151 l 679 725 l 825 725 l 825 679 "},"㎠":{"ha":0,"x_min":0,"x_max":0,"o":"m 961 751 l 961 831 l 1088 943 l 1088 942 b 1149 1026 1125 975 1149 996 b 1110 1061 1149 1047 1135 1061 b 1067 1001 1082 1061 1067 1039 l 960 1001 b 1111 1160 961 1075 1007 1160 b 1264 1024 1213 1160 1264 1100 b 1193 903 1264 978 1242 947 l 1122 840 b 1260 875 1167 843 1214 853 l 1260 751 m 519 224 l 519 168 b 275 -169 519 -4 446 -169 b 28 210 119 -169 28 -21 l 28 365 b 275 744 28 596 119 744 b 519 407 436 744 519 579 l 519 365 l 360 365 l 360 393 b 275 531 360 463 335 531 b 188 351 215 531 188 451 l 188 224 b 275 44 188 124 215 44 b 360 182 335 44 360 113 l 360 224 m 742 710 b 925 657 819 743 883 724 b 1010 714 951 682 978 704 b 1260 400 1160 763 1260 656 l 1260 -151 l 1099 -151 l 1099 372 b 1006 496 1099 483 1065 521 l 976 474 b 979 400 978 450 979 426 l 979 -151 l 819 -151 l 819 372 b 729 497 819 483 788 526 l 697 469 l 697 -151 l 538 -151 l 538 725 l 697 725 l 697 679 "},"㎡":{"ha":0,"x_min":0,"x_max":0,"o":"m 961 751 l 961 831 l 1088 943 l 1088 942 b 1149 1026 1125 975 1149 996 b 1110 1061 1149 1047 1135 1061 b 1067 1001 1082 1061 1067 1039 l 960 1001 b 1111 1160 961 1075 1007 1160 b 1264 1024 1213 1160 1264 1100 b 1193 903 1264 978 1242 947 l 1122 840 b 1260 875 1167 843 1214 853 l 1260 751 m 392 710 b 703 656 524 743 632 724 b 847 714 747 681 794 704 b 1272 400 1104 763 1272 656 l 1272 -151 l 1000 -151 l 1000 372 b 840 496 1000 483 940 521 l 788 474 b 793 400 792 450 793 426 l 793 -151 l 521 -151 l 521 372 b 368 497 521 483 467 526 l 314 469 l 314 -151 l 42 -151 l 42 725 l 314 725 l 314 679 "},"㎢":{"ha":0,"x_min":0,"x_max":0,"o":"m 961 751 l 961 831 l 1088 943 l 1088 942 b 1149 1026 1125 975 1149 996 b 1110 1061 1149 1047 1135 1061 b 1067 1001 1082 1061 1067 1039 l 960 1001 b 1111 1160 961 1075 1007 1160 b 1264 1024 1213 1160 1264 1100 b 1193 903 1264 978 1242 947 l 1122 840 b 1260 875 1167 843 1214 853 l 1260 751 m 194 443 l 326 725 l 507 725 l 319 363 l 528 -151 l 347 -151 l 225 178 l 194 118 l 194 -151 l 33 -151 l 33 1024 l 194 1024 m 740 710 b 924 656 818 743 882 724 b 1010 714 950 682 979 704 b 1260 400 1161 763 1260 656 l 1260 -151 l 1100 -151 l 1100 372 b 1006 496 1100 483 1065 521 l 975 474 b 978 400 976 450 978 426 l 978 -151 l 817 -151 l 817 372 b 726 497 817 483 783 526 l 694 469 l 694 -151 l 533 -151 l 533 725 l 694 725 l 694 679 "},"㏊":{"ha":0,"x_min":0,"x_max":0,"o":"m 343 715 b 621 406 503 758 621 661 l 621 -151 l 415 -151 l 415 378 b 317 501 415 489 382 525 l 240 474 l 240 -151 l 36 -151 l 36 1024 l 240 1024 l 240 688 l 343 715 m 894 -169 b 644 86 772 -169 644 -81 b 922 400 644 261 738 368 l 1057 424 l 1057 443 b 958 539 1057 513 1018 539 b 868 457 900 539 868 504 l 868 443 l 663 443 l 663 471 b 958 739 663 621 794 739 b 1263 443 1114 739 1263 615 l 1263 -151 l 1067 -151 l 1067 -101 b 894 -169 1033 -139 964 -169 m 949 363 b 783 119 944 232 867 125 b 949 -117 867 114 944 6 b 1115 121 953 7 1031 115 b 949 363 1031 126 953 232 "},"㎍":{"ha":0,"x_min":0,"x_max":0,"o":"m 931 744 b 1229 365 1104 744 1229 582 l 1229 -165 b 935 -489 1229 -337 1100 -489 b 649 -193 763 -489 649 -354 l 649 -158 l 826 -158 l 826 -179 b 935 -275 826 -237 868 -275 b 1051 -151 1003 -275 1051 -221 l 1051 -97 b 931 -128 1029 -121 964 -128 b 651 103 804 -128 696 -32 l 674 -61 b 578 -89 651 -78 621 -89 b 426 3 497 -89 451 -61 l 421 3 b 326 -81 410 -58 371 -81 b 258 -47 299 -81 271 -72 b 292 -386 263 -169 268 -269 l 56 -386 l 56 725 l 279 725 l 279 192 b 324 122 279 136 303 122 b 376 167 342 122 374 139 l 376 725 l 586 725 l 586 178 b 632 111 586 125 617 111 b 647 115 638 111 642 111 b 631 238 636 153 631 194 l 631 365 b 931 744 631 582 756 744 m 931 689 b 704 308 926 431 860 314 b 931 -72 860 301 926 175 b 1156 310 933 175 1000 303 b 931 689 1000 315 933 431 "},"㎎":{"ha":0,"x_min":0,"x_max":0,"o":"m 1004 744 b 1272 365 1160 744 1272 582 l 1272 -165 b 1008 -489 1272 -337 1157 -489 b 750 -193 853 -489 750 -354 l 750 -158 l 910 -158 l 910 -179 b 1008 -275 910 -237 947 -275 b 1113 -151 1069 -275 1113 -221 l 1113 -97 b 1004 -128 1093 -121 1035 -128 b 735 238 856 -128 735 35 l 735 365 b 1004 744 735 582 847 744 m 256 710 b 410 657 325 743 376 724 b 494 714 438 682 467 704 b 715 400 628 763 715 656 l 715 -151 l 558 -151 l 558 372 b 483 496 558 483 536 521 l 449 472 b 451 400 450 450 451 425 l 451 -151 l 296 -151 l 296 372 b 229 497 296 483 281 526 l 186 469 l 186 -151 l 32 -151 l 32 725 l 186 725 l 186 679 m 1004 689 b 800 308 1001 431 940 314 b 1004 -72 940 301 1001 175 b 1207 310 1007 175 1067 303 b 1004 689 1067 315 1007 431 "},"㎏":{"ha":0,"x_min":0,"x_max":0,"o":"m 213 433 l 422 725 l 621 725 l 389 385 l 644 -151 l 446 -151 l 279 224 l 213 126 l 213 -151 l 36 -151 l 36 1024 l 213 1024 m 931 744 b 1229 365 1104 744 1229 582 l 1229 -165 b 935 -489 1229 -337 1100 -489 b 649 -193 763 -489 649 -354 l 649 -158 l 826 -158 l 826 -179 b 935 -275 826 -237 868 -275 b 1044 -151 1003 -275 1044 -221 l 1044 -97 b 931 -128 1022 -121 964 -128 b 631 238 765 -128 631 35 l 631 365 b 931 744 631 582 756 744 m 931 689 b 704 308 926 431 860 314 b 931 -72 860 301 926 175 b 1156 310 933 175 1000 303 b 931 689 1000 315 933 431 "},"㏏":{"ha":0,"x_min":0,"x_max":0,"o":"m 289 435 l 532 725 l 797 725 l 796 724 l 846 724 l 846 1025 l 1082 1025 l 1082 724 l 1229 724 l 1229 501 l 1082 501 l 1082 200 b 1176 71 1082 110 1117 71 l 1229 71 l 1229 -151 l 1124 -151 b 846 219 906 -151 846 19 l 846 501 l 740 501 l 740 656 l 499 365 l 828 -151 l 563 -151 l 354 192 l 289 113 l 289 -151 l 51 -151 l 51 1024 l 289 1024 "},"㎈":{"ha":0,"x_min":0,"x_max":0,"o":"m 1075 1024 l 1253 1024 l 1253 113 b 1294 53 1253 64 1269 53 l 1331 53 l 1331 -169 l 1285 -169 b 1075 118 1138 -169 1075 -54 m 514 224 l 514 168 b 271 -169 514 -4 460 -169 b 13 210 100 -169 13 -21 l 13 365 b 271 744 13 596 100 744 b 514 407 450 744 514 579 l 514 365 l 351 365 l 351 393 b 271 531 351 463 338 531 b 190 351 204 531 190 451 l 190 224 b 271 44 190 124 204 44 b 351 182 338 44 351 113 l 351 224 m 735 -169 b 526 86 613 -169 526 -81 b 749 400 526 261 564 368 l 869 424 l 869 443 b 785 539 869 513 844 539 b 708 457 726 539 708 504 l 708 443 l 544 443 l 544 471 b 785 739 544 621 621 739 b 1047 443 940 739 1047 615 l 1047 -151 l 879 -151 l 879 -101 b 735 -169 846 -139 804 -169 m 775 363 b 624 119 771 232 707 125 b 775 -117 707 114 771 6 b 928 121 778 7 844 115 b 775 363 844 126 778 232 "},"㎉":{"ha":0,"x_min":0,"x_max":0,"o":"m 153 446 l 243 725 l 388 725 l 236 336 l 404 -151 l 261 -151 l 163 146 l 153 119 l 153 -151 l 26 -151 l 26 1024 l 153 1024 m 1232 113 b 1263 53 1232 64 1243 53 l 1288 53 l 1288 -169 l 1256 -169 b 1104 117 1149 -169 1104 -54 l 1104 1024 l 1232 1024 m 700 224 l 700 168 b 525 -169 700 -4 661 -169 b 339 210 403 -169 339 -21 l 339 365 b 525 744 339 596 403 744 b 700 407 654 744 700 579 l 700 365 l 582 365 l 582 393 b 525 531 582 463 572 531 b 468 351 478 531 468 451 l 468 224 b 525 44 468 124 478 44 b 582 182 572 44 582 113 l 582 224 m 858 -169 b 708 86 771 -169 708 -81 b 868 400 708 261 736 368 l 956 424 l 956 443 b 894 539 956 513 938 539 b 840 457 853 539 840 504 l 840 443 l 722 443 l 722 471 b 894 739 722 621 778 739 b 1083 443 1007 739 1083 615 l 1083 -151 l 963 -151 l 963 -101 b 858 -169 939 -139 908 -169 m 888 363 b 778 119 885 232 838 125 b 888 -126 840 114 888 0 b 997 121 888 0 936 115 b 888 363 938 126 889 232 "},"㏈":{"ha":0,"x_min":0,"x_max":0,"o":"m 988 1024 b 1222 733 1124 1024 1222 931 b 1142 490 1222 638 1192 536 b 1268 213 1213 460 1268 335 b 997 -151 1268 -21 1161 -151 l 639 -151 l 639 1024 m 588 1024 l 588 -151 l 283 -151 b 21 294 110 -151 21 47 b 283 725 21 540 119 725 l 415 725 l 415 1024 m 942 986 b 718 743 936 840 831 747 b 942 501 831 739 936 657 b 1164 743 947 657 1053 739 b 942 986 1053 747 947 840 m 300 -108 b 519 286 303 150 368 279 b 300 679 368 293 303 431 b 78 285 296 431 231 292 b 300 -108 231 278 296 150 m 942 471 b 692 183 935 289 804 188 b 942 -106 804 179 935 88 b 1190 182 947 88 1078 178 b 942 471 1078 186 947 289 "},"㎧":{"ha":0,"x_min":0,"x_max":0,"o":"m 642 -151 l 540 -151 l 540 372 b 456 496 540 483 508 521 l 428 474 b 431 400 429 450 431 426 l 431 -151 l 285 -151 l 285 372 b 204 497 285 483 256 526 l 175 469 l 175 -151 l 31 -151 l 31 725 l 175 725 l 175 679 l 217 710 b 382 656 286 743 343 724 b 458 714 406 682 431 704 b 683 400 594 763 683 656 l 683 122 l 832 1114 l 951 1114 l 743 -276 l 624 -276 m 1075 -175 b 868 139 933 -175 868 -28 l 992 139 b 1069 32 992 74 1035 32 b 1139 97 1104 32 1139 57 b 1090 176 1139 131 1125 153 l 986 250 b 885 483 929 288 885 371 b 1076 744 885 644 965 744 b 1264 483 1188 744 1264 628 l 1140 483 b 1079 563 1140 529 1113 563 b 1024 504 1046 563 1024 539 b 1082 428 1024 468 1049 450 l 1189 351 b 1278 121 1239 315 1278 236 b 1075 -175 1278 -35 1203 -175 "},"㎨":{"ha":0,"x_min":0,"x_max":0,"o":"m 961 751 l 961 831 l 1088 943 l 1088 942 b 1149 1026 1125 975 1149 996 b 1110 1061 1149 1047 1135 1061 b 1067 1001 1082 1061 1067 1039 l 960 1001 b 1111 1160 961 1075 1007 1160 b 1264 1024 1213 1160 1264 1100 b 1193 903 1264 978 1242 947 l 1122 840 b 1260 875 1167 843 1214 853 l 1260 751 m 642 -151 l 540 -151 l 540 372 b 456 496 540 483 508 521 l 428 474 b 431 400 429 450 431 426 l 431 -151 l 285 -151 l 285 372 b 204 497 285 483 256 526 l 175 469 l 175 -151 l 31 -151 l 31 725 l 175 725 l 175 679 l 217 710 b 382 656 286 743 343 724 b 458 714 406 682 431 704 b 683 400 594 763 683 656 l 683 122 l 832 1114 l 951 1114 l 743 -276 l 624 -276 m 1075 -175 b 868 125 933 -175 868 -42 l 992 125 b 1069 18 992 60 1035 18 b 1139 83 1104 18 1139 43 b 1090 163 1139 117 1125 139 l 986 236 b 885 469 929 274 885 357 b 1076 717 885 631 965 717 b 1264 469 1188 717 1264 614 l 1140 469 b 1079 549 1140 515 1113 549 b 1024 490 1046 549 1024 525 b 1082 414 1024 454 1049 436 l 1189 338 b 1278 107 1239 301 1278 222 b 1075 -175 1278 -49 1203 -175 "},"㎰":{"ha":0,"x_min":0,"x_max":0,"o":"m 954 -175 b 644 139 743 -175 644 -28 l 832 139 b 949 32 832 74 894 32 b 1054 97 1001 32 1054 57 b 982 176 1054 131 1031 153 l 819 250 b 668 483 738 288 668 371 b 957 744 668 644 789 744 b 1243 483 1125 744 1243 628 l 1054 483 b 963 563 1054 529 1013 563 b 876 504 914 563 876 539 b 967 428 876 468 917 450 l 1128 351 b 1263 121 1206 315 1263 236 b 954 -175 1263 -35 1150 -175 m 47 -490 l 47 725 l 358 725 b 626 279 535 725 626 526 b 358 -151 626 33 525 -151 l 251 -151 l 251 -490 m 343 681 b 117 288 339 422 271 293 b 343 -108 271 281 339 140 b 568 289 346 140 413 282 b 343 681 413 294 346 422 "},"㎱":{"ha":0,"x_min":0,"x_max":0,"o":"m 928 -175 b 604 139 707 -175 604 -28 l 800 139 b 921 32 800 74 865 32 b 1032 97 978 32 1032 57 b 956 176 1032 131 1008 153 l 788 250 b 629 483 701 288 629 371 b 931 744 629 644 756 744 b 1229 483 1106 744 1229 628 l 1033 483 b 938 563 1033 529 988 563 b 846 504 885 563 846 539 b 943 428 846 468 889 450 l 1110 351 b 1249 121 1189 315 1249 236 b 928 -175 1249 -35 1132 -175 m 329 714 b 579 400 489 761 579 656 l 579 -151 l 374 -151 l 374 372 b 289 500 374 483 354 526 l 240 469 l 240 -151 l 36 -151 l 36 725 l 240 725 l 240 683 l 329 714 "},"㎲":{"ha":0,"x_min":0,"x_max":0,"o":"m 56 725 l 279 725 l 279 192 b 324 122 279 136 303 122 b 376 167 342 122 374 139 l 376 725 l 586 725 l 586 178 b 604 124 586 150 594 133 l 604 139 l 800 139 b 921 32 800 74 865 32 b 1032 97 978 32 1032 57 b 956 176 1032 131 1008 153 l 788 250 b 629 483 701 288 629 371 b 931 744 629 644 756 744 b 1229 483 1106 744 1229 628 l 1033 483 b 938 563 1033 529 988 563 b 846 504 885 563 846 539 b 943 428 846 468 889 450 l 1110 351 b 1249 121 1189 315 1249 236 b 928 -175 1249 -35 1132 -175 b 669 -64 807 -175 722 -131 b 578 -89 647 -79 618 -89 b 426 3 497 -89 451 -61 l 421 3 b 326 -81 410 -58 371 -81 b 258 -47 299 -81 271 -72 b 292 -386 263 -169 268 -269 l 56 -386 "},"㎳":{"ha":0,"x_min":0,"x_max":0,"o":"m 1035 -175 b 811 139 882 -175 811 -28 l 946 139 b 1031 32 946 74 990 32 b 1107 97 1068 32 1107 57 b 1053 176 1107 131 1090 153 l 939 250 b 826 483 878 288 826 371 b 1036 744 826 644 915 744 b 1243 483 1157 744 1243 628 l 1107 483 b 1042 563 1107 529 1075 563 b 979 504 1004 563 979 539 b 1043 428 979 468 1007 450 l 1160 351 b 1257 121 1215 315 1257 236 b 1035 -175 1257 -35 1175 -175 m 260 710 b 442 651 338 744 401 722 b 546 714 476 678 514 703 b 789 400 693 763 789 656 l 789 -151 l 632 -151 l 632 372 b 542 496 632 483 600 521 l 488 471 b 490 400 489 449 490 425 l 490 -151 l 335 -151 l 335 372 b 246 497 335 483 303 526 l 190 469 l 190 -151 l 35 -151 l 35 725 l 190 725 l 190 679 "},"㎴":{"ha":0,"x_min":0,"x_max":0,"o":"m 1004 -151 l 786 -151 l 518 1024 l 743 1024 l 893 194 l 1047 1024 l 1274 1024 m 50 -490 l 50 725 l 361 725 b 629 279 538 725 629 526 b 361 -151 629 33 528 -151 l 254 -151 l 254 -490 m 346 681 b 119 288 342 422 274 293 b 346 -108 274 281 342 140 b 571 289 349 140 415 282 b 346 681 415 294 349 422 "},"㎵":{"ha":0,"x_min":0,"x_max":0,"o":"m 1004 -151 l 786 -151 l 518 1024 l 743 1024 l 893 194 l 1047 1024 l 1274 1024 m 329 714 b 593 400 489 761 593 656 l 593 -151 l 401 -151 l 401 372 b 303 500 401 483 368 526 l 226 469 l 226 -151 l 36 -151 l 36 725 l 226 725 l 226 683 l 329 714 "},"㎶":{"ha":0,"x_min":0,"x_max":0,"o":"m 56 725 l 279 725 l 279 192 b 324 122 279 136 303 122 b 376 167 342 122 374 139 l 376 725 l 561 725 l 490 1024 l 715 1024 l 879 194 l 1047 1024 l 1274 1024 l 990 -151 l 772 -151 l 586 624 l 586 178 b 632 111 586 125 617 111 b 650 117 639 111 643 111 l 674 -61 b 578 -89 651 -78 621 -89 b 426 3 497 -89 451 -61 l 421 3 b 326 -81 410 -58 371 -81 b 258 -47 299 -81 271 -72 b 292 -386 263 -169 268 -269 l 56 -386 "},"㎷":{"ha":0,"x_min":0,"x_max":0,"o":"m 1057 -151 l 899 -151 l 681 1024 l 836 1024 l 938 443 b 978 153 954 344 963 254 b 1017 443 992 254 1001 344 l 1121 1024 l 1275 1024 m 247 710 b 421 651 322 744 382 722 b 521 714 454 678 490 703 b 754 400 663 763 754 656 l 754 -151 l 604 -151 l 604 372 b 517 496 604 483 574 521 l 465 471 b 468 400 467 449 468 425 l 468 -151 l 318 -151 l 318 372 b 233 497 318 483 288 526 l 181 469 l 181 -151 l 31 -151 l 31 725 l 181 725 l 181 679 "},"㎸":{"ha":0,"x_min":0,"x_max":0,"o":"m 247 439 l 457 725 l 565 725 l 490 1024 l 700 1024 l 842 443 b 896 153 864 344 876 254 b 950 443 915 254 928 344 l 1090 1024 l 1300 1024 l 1006 -151 l 785 -151 l 596 600 l 428 367 l 715 -151 l 483 -151 l 300 192 l 247 117 l 247 -151 l 43 -151 l 43 1024 l 247 1024 "},"㎹":{"ha":0,"x_min":0,"x_max":0,"o":"m 1064 -151 l 893 -151 l 694 861 l 694 -151 l 542 -151 l 542 333 b 557 618 542 406 550 532 l 431 -124 l 310 -124 l 182 618 b 194 333 188 532 194 406 l 194 -151 l 42 -151 l 42 1024 l 239 1024 l 346 400 b 368 211 354 336 364 274 b 393 400 375 274 382 336 l 499 1024 l 828 1024 l 936 443 b 978 153 951 344 965 254 l 1021 443 l 1132 1024 l 1296 1024 "},"㎀":{"ha":0,"x_min":0,"x_max":0,"o":"m 1061 68 l 806 68 l 754 -151 l 560 -151 l 844 1024 l 1024 1024 l 1306 -151 l 1113 -151 m 1099 515 b 933 882 976 515 936 682 b 768 515 929 682 889 515 b 933 117 896 515 933 315 b 1099 515 933 315 971 515 m 36 -490 l 36 725 l 347 725 b 615 279 524 725 615 526 b 347 -151 615 33 514 -151 l 213 -151 l 213 -490 m 332 681 b 106 288 328 422 260 293 b 332 -129 264 281 332 132 b 557 289 332 132 397 281 b 332 681 401 294 335 422 "},"㎁":{"ha":0,"x_min":0,"x_max":0,"o":"m 315 714 b 565 400 475 761 565 656 l 565 -128 l 844 1024 l 1024 1024 l 1306 -151 l 1113 -151 l 1061 68 l 806 68 l 754 -151 l 388 -151 l 388 372 b 289 500 388 483 354 526 l 213 469 l 213 -151 l 36 -151 l 36 725 l 213 725 l 213 683 l 315 714 m 1099 515 b 933 882 976 515 936 682 b 768 515 929 682 889 515 b 933 117 896 515 933 315 b 1099 515 933 315 971 515 "},"㎂":{"ha":0,"x_min":0,"x_max":0,"o":"m 56 711 l 279 711 l 279 178 b 324 108 279 122 303 108 b 376 153 342 108 374 125 l 376 711 l 586 711 l 586 164 b 619 99 586 122 604 104 l 844 1024 l 1024 1024 l 1306 -151 l 1113 -151 l 1061 68 l 806 68 l 754 -151 l 560 -151 l 571 -103 b 426 -11 494 -101 450 -74 l 421 -11 b 326 -94 410 -72 371 -94 b 258 -61 299 -94 271 -86 b 292 -400 263 -183 268 -283 l 56 -400 m 1099 515 b 933 882 976 515 936 682 b 768 515 929 682 889 515 b 933 117 896 515 933 315 b 1099 515 933 315 971 515 "},"㎃":{"ha":0,"x_min":0,"x_max":0,"o":"m 269 710 b 424 657 339 743 390 724 b 508 714 451 682 481 704 b 729 400 642 763 729 656 l 729 -36 l 922 1024 l 1094 1024 l 1306 -151 l 1151 -151 l 1110 68 l 906 68 l 864 -151 l 572 -151 l 572 372 b 497 496 572 483 550 521 l 463 472 b 465 400 464 450 465 425 l 465 -151 l 310 -151 l 310 372 b 243 497 310 483 294 526 l 200 469 l 200 -151 l 46 -151 l 46 725 l 200 725 l 200 679 m 1154 515 b 1008 882 1056 515 1013 682 b 861 515 1004 682 958 515 b 1008 146 958 515 1004 335 b 1154 515 1013 335 1056 515 "},"㎄":{"ha":0,"x_min":0,"x_max":0,"o":"m 213 436 l 394 725 l 593 725 l 369 367 l 579 -72 l 844 1024 l 1024 1024 l 1306 -151 l 1113 -151 l 1061 68 l 806 68 l 754 -151 l 418 -151 l 260 190 l 213 114 l 213 -151 l 36 -151 l 36 1024 l 213 1024 m 1099 515 b 933 882 976 515 936 682 b 768 515 929 682 889 515 b 933 117 896 515 933 315 b 1099 515 933 315 971 515 "},"㎺":{"ha":0,"x_min":0,"x_max":0,"o":"m 1158 -151 l 958 -151 l 901 483 b 894 558 899 508 896 533 l 888 483 l 829 -151 l 626 -151 l 504 1024 l 656 1024 l 715 413 b 740 135 722 319 732 228 b 764 411 747 226 754 319 l 819 1024 l 968 1024 l 1026 411 b 1049 135 1033 319 1040 226 b 1074 413 1056 228 1064 319 l 1129 1024 l 1289 1024 m 32 -490 l 32 725 l 307 725 b 544 279 464 725 544 526 b 307 -151 544 33 454 -151 l 188 -151 l 188 -490 m 293 681 b 93 288 290 422 229 293 b 293 -108 229 281 290 140 b 493 289 296 140 354 282 b 293 681 354 294 296 422 "},"㎻":{"ha":0,"x_min":0,"x_max":0,"o":"m 1172 -151 l 972 -151 l 915 483 b 908 558 913 508 910 533 l 901 483 l 843 -151 l 640 -151 l 518 1024 l 669 1024 l 729 413 b 754 135 736 319 746 228 b 778 411 761 226 768 319 l 833 1024 l 982 1024 l 1040 411 b 1063 135 1047 319 1054 226 b 1088 413 1069 228 1078 319 l 1143 1024 l 1303 1024 m 303 714 b 543 400 456 761 543 656 l 543 -151 l 372 -151 l 372 372 b 278 500 372 483 340 526 l 204 469 l 204 -151 l 35 -151 l 35 725 l 204 725 l 204 683 l 303 714 "},"㎼":{"ha":0,"x_min":0,"x_max":0,"o":"m 1172 -151 l 972 -151 l 915 483 b 908 558 913 508 910 533 l 901 483 l 843 -151 l 640 -151 l 518 1024 l 669 1024 l 729 413 b 754 135 736 319 746 228 b 778 411 761 226 768 319 l 833 1024 l 982 1024 l 1040 411 b 1063 135 1047 319 1054 226 b 1088 413 1069 228 1078 319 l 1143 1024 l 1303 1024 m 49 725 l 247 725 l 247 192 b 286 122 247 136 268 122 b 333 167 303 122 331 139 l 333 725 l 518 725 l 518 178 b 560 111 518 125 546 111 b 575 117 565 111 568 111 l 596 -61 b 511 -89 576 -78 550 -89 b 378 3 440 -89 400 -61 l 372 3 b 289 -81 363 -58 328 -81 b 229 -47 264 -81 240 -72 b 258 -386 232 -169 238 -269 l 49 -386 "},"㎽":{"ha":0,"x_min":0,"x_max":0,"o":"m 1178 -151 l 993 -151 l 942 483 b 935 560 939 510 936 535 l 928 483 l 875 -151 l 688 -151 l 575 1024 l 714 1024 l 769 413 l 792 135 b 814 411 799 226 806 319 l 865 1024 l 1003 1024 l 1056 411 l 1076 135 b 1100 413 1082 228 1090 319 l 1150 1024 l 1297 1024 m 197 710 b 344 654 260 743 311 722 b 422 714 369 681 396 703 b 614 400 544 763 614 656 l 614 -151 l 485 -151 l 485 372 b 410 496 485 483 457 521 l 383 472 b 386 400 385 449 386 425 l 386 -151 l 258 -151 l 258 372 b 185 497 258 483 233 526 l 160 469 l 160 -151 l 31 -151 l 31 725 l 160 725 l 160 679 "},"㎾":{"ha":0,"x_min":0,"x_max":0,"o":"m 1172 -151 l 972 -151 l 915 483 b 908 558 913 508 910 533 l 901 483 l 843 -151 l 640 -151 l 556 664 l 369 367 l 617 -151 l 418 -151 l 260 190 l 213 114 l 213 -151 l 36 -151 l 36 1024 l 213 1024 l 213 436 l 394 725 l 549 725 l 518 1024 l 669 1024 l 729 413 b 754 135 736 319 746 228 b 778 411 761 226 768 319 l 833 1024 l 982 1024 l 1040 411 b 1063 135 1047 319 1054 226 b 1088 413 1069 228 1078 319 l 1143 1024 l 1303 1024 "},"㎿":{"ha":0,"x_min":0,"x_max":0,"o":"m 1186 -151 l 999 -151 l 944 483 l 938 557 l 932 483 l 876 -151 l 686 -151 l 586 881 l 586 -151 l 456 -151 l 456 333 b 464 618 456 406 460 532 l 356 -124 l 249 -124 l 140 618 b 153 333 146 532 153 406 l 153 -151 l 17 -151 l 17 1024 l 185 1024 l 286 400 b 300 211 292 336 296 274 b 322 400 307 274 314 336 l 417 1024 l 714 1024 l 769 413 b 793 135 776 319 785 228 b 815 411 799 226 806 319 l 867 1024 l 1007 1024 l 1063 411 b 1083 135 1069 319 1075 226 b 1107 413 1090 228 1097 319 l 1160 1024 l 1310 1024 "},"㎐":{"ha":0,"x_min":0,"x_max":0,"o":"m 479 -151 l 479 331 l 267 331 l 267 -151 l 58 -151 l 58 1024 l 267 1024 l 267 553 l 479 553 l 479 1024 l 688 1024 l 688 -151 m 731 29 l 983 504 l 726 504 l 726 726 l 1215 726 l 1215 546 l 949 39 b 1229 126 1050 46 1154 68 l 1229 -151 l 731 -151 "},"㎑":{"ha":0,"x_min":0,"x_max":0,"o":"m 781 -151 l 781 331 l 654 331 l 654 -151 l 503 -151 l 503 1024 l 654 1024 l 654 553 l 781 553 l 781 1024 l 932 1024 l 932 -151 m 181 450 l 313 725 l 485 725 l 317 388 l 501 -151 l 331 -151 l 218 189 l 181 114 l 181 -151 l 26 -151 l 26 1024 l 181 1024 m 963 29 l 1106 504 l 967 504 l 967 726 l 1274 726 l 1274 546 l 1108 39 b 1283 126 1182 46 1231 68 l 1283 -151 l 963 -151 "},"㎒":{"ha":0,"x_min":0,"x_max":0,"o":"m 413 1024 l 575 1024 l 575 -151 l 450 -151 l 450 333 b 458 618 450 406 454 532 l 354 -124 l 253 -124 l 150 618 b 160 333 154 532 160 406 l 160 -151 l 33 -151 l 33 1024 l 196 1024 l 283 400 b 304 215 293 338 300 276 b 324 400 308 276 317 338 m 831 -151 l 831 331 l 744 331 l 744 -151 l 608 -151 l 608 1024 l 744 1024 l 744 553 l 831 553 l 831 1024 l 967 1024 l 967 -151 m 992 29 l 1119 504 l 994 504 l 994 726 l 1271 726 l 1271 546 l 1122 39 b 1281 126 1189 46 1232 68 l 1281 -151 l 992 -151 "},"㎓":{"ha":0,"x_min":0,"x_max":0,"o":"m 499 233 b 261 -169 499 -15 429 -169 b 26 261 103 -169 26 -1 l 26 610 b 261 1040 26 872 103 1040 b 488 651 421 1040 488 889 l 488 596 l 342 596 l 342 638 b 261 818 342 753 339 818 b 172 596 186 818 172 739 l 172 275 b 261 53 172 132 186 53 b 357 247 343 53 357 118 l 357 272 l 254 272 l 254 481 l 499 481 m 786 -151 l 786 331 l 665 331 l 665 -151 l 519 -151 l 519 1024 l 665 1024 l 665 553 l 786 553 l 786 1024 l 932 1024 l 932 -151 m 963 29 l 1119 504 l 960 504 l 960 726 l 1267 726 l 1267 546 l 1094 39 b 1276 126 1165 46 1225 68 l 1276 -151 l 963 -151 "},"㎔":{"ha":0,"x_min":0,"x_max":0,"o":"m 740 -151 l 740 331 l 625 331 l 625 -151 l 456 -151 l 456 1024 l 625 1024 l 625 553 l 740 553 l 740 1024 l 908 1024 l 908 -151 m 288 -151 l 142 -151 l 142 801 l -1 801 l -1 1024 l 431 1024 l 431 801 l 288 801 m 939 29 l 1088 504 l 936 504 l 936 726 l 1261 726 l 1261 546 l 1101 39 b 1272 126 1183 46 1213 68 l 1272 -151 l 939 -151 "},"Ω":{"ha":0,"x_min":0,"x_max":0,"o":"m 118 131 l 299 131 l 299 136 b 143 500 215 204 143 333 b 646 983 143 788 344 983 b 1150 500 946 983 1150 788 b 994 136 1150 333 1078 204 l 994 131 l 1175 131 l 1175 -69 l 718 -69 l 718 110 b 908 475 844 210 908 321 b 646 771 908 649 792 771 b 385 475 501 771 385 649 b 575 110 385 321 450 210 l 575 -69 l 118 -69 "},"㏀":{"ha":0,"x_min":0,"x_max":0,"o":"m 696 725 l 428 367 l 635 -7 l 650 -33 l 650 49 l 739 49 l 739 54 b 676 489 707 124 676 350 b 975 1056 676 778 788 1056 b 1276 489 1165 1056 1276 778 b 1211 54 1276 350 1246 124 l 1211 49 l 1303 49 l 1303 -151 l 1006 -151 l 1006 26 b 1067 464 1047 154 1067 336 b 975 842 1067 694 1019 842 b 886 464 931 842 886 694 b 947 26 886 336 906 154 l 947 -151 l 483 -151 l 300 192 l 247 117 l 247 -151 l 43 -151 l 43 1024 l 247 1024 l 247 439 l 457 725 "},"㏁":{"ha":0,"x_min":0,"x_max":0,"o":"m 711 49 l 790 49 l 790 54 b 735 489 760 124 735 350 b 1000 1056 735 778 832 1056 b 1267 489 1167 1056 1267 778 b 1208 54 1267 350 1238 124 l 1208 49 l 1289 49 l 1289 -151 l 1026 -151 l 1026 26 b 1081 464 1064 154 1081 336 b 1000 842 1081 694 1038 842 b 919 464 960 842 919 694 b 974 26 919 336 938 154 l 974 -151 l 711 -151 m 499 1024 l 694 1024 l 694 -151 l 542 -151 l 542 333 b 557 618 542 406 550 532 l 431 -124 l 310 -124 l 182 618 b 194 333 188 532 194 406 l 194 -151 l 42 -151 l 42 1024 l 239 1024 l 346 400 b 368 211 354 336 364 274 b 393 400 375 274 382 336 "},"㎊":{"ha":0,"x_min":0,"x_max":0,"o":"m 1256 801 l 919 801 l 919 532 l 1231 532 l 1231 303 l 919 303 l 919 -151 l 711 -151 l 711 1024 l 1256 1024 m 78 -490 l 78 725 l 403 725 b 671 279 579 725 671 526 b 403 -151 671 33 569 -151 l 268 -151 l 268 -490 m 381 681 b 147 288 376 422 303 293 b 381 -129 307 281 381 132 b 613 289 381 132 453 281 b 381 681 457 294 383 422 "},"㎋":{"ha":0,"x_min":0,"x_max":0,"o":"m 919 801 l 919 532 l 1231 532 l 1231 303 l 919 303 l 919 -151 l 711 -151 l 711 1024 l 1256 1024 l 1256 801 m 371 714 b 635 400 531 761 635 656 l 635 -151 l 443 -151 l 443 372 b 344 500 443 483 410 526 l 268 469 l 268 -151 l 78 -151 l 78 725 l 268 725 l 268 683 l 371 714 "},"㎌":{"ha":0,"x_min":0,"x_max":0,"o":"m 919 801 l 919 532 l 1231 532 l 1231 303 l 919 303 l 919 -151 l 711 -151 l 711 1024 l 1256 1024 l 1256 801 m 56 725 l 279 725 l 279 192 b 324 122 279 136 303 122 b 376 167 342 122 374 139 l 376 725 l 586 725 l 586 178 b 632 111 586 125 617 111 b 650 117 639 111 643 111 l 674 -61 b 578 -89 651 -78 621 -89 b 426 3 497 -89 451 -61 l 421 3 b 326 -81 410 -58 371 -81 b 258 -47 299 -81 271 -72 b 292 -386 263 -169 268 -269 l 56 -386 "},"㏖":{"ha":0,"x_min":0,"x_max":0,"o":"m 1117 1024 l 1250 1024 l 1250 113 b 1281 53 1250 64 1263 53 l 1308 53 l 1308 -169 l 1275 -169 b 1117 118 1164 -169 1117 -54 m 885 744 b 1097 365 1024 744 1097 568 l 1097 208 b 885 -171 1097 -8 1024 -171 b 674 208 749 -171 674 -8 l 674 365 b 885 744 674 568 749 744 m 208 710 b 363 654 274 743 328 722 b 442 714 388 681 415 703 b 650 400 567 763 650 656 l 650 -151 l 515 -151 l 515 372 b 439 496 515 483 489 521 l 403 471 b 406 400 404 449 406 425 l 406 -151 l 272 -151 l 272 372 b 197 497 272 483 244 526 l 160 469 l 160 -151 l 33 -151 l 33 725 l 160 725 l 160 679 m 885 661 b 726 288 881 417 840 293 b 885 -128 846 281 885 133 b 1044 289 885 133 925 282 b 885 661 932 294 889 417 "},"㏅":{"ha":0,"x_min":0,"x_max":0,"o":"m 1239 1024 l 1239 -151 l 924 -151 b 654 294 747 -151 654 47 b 924 725 654 540 756 725 l 1060 725 l 1060 1024 m 631 224 l 631 168 b 331 -169 631 -4 542 -169 b 31 210 139 -169 31 -21 l 31 365 b 331 744 31 596 139 744 b 631 407 531 744 631 579 l 631 365 l 431 365 l 431 393 b 331 531 431 463 406 531 b 229 351 256 531 229 451 l 229 224 b 331 44 229 124 256 44 b 431 182 406 44 431 113 l 431 224 m 942 -108 b 1168 286 944 150 1013 279 b 942 679 1013 293 944 431 b 714 285 938 431 869 292 b 942 -108 869 278 938 150 "},"㎭":{"ha":0,"x_min":0,"x_max":0,"o":"m 1249 1024 l 1249 -151 l 994 -151 b 778 294 851 -151 778 47 b 994 725 778 540 860 725 l 1104 725 l 1104 1024 m 178 -151 l 36 -151 l 36 725 l 178 725 l 178 567 b 293 725 193 649 232 725 l 324 725 l 324 561 b 532 739 350 665 425 739 b 757 443 658 739 757 615 l 757 -151 l 619 -151 l 619 -101 b 479 -169 593 -139 538 -169 b 299 86 379 -169 299 -81 b 501 400 299 261 351 368 l 613 424 l 613 443 b 532 539 613 513 581 539 b 458 457 485 539 458 504 l 458 443 l 313 443 l 313 489 l 304 489 b 178 239 240 489 189 385 m 1010 -108 b 1192 286 1013 150 1065 279 b 1010 679 1065 293 1013 431 b 824 285 1007 431 951 292 b 1010 -108 951 278 1007 150 m 522 363 b 389 119 518 232 457 125 b 522 -117 457 114 518 6 b 660 121 525 7 590 115 b 522 363 590 126 525 232 "},"㎮":{"ha":0,"x_min":0,"x_max":0,"o":"m 860 72 l 729 72 b 568 433 624 72 568 233 b 729 782 568 632 628 782 l 783 782 l 783 1024 l 893 1024 l 893 311 l 1003 1100 l 1113 1100 l 1028 496 b 1142 603 1049 564 1090 603 b 1268 392 1217 603 1268 508 l 1185 392 b 1146 456 1185 429 1167 456 b 1107 408 1121 456 1107 436 b 1146 346 1107 379 1122 365 l 1218 285 b 1278 97 1250 256 1278 192 b 1140 -142 1278 -29 1228 -142 b 1003 113 1046 -142 1003 -22 l 1086 113 b 1136 26 1086 60 1114 26 b 1183 79 1161 26 1183 46 b 1151 143 1183 106 1174 124 l 1081 203 b 1014 392 1043 232 1014 300 l 1014 397 l 919 -276 l 811 -276 m 118 72 l 15 72 l 15 782 l 118 782 l 118 642 b 207 782 128 713 158 782 l 229 782 l 229 653 b 383 793 250 735 306 793 b 551 553 479 793 551 693 l 551 72 l 450 72 l 450 113 b 344 57 431 82 388 57 b 210 264 271 57 210 129 b 361 518 210 406 250 492 l 444 538 l 444 553 b 383 631 444 610 419 631 b 329 564 350 631 329 603 l 329 553 l 219 553 l 219 590 l 214 590 b 118 388 167 590 128 506 m 742 122 b 875 425 746 321 786 419 b 742 731 786 431 746 538 b 600 425 738 538 693 431 b 742 122 693 419 738 321 m 376 489 b 276 290 374 382 328 294 b 376 100 328 286 374 200 b 479 292 379 200 429 288 b 376 489 429 296 379 382 "},"㎯":{"ha":0,"x_min":0,"x_max":0,"o":"m 1067 751 l 1067 831 l 1163 943 l 1163 942 b 1207 1026 1190 975 1207 996 b 1178 1061 1207 1047 1199 1061 b 1146 1001 1158 1061 1146 1039 l 1065 1001 b 1179 1160 1067 1075 1101 1160 b 1294 1024 1256 1160 1294 1100 b 1242 903 1294 978 1278 947 l 1188 840 b 1292 875 1221 843 1257 853 l 1292 751 m 825 72 l 700 72 b 546 433 599 72 546 233 b 700 782 546 632 603 782 l 751 782 l 751 1024 l 857 1024 l 857 307 l 963 1100 l 1068 1100 l 986 494 b 1096 603 1006 564 1046 603 b 1217 392 1168 603 1217 508 l 1138 392 b 1100 456 1138 429 1119 456 b 1063 408 1076 456 1063 436 b 1100 346 1063 379 1078 365 l 1169 285 b 1226 97 1200 256 1226 192 b 1094 -142 1226 -29 1179 -142 b 963 113 1004 -142 963 -22 l 1043 113 b 1090 26 1043 60 1069 26 b 1136 79 1115 26 1136 46 b 1106 143 1136 106 1126 124 l 1038 203 b 974 392 1001 232 974 300 l 974 396 l 883 -276 l 779 -276 m 114 72 l 15 72 l 15 782 l 114 782 l 114 643 b 199 782 122 714 153 782 l 219 782 l 219 650 b 368 793 239 733 293 793 b 529 553 460 793 529 693 l 529 72 l 432 72 l 432 113 b 331 57 414 82 372 57 b 201 264 260 57 201 129 b 347 518 201 406 240 492 l 426 538 l 426 553 b 368 631 426 610 403 631 b 317 564 336 631 317 603 l 317 553 l 211 553 l 211 590 l 206 590 b 114 388 160 590 122 506 m 713 89 b 842 425 713 310 750 419 b 713 731 754 431 715 538 b 576 425 708 538 665 431 b 713 89 671 419 713 310 m 361 489 b 265 290 358 382 315 294 b 361 100 315 286 358 200 b 460 292 364 200 413 288 b 361 489 413 296 364 382 "},"㏛":{"ha":0,"x_min":0,"x_max":0,"o":"m 383 -175 b 32 139 143 -175 32 -28 l 244 139 b 376 32 244 74 315 32 b 496 97 438 32 496 57 b 414 176 496 131 471 153 l 232 250 b 60 483 138 288 60 371 b 386 744 60 644 197 744 b 710 483 576 744 710 628 l 497 483 b 393 563 497 529 449 563 b 296 504 338 563 296 539 b 399 428 296 468 342 450 l 581 351 b 732 121 667 315 732 236 b 383 -175 732 -35 604 -175 m 1007 571 b 1204 725 1035 651 1099 725 l 1253 725 l 1253 489 l 1219 489 b 1007 250 1114 489 1029 390 l 1007 -151 l 763 -151 l 763 725 l 1007 725 "},"㎩":{"ha":0,"x_min":0,"x_max":0,"o":"m 47 -151 l 47 1024 l 397 1024 b 683 604 569 1024 683 851 b 397 200 683 358 560 200 l 261 200 l 261 -151 m 361 963 b 111 613 354 767 229 619 b 361 260 229 604 354 444 b 610 614 367 444 492 606 b 361 963 492 621 367 767 m 888 -169 b 644 86 761 -169 644 -81 b 914 400 644 261 726 368 l 1056 424 l 1056 443 b 967 539 1056 513 1029 539 b 888 457 907 539 888 504 l 888 443 l 689 443 l 689 471 b 967 739 689 621 797 739 b 1265 443 1156 739 1265 615 l 1265 -151 l 1064 -151 l 1064 -101 b 888 -169 1029 -139 960 -169 m 943 363 b 758 119 938 232 846 125 b 943 -117 846 114 938 6 b 1129 121 947 7 1040 115 b 943 363 1040 126 947 232 "}}}
